{
.appVersion = "1075";
copyright = "Copyright (c) 2013-2017 by Alessio Laiso (hello@alessiolaiso.com). Licensed under the SIL Open Font License, Version 1.3";
customParameters = (
{
name = license;

glyphs = (
{
glyphname = .notdef;
lastChange = "2017-11-28 23:39:02 +0000";
layers = (
{
layerId = "C81CB9C3-2214-4415-8D0B-901773012C9D";
paths = (
{
closed = 1;
nodes = (
"156 570 LINE",
"180 532 LINE",
"184 524 OFFCURVE",
"190 522 OFFCURVE",
"198 522 CURVE SMOOTH",
"202 522 OFFCURVE",
"206 523 OFFCURVE",
"210 526 CURVE SMOOTH",
"214 529 OFFCURVE",
"221 532 OFFCURVE",
"227 536 CURVE SMOOTH",
"233 540 OFFCURVE",
"241 543 OFFCURVE",
"251 546 CURVE SMOOTH",
"261 549 OFFCURVE",
"272 550 OFFCURVE",
"286 550 CURVE SMOOTH",
"305 550 OFFCURVE",
"320 546 OFFCURVE",
"332 536 CURVE SMOOTH",
"344 526 OFFCURVE",
"350 512 OFFCURVE",
"350 495 CURVE SMOOTH",
"350 481 OFFCURVE",
"348 470 OFFCURVE",
"342 460 CURVE SMOOTH",
"336 450 OFFCURVE",
"330 443 OFFCURVE",
"322 435 CURVE SMOOTH",
"314 427 OFFCURVE",
"305 420 OFFCURVE",
"296 414 CURVE SMOOTH",
"287 408 OFFCURVE",
"280 401 OFFCURVE",
"272 394 CURVE SMOOTH",
"264 387 OFFCURVE",
"258 378 OFFCURVE",
"254 370 CURVE SMOOTH",
"250 362 OFFCURVE",
"247 352 OFFCURVE",
"249 340 CURVE",
"255 282 LINE",
"316 282 LINE",
"324 334 LINE",
"326 342 OFFCURVE",
"330 348 OFFCURVE",
"336 354 CURVE SMOOTH",
"342 360 OFFCURVE",
"348 367 OFFCURVE",
"356 373 CURVE SMOOTH",
"364 379 OFFCURVE",
"373 386 OFFCURVE",
"382 393 CURVE SMOOTH",
"391 400 OFFCURVE",
"398 408 OFFCURVE",
"406 418 CURVE SMOOTH",
"414 428 OFFCURVE",
"420 440 OFFCURVE",
"425 454 CURVE SMOOTH",
"430 468 OFFCURVE",
"432 484 OFFCURVE",
"432 502 CURVE SMOOTH",
"432 520 OFFCURVE",
"429 537 OFFCURVE",
"422 552 CURVE SMOOTH",
"415 567 OFFCURVE",
"406 580 OFFCURVE",
"394 590 CURVE SMOOTH",
"382 600 OFFCURVE",
"367 609 OFFCURVE",
"350 615 CURVE SMOOTH",
"333 621 OFFCURVE",
"314 624 OFFCURVE",
"293 624 CURVE SMOOTH",
"277 624 OFFCURVE",
"263 623 OFFCURVE",
"250 620 CURVE SMOOTH",
"237 617 OFFCURVE",
"225 613 OFFCURVE",
"213 608 CURVE SMOOTH",
"201 603 OFFCURVE",
"192 596 OFFCURVE",
"182 590 CURVE SMOOTH",
"172 584 OFFCURVE",
"162 578 OFFCURVE",
"154 570 CURVE"
);
},
{
closed = 1;
nodes = (
"228 145 LINE",
"228 129 OFFCURVE",
"233 116 OFFCURVE",
"243 106 CURVE SMOOTH",
"253 96 OFFCURVE",
"266 90 OFFCURVE",
"282 90 CURVE SMOOTH",
"290 90 OFFCURVE",
"298 91 OFFCURVE",
"304 94 CURVE SMOOTH",
"310 97 OFFCURVE",
"315 101 OFFCURVE",
"320 106 CURVE SMOOTH",
"325 111 OFFCURVE",
"329 118 OFFCURVE",
"332 124 CURVE SMOOTH",
"335 130 OFFCURVE",
"337 137 OFFCURVE",
"337 145 CURVE SMOOTH",
"337 153 OFFCURVE",
"335 159 OFFCURVE",
"332 166 CURVE SMOOTH",
"329 173 OFFCURVE",
"325 179 OFFCURVE",
"320 184 CURVE SMOOTH",
"315 189 OFFCURVE",
"309 193 OFFCURVE",
"303 196 CURVE SMOOTH",
"297 199 OFFCURVE",
"290 201 OFFCURVE",
"282 201 CURVE SMOOTH",
"266 201 OFFCURVE",
"252 195 OFFCURVE",
"242 185 CURVE SMOOTH",
"232 175 OFFCURVE",
"227 162 OFFCURVE",
"227 146 CURVE"
);
},
{
closed = 1;
nodes = (
"52 716 LINE",
"52 0 LINE",
"538 0 LINE",
"538 716 LINE"
);
},
{
closed = 1;
nodes = (
"76 27 LINE",
"76 689 LINE",
"510 689 LINE",
"510 27 LINE"
);
}
);
width = 594;
}
);
note = .notdef;
},
{
glyphname = exclam;
lastChange = "2017-11-28 23:39:02 +0000";
layers = (
{
layerId = "C81CB9C3-2214-4415-8D0B-901773012C9D";
paths = (
{
closed = 1;
nodes = (
"140 716 LINE",
"56 716 LINE",
"56 430 LINE",
"56 386 LINE SMOOTH",
"56 372 OFFCURVE",
"57 357 OFFCURVE",
"58 343 CURVE SMOOTH",
"59 329 OFFCURVE",
"60 313 OFFCURVE",
"62 298 CURVE SMOOTH",
"64 283 OFFCURVE",
"65 268 OFFCURVE",
"67 250 CURVE",
"128 250 LINE",
"130 268 OFFCURVE",
"130 283 OFFCURVE",
"132 298 CURVE SMOOTH",
"134 313 OFFCURVE",
"135 328 OFFCURVE",
"136 342 CURVE SMOOTH",
"137 356 OFFCURVE",
"138 372 OFFCURVE",
"138 386 CURVE SMOOTH",
"138 430 LINE"
);
},
{
closed = 1;
nodes = (
"32 45 OFFCURVE",
"34 38 OFFCURVE",
"37 30 CURVE SMOOTH",
"40 22 OFFCURVE",
"44 16 OFFCURVE",
"50 10 CURVE SMOOTH",
"56 4 OFFCURVE",
"62 0 OFFCURVE",
"70 -3 CURVE SMOOTH",
"78 -6 OFFCURVE",
"86 -8 OFFCURVE",
"94 -8 CURVE SMOOTH",
"102 -8 OFFCURVE",
"110 -6 OFFCURVE",
"118 -3 CURVE SMOOTH",
"126 0 OFFCURVE",
"131 4 OFFCURVE",
"137 10 CURVE SMOOTH",
"143 16 OFFCURVE",
"147 22 OFFCURVE",
"150 30 CURVE SMOOTH",
"153 38 OFFCURVE",
"154 45 OFFCURVE",
"154 54 CURVE SMOOTH",
"154 62 OFFCURVE",
"153 70 OFFCURVE",
"150 78 CURVE SMOOTH",
"147 86 OFFCURVE",
"143 92 OFFCURVE",
"137 98 CURVE SMOOTH",
"131 104 OFFCURVE",
"126 107 OFFCURVE",
"118 111 CURVE SMOOTH",
"110 115 OFFCURVE",
"102 116 OFFCURVE",
"94 116 CURVE SMOOTH",
"86 116 OFFCURVE",
"78 115 OFFCURVE",
"70 111 CURVE SMOOTH",
"62 107 OFFCURVE",
"56 104 OFFCURVE",
"50 98 CURVE SMOOTH",
"44 92 OFFCURVE",
"40 86 OFFCURVE",
"37 78 CURVE SMOOTH",
"34 70 OFFCURVE",
"32 62 OFFCURVE",
"32 54 CURVE SMOOTH"
);
}
);
width = 194;
}
);
note = exclam;
unicode = 0021;
},
{
glyphname = quotedbl;
lastChange = "2017-11-28 23:39:02 +0000";
layers = (
{
layerId = "C81CB9C3-2214-4415-8D0B-901773012C9D";
paths = (
{
closed = 1;
nodes = (
"121 716 LINE",
"44 716 LINE",
"44 572 LINE",
"52 494 LINE",
"54 484 OFFCURVE",
"57 475 OFFCURVE",
"62 469 CURVE SMOOTH",
"67 463 OFFCURVE",
"74 460 OFFCURVE",
"82 460 CURVE SMOOTH",
"92 460 OFFCURVE",
"100 463 OFFCURVE",
"104 469 CURVE SMOOTH",
"108 475 OFFCURVE",
"112 484 OFFCURVE",
"113 494 CURVE SMOOTH",
"121 571 LINE"
);
},
{
closed = 1;
nodes = (
"288 716 LINE",
"210 716 LINE",
"210 571 LINE",
"218 494 LINE",
"220 484 OFFCURVE",
"223 474 OFFCURVE",
"228 468 CURVE SMOOTH",
"233 462 OFFCURVE",
"240 460 OFFCURVE",
"248 460 CURVE SMOOTH",
"258 460 OFFCURVE",
"267 462 OFFCURVE",
"271 468 CURVE SMOOTH",
"275 474 OFFCURVE",
"279 483 OFFCURVE",
"280 493 CURVE SMOOTH",
"288 570 LINE"
);
}
);
width = 330;
}
);
leftKerningGroup = ordfeminine;
note = quotedbl;
rightKerningGroup = ordfeminine;
unicode = 0022;
},
{
glyphname = numbersign;
lastChange = "2017-11-28 23:39:02 +0000";
layers = (
{
layerId = "C81CB9C3-2214-4415-8D0B-901773012C9D";
paths = (
{
closed = 1;
nodes = (
"392 212 LINE",
"510 212 LINE",
"514 240 LINE",
"514 242 OFFCURVE",
"515 244 OFFCURVE",
"515 246 CURVE SMOOTH",
"515 251 LINE SMOOTH",
"515 261 OFFCURVE",
"512 267 OFFCURVE",
"508 271 CURVE SMOOTH",
"504 275 OFFCURVE",
"498 277 OFFCURVE",
"490 277 CURVE SMOOTH",
"400 277 LINE",
"433 440 LINE",
"502 440 LINE SMOOTH",
"514 440 OFFCURVE",
"524 442 OFFCURVE",
"530 446 CURVE SMOOTH",
"536 450 OFFCURVE",
"540 458 OFFCURVE",
"542 468 CURVE",
"548 505 LINE",
"442 505 LINE",
"478 682 LINE",
"478 684 OFFCURVE",
"479 686 OFFCURVE",
"479 688 CURVE SMOOTH",
"479 696 OFFCURVE",
"476 703 OFFCURVE",
"470 708 CURVE SMOOTH",
"464 713 OFFCURVE",
"458 716 OFFCURVE",
"450 716 CURVE SMOOTH",
"410 716 LINE",
"368 504 LINE",
"244 504 LINE",
"286 716 LINE",
"246 716 LINE SMOOTH",
"236 716 OFFCURVE",
"228 713 OFFCURVE",
"221 707 CURVE SMOOTH",
"214 701 OFFCURVE",
"210 694 OFFCURVE",
"208 684 CURVE SMOOTH",
"172 504 LINE",
"92 504 LINE SMOOTH",
"79 504 OFFCURVE",
"70 502 OFFCURVE",
"64 498 CURVE SMOOTH",
"58 494 OFFCURVE",
"54 486 OFFCURVE",
"52 476 CURVE SMOOTH",
"46 440 LINE",
"162 440 LINE",
"130 276 LINE",
"28 276 LINE",
"24 248 LINE",
"24 246 OFFCURVE",
"22 244 OFFCURVE",
"22 242 CURVE SMOOTH",
"22 236 LINE SMOOTH",
"22 226 OFFCURVE",
"25 220 OFFCURVE",
"29 216 CURVE SMOOTH",
"33 212 OFFCURVE",
"39 210 OFFCURVE",
"47 210 CURVE SMOOTH",
"120 210 LINE",
"78 -1 LINE",
"117 -1 LINE SMOOTH",
"127 -1 OFFCURVE",
"134 1 OFFCURVE",
"142 6 CURVE SMOOTH",
"150 11 OFFCURVE",
"156 20 OFFCURVE",
"158 32 CURVE SMOOTH",
"193 210 LINE",
"316 210 LINE",
"281 37 LINE",
"281 35 OFFCURVE",
"280 34 OFFCURVE",
"280 33 CURVE SMOOTH",
"280 29 LINE SMOOTH",
"280 20 OFFCURVE",
"282 13 OFFCURVE",
"288 7 CURVE SMOOTH",
"294 1 OFFCURVE",
"300 -2 OFFCURVE",
"308 -2 CURVE SMOOTH",
"348 -2 LINE"
);
},
{
closed = 1;
nodes = (
"202 276 LINE",
"235 438 LINE",
"358 438 LINE",
"326 276 LINE"
);
}
);
width = 569;
}
);
note = numbersign;
unicode = 0023;
},
{
glyphname = dollar;
lastChange = "2017-11-28 23:39:02 +0000";
layers = (
{
layerId = "C81CB9C3-2214-4415-8D0B-901773012C9D";
paths = (
{
closed = 1;
nodes = (
"212 -6 LINE",
"205 -119 LINE",
"238 -119 LINE SMOOTH",
"245 -119 OFFCURVE",
"251 -117 OFFCURVE",
"255 -112 CURVE SMOOTH",
"259 -107 OFFCURVE",
"262 -100 OFFCURVE",
"262 -94 CURVE",
"268 -6 LINE",
"304 -4 OFFCURVE",
"336 3 OFFCURVE",
"364 15 CURVE SMOOTH",
"392 27 OFFCURVE",
"415 44 OFFCURVE",
"434 64 CURVE SMOOTH",
"453 84 OFFCURVE",
"468 107 OFFCURVE",
"478 133 CURVE SMOOTH",
"488 159 OFFCURVE",
"492 188 OFFCURVE",
"492 218 CURVE SMOOTH",
"492 248 OFFCURVE",
"487 274 OFFCURVE",
"475 294 CURVE SMOOTH",
"463 314 OFFCURVE",
"448 331 OFFCURVE",
"430 345 CURVE SMOOTH",
"412 359 OFFCURVE",
"391 370 OFFCURVE",
"367 378 CURVE SMOOTH",
"343 386 OFFCURVE",
"320 394 OFFCURVE",
"296 402 CURVE",
"312 644 LINE",
"328 642 OFFCURVE",
"344 638 OFFCURVE",
"356 632 CURVE SMOOTH",
"368 626 OFFCURVE",
"379 622 OFFCURVE",
"389 616 CURVE SMOOTH",
"399 610 OFFCURVE",
"407 605 OFFCURVE",
"414 601 CURVE SMOOTH",
"421 597 OFFCURVE",
"426 595 OFFCURVE",
"430 595 CURVE SMOOTH",
"438 595 OFFCURVE",
"447 600 OFFCURVE",
"453 610 CURVE SMOOTH",
"474 643 LINE",
"454 663 OFFCURVE",
"432 678 OFFCURVE",
"406 692 CURVE SMOOTH",
"380 706 OFFCURVE",
"351 716 OFFCURVE",
"316 720 CURVE",
"323 818 LINE",
"290 818 LINE SMOOTH",
"282 818 OFFCURVE",
"276 816 OFFCURVE",
"272 811 CURVE SMOOTH",
"268 806 OFFCURVE",
"264 800 OFFCURVE",
"264 794 CURVE",
"260 722 LINE",
"226 720 OFFCURVE",
"194 714 OFFCURVE",
"168 702 CURVE SMOOTH",
"142 690 OFFCURVE",
"119 676 OFFCURVE",
"101 658 CURVE SMOOTH",
"83 640 OFFCURVE",
"70 619 OFFCURVE",
"60 596 CURVE SMOOTH",
"50 573 OFFCURVE",
"45 549 OFFCURVE",
"45 525 CURVE SMOOTH",
"45 493 OFFCURVE",
"51 466 OFFCURVE",
"62 444 CURVE SMOOTH",
"73 422 OFFCURVE",
"87 404 OFFCURVE",
"105 390 CURVE SMOOTH",
"123 376 OFFCURVE",
"144 365 OFFCURVE",
"166 356 CURVE SMOOTH",
"188 347 OFFCURVE",
"210 339 OFFCURVE",
"234 332 CURVE",
"216 66 LINE",
"194 68 OFFCURVE",
"174 74 OFFCURVE",
"158 82 CURVE SMOOTH",
"142 90 OFFCURVE",
"128 97 OFFCURVE",
"116 105 CURVE SMOOTH",
"104 113 OFFCURVE",
"95 120 OFFCURVE",
"87 126 CURVE SMOOTH",
"79 132 OFFCURVE",
"72 136 OFFCURVE",
"66 136 CURVE SMOOTH",
"62 136 OFFCURVE",
"56 134 OFFCURVE",
"52 132 CURVE SMOOTH",
"48 130 OFFCURVE",
"44 128 OFFCURVE",
"42 124 CURVE",
"15 82 LINE",
"39 57 OFFCURVE",
"67 37 OFFCURVE",
"100 21 CURVE SMOOTH",
"133 5 OFFCURVE",
"170 -4 OFFCURVE",
"210 -8 CURVE"
);
},
{
closed = 1;
nodes = (
"407 201 LINE",
"407 183 OFFCURVE",
"404 166 OFFCURVE",
"398 150 CURVE SMOOTH",
"392 134 OFFCURVE",
"384 122 OFFCURVE",
"372 110 CURVE SMOOTH",
"360 98 OFFCURVE",
"347 89 OFFCURVE",
"330 81 CURVE SMOOTH",
"313 73 OFFCURVE",
"294 68 OFFCURVE",
"272 66 CURVE",
"288 316 LINE",
"304 310 OFFCURVE",
"321 304 OFFCURVE",
"335 298 CURVE SMOOTH",
"349 292 OFFCURVE",
"362 283 OFFCURVE",
"372 275 CURVE SMOOTH",
"382 267 OFFCURVE",
"392 256 OFFCURVE",
"398 244 CURVE SMOOTH",
"404 232 OFFCURVE",
"406 217 OFFCURVE",
"406 201 CURVE"
);
},
{
closed = 1;
nodes = (
"129 533 LINE",
"129 547 OFFCURVE",
"131 560 OFFCURVE",
"136 572 CURVE SMOOTH",
"141 584 OFFCURVE",
"149 596 OFFCURVE",
"159 606 CURVE SMOOTH",
"169 616 OFFCURVE",
"182 624 OFFCURVE",
"198 630 CURVE SMOOTH",
"214 636 OFFCURVE",
"232 642 OFFCURVE",
"254 644 CURVE",
"239 418 LINE",
"223 424 OFFCURVE",
"210 430 OFFCURVE",
"196 436 CURVE SMOOTH",
"182 442 OFFCURVE",
"170 451 OFFCURVE",
"160 460 CURVE SMOOTH",
"150 469 OFFCURVE",
"143 479 OFFCURVE",
"137 491 CURVE SMOOTH",
"131 503 OFFCURVE",
"128 517 OFFCURVE",
"128 533 CURVE"
);
}
);
width = 515;
}
);
note = dollar;
unicode = 0024;
},
{
glyphname = percent;
lastChange = "2017-11-28 23:39:02 +0000";
layers = (
{
layerId = "C81CB9C3-2214-4415-8D0B-901773012C9D";
paths = (
{
closed = 1;
nodes = (
"344 572 OFFCURVE",
"340 598 OFFCURVE",
"332 620 CURVE SMOOTH",
"324 642 OFFCURVE",
"314 661 OFFCURVE",
"300 677 CURVE SMOOTH",
"286 693 OFFCURVE",
"269 704 OFFCURVE",
"249 712 CURVE SMOOTH",
"229 720 OFFCURVE",
"208 724 OFFCURVE",
"186 724 CURVE SMOOTH",
"164 724 OFFCURVE",
"143 720 OFFCURVE",
"124 712 CURVE SMOOTH",
"105 704 OFFCURVE",
"87 693 OFFCURVE",
"73 677 CURVE SMOOTH",
"59 661 OFFCURVE",
"48 642 OFFCURVE",
"40 620 CURVE SMOOTH",
"32 598 OFFCURVE",
"28 572 OFFCURVE",
"28 544 CURVE SMOOTH",
"28 516 OFFCURVE",
"32 490 OFFCURVE",
"40 468 CURVE SMOOTH",
"48 446 OFFCURVE",
"59 428 OFFCURVE",
"73 413 CURVE SMOOTH",
"87 398 OFFCURVE",
"104 386 OFFCURVE",
"123 378 CURVE SMOOTH",
"142 370 OFFCURVE",
"164 366 OFFCURVE",
"186 366 CURVE SMOOTH",
"207 366 OFFCURVE",
"226 370 OFFCURVE",
"246 378 CURVE SMOOTH",
"266 386 OFFCURVE",
"283 398 OFFCURVE",
"297 413 CURVE SMOOTH",
"311 428 OFFCURVE",
"324 446 OFFCURVE",
"332 468 CURVE SMOOTH",
"340 490 OFFCURVE",
"344 516 OFFCURVE",
"344 544 CURVE SMOOTH"
);
},
{
closed = 1;
nodes = (
"275 544 LINE",
"275 522 OFFCURVE",
"272 503 OFFCURVE",
"268 488 CURVE SMOOTH",
"264 473 OFFCURVE",
"257 462 OFFCURVE",
"249 452 CURVE SMOOTH",
"241 442 OFFCURVE",
"231 435 OFFCURVE",
"220 431 CURVE SMOOTH",
"209 427 OFFCURVE",
"198 425 OFFCURVE",
"186 425 CURVE SMOOTH",
"174 425 OFFCURVE",
"161 427 OFFCURVE",
"150 431 CURVE SMOOTH",
"139 435 OFFCURVE",
"130 442 OFFCURVE",
"122 452 CURVE SMOOTH",
"114 462 OFFCURVE",
"107 473 OFFCURVE",
"103 488 CURVE SMOOTH",
"99 503 OFFCURVE",
"96 522 OFFCURVE",
"96 544 CURVE SMOOTH",
"96 566 OFFCURVE",
"98 584 OFFCURVE",
"102 600 CURVE SMOOTH",
"106 616 OFFCURVE",
"113 628 OFFCURVE",
"121 638 CURVE SMOOTH",
"129 648 OFFCURVE",
"139 655 OFFCURVE",
"150 659 CURVE SMOOTH",
"161 663 OFFCURVE",
"172 666 OFFCURVE",
"184 666 CURVE SMOOTH",
"196 666 OFFCURVE",
"209 663 OFFCURVE",
"220 659 CURVE SMOOTH",
"231 655 OFFCURVE",
"240 648 OFFCURVE",
"248 638 CURVE SMOOTH",
"256 628 OFFCURVE",
"263 616 OFFCURVE",
"267 600 CURVE SMOOTH",
"271 584 OFFCURVE",
"274 566 OFFCURVE",
"274 544 CURVE"
);
},
{
closed = 1;
nodes = (
"594 698 LINE",
"73 0 LINE",
"139 0 LINE SMOOTH",
"145 0 OFFCURVE",
"152 2 OFFCURVE",
"156 4 CURVE SMOOTH",
"160 6 OFFCURVE",
"164 10 OFFCURVE",
"168 14 CURVE",
"691 716 LINE",
"627 716 LINE SMOOTH",
"619 716 OFFCURVE",
"613 715 OFFCURVE",
"608 712 CURVE SMOOTH",
"603 709 OFFCURVE",
"598 705 OFFCURVE",
"594 699 CURVE"
);
},
{
closed = 1;
nodes = (
"739 170 LINE",
"739 198 OFFCURVE",
"735 224 OFFCURVE",
"727 246 CURVE SMOOTH",
"719 268 OFFCURVE",
"708 287 OFFCURVE",
"694 303 CURVE SMOOTH",
"680 319 OFFCURVE",
"662 330 OFFCURVE",
"642 338 CURVE SMOOTH",
"622 346 OFFCURVE",
"602 350 OFFCURVE",
"580 350 CURVE SMOOTH",
"558 350 OFFCURVE",
"536 346 OFFCURVE",
"517 338 CURVE SMOOTH",
"498 330 OFFCURVE",
"480 319 OFFCURVE",
"466 303 CURVE SMOOTH",
"452 287 OFFCURVE",
"441 268 OFFCURVE",
"433 246 CURVE SMOOTH",
"425 224 OFFCURVE",
"421 198 OFFCURVE",
"421 170 CURVE SMOOTH",
"421 142 OFFCURVE",
"425 116 OFFCURVE",
"433 94 CURVE SMOOTH",
"441 72 OFFCURVE",
"452 54 OFFCURVE",
"466 39 CURVE SMOOTH",
"480 24 OFFCURVE",
"497 12 OFFCURVE",
"516 4 CURVE SMOOTH",
"535 -4 OFFCURVE",
"557 -8 OFFCURVE",
"579 -8 CURVE SMOOTH",
"600 -8 OFFCURVE",
"620 -4 OFFCURVE",
"639 4 CURVE SMOOTH",
"658 12 OFFCURVE",
"676 24 OFFCURVE",
"690 39 CURVE SMOOTH",
"704 54 OFFCURVE",
"716 72 OFFCURVE",
"724 94 CURVE SMOOTH",
"732 116 OFFCURVE",
"737 142 OFFCURVE",
"737 170 CURVE"
);
},
{
closed = 1;
nodes = (
"668 170 LINE",
"668 148 OFFCURVE",
"665 129 OFFCURVE",
"661 114 CURVE SMOOTH",
"657 99 OFFCURVE",
"650 88 OFFCURVE",
"642 78 CURVE SMOOTH",
"634 68 OFFCURVE",
"625 61 OFFCURVE",
"614 57 CURVE SMOOTH",
"603 53 OFFCURVE",
"590 51 OFFCURVE",
"578 51 CURVE SMOOTH",
"566 51 OFFCURVE",
"555 53 OFFCURVE",
"544 57 CURVE SMOOTH",
"533 61 OFFCURVE",
"523 68 OFFCURVE",
"515 78 CURVE SMOOTH",
"507 88 OFFCURVE",
"500 99 OFFCURVE",
"496 114 CURVE SMOOTH",
"492 129 OFFCURVE",
"489 147 OFFCURVE",
"489 169 CURVE SMOOTH",
"489 191 OFFCURVE",
"492 209 OFFCURVE",
"496 225 CURVE SMOOTH",
"500 241 OFFCURVE",
"506 252 OFFCURVE",
"514 262 CURVE SMOOTH",
"522 272 OFFCURVE",
"531 280 OFFCURVE",
"542 284 CURVE SMOOTH",
"553 288 OFFCURVE",
"566 290 OFFCURVE",
"578 290 CURVE SMOOTH",
"590 290 OFFCURVE",
"601 288 OFFCURVE",
"612 284 CURVE SMOOTH",
"623 280 OFFCURVE",
"633 272 OFFCURVE",
"641 262 CURVE SMOOTH",
"649 252 OFFCURVE",
"656 241 OFFCURVE",
"660 225 CURVE SMOOTH",
"664 209 OFFCURVE",
"667 190 OFFCURVE",
"667 168 CURVE"
);
}
);
width = 765;
}
);
note = percent;
unicode = 0025;
},
{
glyphname = ampersand;
lastChange = "2017-11-28 23:39:02 +0000";
layers = (
{
layerId = "C81CB9C3-2214-4415-8D0B-901773012C9D";
paths = (
{
closed = 1;
nodes = (
"314 724 LINE",
"284 724 OFFCURVE",
"258 720 OFFCURVE",
"234 711 CURVE SMOOTH",
"210 702 OFFCURVE",
"189 690 OFFCURVE",
"173 674 CURVE SMOOTH",
"157 658 OFFCURVE",
"143 640 OFFCURVE",
"134 618 CURVE SMOOTH",
"125 596 OFFCURVE",
"121 572 OFFCURVE",
"121 548 CURVE SMOOTH",
"121 522 OFFCURVE",
"126 497 OFFCURVE",
"136 473 CURVE SMOOTH",
"146 449 OFFCURVE",
"160 424 OFFCURVE",
"180 398 CURVE",
"158 388 OFFCURVE",
"137 376 OFFCURVE",
"118 362 CURVE SMOOTH",
"99 348 OFFCURVE",
"82 332 OFFCURVE",
"68 314 CURVE SMOOTH",
"54 296 OFFCURVE",
"44 277 OFFCURVE",
"36 256 CURVE SMOOTH",
"28 235 OFFCURVE",
"24 214 OFFCURVE",
"24 190 CURVE SMOOTH",
"24 159 OFFCURVE",
"30 130 OFFCURVE",
"42 106 CURVE SMOOTH",
"54 82 OFFCURVE",
"70 61 OFFCURVE",
"90 44 CURVE SMOOTH",
"110 27 OFFCURVE",
"133 14 OFFCURVE",
"159 5 CURVE SMOOTH",
"185 -4 OFFCURVE",
"211 -8 OFFCURVE",
"237 -8 CURVE SMOOTH",
"286 -8 OFFCURVE",
"331 0 OFFCURVE",
"372 18 CURVE SMOOTH",
"413 36 OFFCURVE",
"448 60 OFFCURVE",
"480 90 CURVE",
"552 18 LINE SMOOTH",
"560 10 OFFCURVE",
"566 4 OFFCURVE",
"572 2 CURVE SMOOTH",
"578 0 OFFCURVE",
"586 -1 OFFCURVE",
"596 -1 CURVE SMOOTH",
"682 -1 LINE",
"532 151 LINE",
"554 183 OFFCURVE",
"570 218 OFFCURVE",
"582 255 CURVE SMOOTH",
"594 292 OFFCURVE",
"600 330 OFFCURVE",
"600 368 CURVE",
"546 368 LINE SMOOTH",
"540 368 OFFCURVE",
"536 366 OFFCURVE",
"532 362 CURVE SMOOTH",
"528 358 OFFCURVE",
"526 354 OFFCURVE",
"526 348 CURVE",
"524 324 OFFCURVE",
"518 298 OFFCURVE",
"510 274 CURVE SMOOTH",
"502 250 OFFCURVE",
"492 226 OFFCURVE",
"480 204 CURVE",
"274 413 LINE SMOOTH",
"262 425 OFFCURVE",
"251 437 OFFCURVE",
"242 449 CURVE SMOOTH",
"233 461 OFFCURVE",
"226 471 OFFCURVE",
"220 482 CURVE SMOOTH",
"214 493 OFFCURVE",
"210 504 OFFCURVE",
"207 514 CURVE SMOOTH",
"204 524 OFFCURVE",
"202 536 OFFCURVE",
"202 548 CURVE SMOOTH",
"202 563 OFFCURVE",
"205 577 OFFCURVE",
"210 590 CURVE SMOOTH",
"215 603 OFFCURVE",
"222 613 OFFCURVE",
"232 623 CURVE SMOOTH",
"242 633 OFFCURVE",
"252 640 OFFCURVE",
"266 646 CURVE SMOOTH",
"280 652 OFFCURVE",
"296 654 OFFCURVE",
"312 654 CURVE SMOOTH",
"328 654 OFFCURVE",
"340 651 OFFCURVE",
"352 646 CURVE SMOOTH",
"364 641 OFFCURVE",
"374 635 OFFCURVE",
"382 627 CURVE SMOOTH",
"390 619 OFFCURVE",
"396 612 OFFCURVE",
"401 602 CURVE SMOOTH",
"406 592 OFFCURVE",
"410 582 OFFCURVE",
"412 574 CURVE",
"414 568 OFFCURVE",
"416 564 OFFCURVE",
"420 562 CURVE SMOOTH",
"424 560 OFFCURVE",
"428 558 OFFCURVE",
"432 558 CURVE SMOOTH",
"434 558 OFFCURVE",
"435 559 OFFCURVE",
"437 559 CURVE",
"492 570 LINE",
"490 590 OFFCURVE",
"485 610 OFFCURVE",
"476 628 CURVE SMOOTH",
"467 646 OFFCURVE",
"455 662 OFFCURVE",
"439 676 CURVE SMOOTH",
"423 690 OFFCURVE",
"404 702 OFFCURVE",
"382 710 CURVE SMOOTH",
"360 718 OFFCURVE",
"336 722 OFFCURVE",
"310 722 CURVE"
);
},
{
closed = 1;
nodes = (
"112 196 LINE",
"112 228 OFFCURVE",
"121 257 OFFCURVE",
"139 283 CURVE SMOOTH",
"157 309 OFFCURVE",
"183 332 OFFCURVE",
"219 351 CURVE",
"430 138 LINE",
"408 116 OFFCURVE",
"382 98 OFFCURVE",
"352 84 CURVE SMOOTH",
"322 70 OFFCURVE",
"290 63 OFFCURVE",
"252 63 CURVE SMOOTH",
"234 63 OFFCURVE",
"217 66 OFFCURVE",
"201 72 CURVE SMOOTH",
"185 78 OFFCURVE",
"169 86 OFFCURVE",
"156 98 CURVE SMOOTH",
"143 110 OFFCURVE",
"133 124 OFFCURVE",
"125 140 CURVE SMOOTH",
"117 156 OFFCURVE",
"113 175 OFFCURVE",
"113 197 CURVE"
);
}
);
width = 700;
}
);
note = ampersand;
unicode = 0026;
},
{
glyphname = quotesingle;
lastChange = "2017-11-28 23:39:02 +0000";
layers = (
{
layerId = "C81CB9C3-2214-4415-8D0B-901773012C9D";
paths = (
{
closed = 1;
nodes = (
"121 716 LINE",
"44 716 LINE",
"44 572 LINE",
"52 494 LINE",
"54 484 OFFCURVE",
"57 475 OFFCURVE",
"62 469 CURVE SMOOTH",
"67 463 OFFCURVE",
"74 460 OFFCURVE",
"82 460 CURVE SMOOTH",
"92 460 OFFCURVE",
"100 463 OFFCURVE",
"104 469 CURVE SMOOTH",
"108 475 OFFCURVE",
"112 484 OFFCURVE",
"113 494 CURVE SMOOTH",
"121 571 LINE"
);
}
);
width = 164;
}
);
leftKerningGroup = ordfeminine;
note = quotesingle;
rightKerningGroup = ordfeminine;
unicode = 0027;
},
{
glyphname = parenleft;
lastChange = "2017-11-28 23:39:02 +0000";
layers = (
{
layerId = "C81CB9C3-2214-4415-8D0B-901773012C9D";
paths = (
{
closed = 1;
nodes = (
"109 314 LINE",
"109 386 OFFCURVE",
"118 455 OFFCURVE",
"136 523 CURVE SMOOTH",
"154 591 OFFCURVE",
"181 655 OFFCURVE",
"216 715 CURVE",
"220 721 OFFCURVE",
"220 727 OFFCURVE",
"220 732 CURVE SMOOTH",
"220 736 OFFCURVE",
"219 741 OFFCURVE",
"217 744 CURVE SMOOTH",
"215 747 OFFCURVE",
"212 750 OFFCURVE",
"208 752 CURVE",
"168 776 LINE",
"143 738 OFFCURVE",
"122 700 OFFCURVE",
"104 662 CURVE SMOOTH",
"86 624 OFFCURVE",
"73 586 OFFCURVE",
"62 548 CURVE SMOOTH",
"51 510 OFFCURVE",
"43 472 OFFCURVE",
"38 434 CURVE SMOOTH",
"33 396 OFFCURVE",
"30 355 OFFCURVE",
"30 315 CURVE SMOOTH",
"30 275 OFFCURVE",
"33 234 OFFCURVE",
"38 196 CURVE SMOOTH",
"43 158 OFFCURVE",
"51 120 OFFCURVE",
"62 82 CURVE SMOOTH",
"73 44 OFFCURVE",
"86 6 OFFCURVE",
"104 -32 CURVE SMOOTH",
"122 -70 OFFCURVE",
"143 -108 OFFCURVE",
"168 -146 CURVE",
"208 -122 LINE",
"212 -120 OFFCURVE",
"214 -117 OFFCURVE",
"216 -114 CURVE SMOOTH",
"218 -111 OFFCURVE",
"220 -106 OFFCURVE",
"220 -102 CURVE SMOOTH",
"220 -100 OFFCURVE",
"219 -97 OFFCURVE",
"219 -95 CURVE SMOOTH",
"219 -93 OFFCURVE",
"217 -90 OFFCURVE",
"215 -86 CURVE",
"181 -25 OFFCURVE",
"154 39 OFFCURVE",
"136 106 CURVE SMOOTH",
"118 173 OFFCURVE",
"108 242 OFFCURVE",
"108 314 CURVE"
);
}
);
width = 240;
}
);
note = parenleft;
unicode = 0028;
},
{
glyphname = parenright;
lastChange = "2017-11-28 23:39:02 +0000";
layers = (
{
layerId = "C81CB9C3-2214-4415-8D0B-901773012C9D";
paths = (
{
closed = 1;
nodes = (
"132 242 OFFCURVE",
"123 173 OFFCURVE",
"105 106 CURVE SMOOTH",
"87 39 OFFCURVE",
"60 -25 OFFCURVE",
"26 -86 CURVE",
"24 -90 OFFCURVE",
"22 -92 OFFCURVE",
"22 -94 CURVE SMOOTH",
"22 -96 OFFCURVE",
"20 -100 OFFCURVE",
"20 -102 CURVE SMOOTH",
"20 -106 OFFCURVE",
"22 -111 OFFCURVE",
"24 -114 CURVE SMOOTH",
"26 -117 OFFCURVE",
"29 -120 OFFCURVE",
"33 -122 CURVE",
"72 -146 LINE",
"97 -108 OFFCURVE",
"118 -70 OFFCURVE",
"136 -32 CURVE SMOOTH",
"154 6 OFFCURVE",
"167 44 OFFCURVE",
"178 82 CURVE SMOOTH",
"189 120 OFFCURVE",
"197 158 OFFCURVE",
"202 196 CURVE SMOOTH",
"207 234 OFFCURVE",
"210 275 OFFCURVE",
"210 315 CURVE SMOOTH",
"210 355 OFFCURVE",
"207 396 OFFCURVE",
"202 434 CURVE SMOOTH",
"197 472 OFFCURVE",
"189 510 OFFCURVE",
"178 548 CURVE SMOOTH",
"167 586 OFFCURVE",
"154 623 OFFCURVE",
"136 661 CURVE SMOOTH",
"118 699 OFFCURVE",
"97 737 OFFCURVE",
"72 775 CURVE",
"32 750 LINE",
"28 748 OFFCURVE",
"26 745 OFFCURVE",
"24 742 CURVE SMOOTH",
"22 739 OFFCURVE",
"20 735 OFFCURVE",
"20 731 CURVE SMOOTH",
"20 726 OFFCURVE",
"21 720 OFFCURVE",
"25 714 CURVE",
"60 654 OFFCURVE",
"86 590 OFFCURVE",
"104 522 CURVE SMOOTH",
"122 454 OFFCURVE",
"132 386 OFFCURVE",
"132 314 CURVE SMOOTH"
);
}
);
width = 240;
}
);
note = parenright;
unicode = 0029;
},
{
glyphname = asterisk;
lastChange = "2017-11-28 23:39:02 +0000";
layers = (
{
layerId = "C81CB9C3-2214-4415-8D0B-901773012C9D";
paths = (
{
closed = 1;
nodes = (
"162 432 LINE",
"206 432 LINE",
"206 530 LINE SMOOTH",
"206 543 OFFCURVE",
"204 555 OFFCURVE",
"198 566 CURVE",
"202 560 OFFCURVE",
"206 557 OFFCURVE",
"210 553 CURVE SMOOTH",
"214 549 OFFCURVE",
"220 546 OFFCURVE",
"226 542 CURVE",
"312 492 LINE",
"334 530 LINE",
"248 580 LINE",
"242 584 OFFCURVE",
"237 586 OFFCURVE",
"231 588 CURVE SMOOTH",
"225 590 OFFCURVE",
"220 592 OFFCURVE",
"214 592 CURVE",
"220 592 OFFCURVE",
"224 594 OFFCURVE",
"230 596 CURVE SMOOTH",
"236 598 OFFCURVE",
"241 600 OFFCURVE",
"247 604 CURVE",
"333 654 LINE",
"311 692 LINE",
"225 642 LINE",
"219 638 OFFCURVE",
"214 636 OFFCURVE",
"210 632 CURVE SMOOTH",
"206 628 OFFCURVE",
"202 624 OFFCURVE",
"198 619 CURVE",
"202 629 OFFCURVE",
"205 641 OFFCURVE",
"205 655 CURVE SMOOTH",
"205 754 LINE",
"161 754 LINE",
"161 654 LINE SMOOTH",
"161 648 OFFCURVE",
"161 642 OFFCURVE",
"162 636 CURVE SMOOTH",
"163 630 OFFCURVE",
"165 624 OFFCURVE",
"168 618 CURVE",
"160 628 OFFCURVE",
"152 637 OFFCURVE",
"140 643 CURVE",
"54 693 LINE",
"32 656 LINE",
"118 605 LINE",
"124 601 OFFCURVE",
"130 598 OFFCURVE",
"136 596 CURVE SMOOTH",
"142 594 OFFCURVE",
"148 592 OFFCURVE",
"154 592 CURVE",
"142 591 OFFCURVE",
"130 587 OFFCURVE",
"118 580 CURVE SMOOTH",
"32 530 LINE",
"54 492 LINE",
"140 542 LINE SMOOTH",
"151 548 OFFCURVE",
"160 556 OFFCURVE",
"166 564 CURVE",
"164 558 OFFCURVE",
"163 554 OFFCURVE",
"162 548 CURVE SMOOTH",
"161 542 OFFCURVE",
"160 536 OFFCURVE",
"160 530 CURVE SMOOTH"
);
}
);
width = 368;
}
);
leftKerningGroup = quotedbl;
note = asterisk;
rightKerningGroup = quotedbl;
unicode = 002A;
},
{
glyphname = plus;
lastChange = "2017-11-28 23:39:02 +0000";
layers = (
{
layerId = "C81CB9C3-2214-4415-8D0B-901773012C9D";
paths = (
{
closed = 1;
nodes = (
"303 583 LINE",
"230 583 LINE",
"230 370 LINE",
"28 370 LINE",
"28 302 LINE",
"230 302 LINE",
"230 87 LINE",
"303 87 LINE",
"303 302 LINE",
"506 302 LINE",
"506 370 LINE",
"303 370 LINE"
);
}
);
width = 534;
}
);
note = plus;
unicode = 002B;
},
{
glyphname = comma;
lastChange = "2017-11-28 23:39:02 +0000";
layers = (
{
layerId = "C81CB9C3-2214-4415-8D0B-901773012C9D";
paths = (
{
closed = 1;
nodes = (
"46 62 LINE",
"46 53 OFFCURVE",
"47 44 OFFCURVE",
"50 36 CURVE SMOOTH",
"53 28 OFFCURVE",
"57 23 OFFCURVE",
"62 17 CURVE SMOOTH",
"67 11 OFFCURVE",
"73 7 OFFCURVE",
"80 4 CURVE SMOOTH",
"87 1 OFFCURVE",
"96 0 OFFCURVE",
"104 0 CURVE SMOOTH",
"110 0 LINE",
"108 -11 OFFCURVE",
"104 -22 OFFCURVE",
"100 -32 CURVE SMOOTH",
"96 -42 OFFCURVE",
"92 -50 OFFCURVE",
"86 -58 CURVE SMOOTH",
"80 -66 OFFCURVE",
"75 -73 OFFCURVE",
"70 -79 CURVE SMOOTH",
"65 -85 OFFCURVE",
"60 -90 OFFCURVE",
"56 -94 CURVE SMOOTH",
"52 -98 OFFCURVE",
"50 -103 OFFCURVE",
"50 -107 CURVE SMOOTH",
"50 -113 OFFCURVE",
"52 -117 OFFCURVE",
"56 -121 CURVE SMOOTH",
"71 -136 LINE",
"86 -124 OFFCURVE",
"100 -109 OFFCURVE",
"112 -94 CURVE SMOOTH",
"124 -79 OFFCURVE",
"134 -64 OFFCURVE",
"142 -48 CURVE SMOOTH",
"150 -32 OFFCURVE",
"156 -16 OFFCURVE",
"160 0 CURVE SMOOTH",
"164 16 OFFCURVE",
"166 32 OFFCURVE",
"166 47 CURVE SMOOTH",
"166 57 OFFCURVE",
"164 66 OFFCURVE",
"162 74 CURVE SMOOTH",
"160 82 OFFCURVE",
"156 91 OFFCURVE",
"151 97 CURVE SMOOTH",
"146 103 OFFCURVE",
"140 108 OFFCURVE",
"132 112 CURVE SMOOTH",
"124 116 OFFCURVE",
"114 118 OFFCURVE",
"104 118 CURVE SMOOTH",
"96 118 OFFCURVE",
"88 116 OFFCURVE",
"80 113 CURVE SMOOTH",
"72 110 OFFCURVE",
"67 106 OFFCURVE",
"62 101 CURVE SMOOTH",
"57 96 OFFCURVE",
"53 90 OFFCURVE",
"50 83 CURVE SMOOTH",
"47 76 OFFCURVE",
"45 69 OFFCURVE",
"45 61 CURVE"
);
}
);
width = 208;
}
);
leftKerningGroup = comma;
note = comma;
rightKerningGroup = comma;
unicode = 002C;
},
{
glyphname = hyphen;
lastChange = "2017-11-28 23:39:02 +0000";
layers = (
{
layerId = "C81CB9C3-2214-4415-8D0B-901773012C9D";
paths = (
{
closed = 1;
nodes = (
"48 338 LINE",
"48 262 LINE",
"294 262 LINE",
"294 338 LINE"
);
}
);
width = 341;
}
);
leftKerningGroup = emdash;
note = hyphen;
rightKerningGroup = emdash;
unicode = 002D;
},
{
glyphname = period;
lastChange = "2017-11-28 23:39:02 +0000";
layers = (
{
layerId = "C81CB9C3-2214-4415-8D0B-901773012C9D";
paths = (
{
closed = 1;
nodes = (
"44 55 LINE",
"44 46 OFFCURVE",
"46 38 OFFCURVE",
"49 30 CURVE SMOOTH",
"52 22 OFFCURVE",
"56 16 OFFCURVE",
"62 10 CURVE SMOOTH",
"68 4 OFFCURVE",
"74 1 OFFCURVE",
"82 -2 CURVE SMOOTH",
"90 -5 OFFCURVE",
"98 -7 OFFCURVE",
"106 -7 CURVE SMOOTH",
"114 -7 OFFCURVE",
"122 -5 OFFCURVE",
"130 -2 CURVE SMOOTH",
"138 1 OFFCURVE",
"143 4 OFFCURVE",
"149 10 CURVE SMOOTH",
"155 16 OFFCURVE",
"159 22 OFFCURVE",
"162 30 CURVE SMOOTH",
"165 38 OFFCURVE",
"166 45 OFFCURVE",
"166 54 CURVE SMOOTH",
"166 62 OFFCURVE",
"165 70 OFFCURVE",
"162 78 CURVE SMOOTH",
"159 86 OFFCURVE",
"155 92 OFFCURVE",
"149 98 CURVE SMOOTH",
"143 104 OFFCURVE",
"138 108 OFFCURVE",
"130 112 CURVE SMOOTH",
"122 116 OFFCURVE",
"114 116 OFFCURVE",
"106 116 CURVE SMOOTH",
"98 116 OFFCURVE",
"90 116 OFFCURVE",
"82 112 CURVE SMOOTH",
"74 108 OFFCURVE",
"68 104 OFFCURVE",
"62 98 CURVE SMOOTH",
"56 92 OFFCURVE",
"52 86 OFFCURVE",
"49 78 CURVE SMOOTH",
"46 70 OFFCURVE",
"44 62 OFFCURVE",
"44 54 CURVE"
);
}
);
width = 211;
}
);
leftKerningGroup = comma;
note = period;
rightKerningGroup = comma;
unicode = 002E;
},
{
glyphname = slash;
lastChange = "2017-11-28 23:39:02 +0000";
layers = (
{
layerId = "C81CB9C3-2214-4415-8D0B-901773012C9D";
paths = (
{
closed = 1;
nodes = (
"103 -10 LINE",
"402 736 LINE",
"364 736 LINE SMOOTH",
"353 736 OFFCURVE",
"344 734 OFFCURVE",
"336 728 CURVE SMOOTH",
"328 722 OFFCURVE",
"321 714 OFFCURVE",
"317 704 CURVE SMOOTH",
"16 -44 LINE",
"54 -44 LINE SMOOTH",
"64 -44 OFFCURVE",
"73 -42 OFFCURVE",
"82 -36 CURVE SMOOTH",
"91 -30 OFFCURVE",
"98 -22 OFFCURVE",
"102 -10 CURVE"
);
}
);
width = 420;
}
);
note = slash;
unicode = 002F;
},
{
glyphname = zero;
lastChange = "2017-11-28 23:39:02 +0000";
layers = (
{
layerId = "C81CB9C3-2214-4415-8D0B-901773012C9D";
paths = (
{
closed = 1;
nodes = (
"555 358 LINE",
"555 420 OFFCURVE",
"548 475 OFFCURVE",
"534 521 CURVE SMOOTH",
"520 567 OFFCURVE",
"503 605 OFFCURVE",
"479 635 CURVE SMOOTH",
"455 665 OFFCURVE",
"428 688 OFFCURVE",
"396 702 CURVE SMOOTH",
"364 716 OFFCURVE",
"330 724 OFFCURVE",
"294 724 CURVE SMOOTH",
"258 724 OFFCURVE",
"224 716 OFFCURVE",
"192 702 CURVE SMOOTH",
"160 688 OFFCURVE",
"133 665 OFFCURVE",
"109 635 CURVE SMOOTH",
"85 605 OFFCURVE",
"68 567 OFFCURVE",
"54 521 CURVE SMOOTH",
"40 475 OFFCURVE",
"34 420 OFFCURVE",
"34 358 CURVE SMOOTH",
"34 296 OFFCURVE",
"40 241 OFFCURVE",
"54 195 CURVE SMOOTH",
"68 149 OFFCURVE",
"85 111 OFFCURVE",
"109 81 CURVE SMOOTH",
"133 51 OFFCURVE",
"160 28 OFFCURVE",
"192 14 CURVE SMOOTH",
"224 0 OFFCURVE",
"258 -8 OFFCURVE",
"294 -8 CURVE SMOOTH",
"330 -8 OFFCURVE",
"364 0 OFFCURVE",
"396 14 CURVE SMOOTH",
"428 28 OFFCURVE",
"455 51 OFFCURVE",
"479 81 CURVE SMOOTH",
"503 111 OFFCURVE",
"520 149 OFFCURVE",
"534 195 CURVE SMOOTH",
"548 241 OFFCURVE",
"554 296 OFFCURVE",
"554 358 CURVE"
);
},
{
closed = 1;
nodes = (
"462 358 LINE",
"462 304 OFFCURVE",
"457 257 OFFCURVE",
"448 220 CURVE SMOOTH",
"439 183 OFFCURVE",
"428 153 OFFCURVE",
"412 131 CURVE SMOOTH",
"396 109 OFFCURVE",
"378 92 OFFCURVE",
"358 82 CURVE SMOOTH",
"338 72 OFFCURVE",
"316 67 OFFCURVE",
"294 67 CURVE SMOOTH",
"272 67 OFFCURVE",
"250 72 OFFCURVE",
"230 82 CURVE SMOOTH",
"210 92 OFFCURVE",
"192 108 OFFCURVE",
"176 130 CURVE SMOOTH",
"160 152 OFFCURVE",
"149 183 OFFCURVE",
"140 220 CURVE SMOOTH",
"131 257 OFFCURVE",
"126 304 OFFCURVE",
"126 358 CURVE SMOOTH",
"126 412 OFFCURVE",
"131 458 OFFCURVE",
"140 495 CURVE SMOOTH",
"149 532 OFFCURVE",
"160 562 OFFCURVE",
"176 584 CURVE SMOOTH",
"192 606 OFFCURVE",
"210 623 OFFCURVE",
"230 633 CURVE SMOOTH",
"250 643 OFFCURVE",
"272 648 OFFCURVE",
"294 648 CURVE SMOOTH",
"316 648 OFFCURVE",
"337 643 OFFCURVE",
"357 633 CURVE SMOOTH",
"377 623 OFFCURVE",
"395 606 OFFCURVE",
"411 584 CURVE SMOOTH",
"427 562 OFFCURVE",
"439 531 OFFCURVE",
"448 494 CURVE SMOOTH",
"457 457 OFFCURVE",
"462 411 OFFCURVE",
"462 357 CURVE"
);
}
);
width = 589;
}
);
note = zero;
unicode = 0030;
},
{
glyphname = one;
lastChange = "2017-11-28 23:39:02 +0000";
layers = (
{
layerId = "C81CB9C3-2214-4415-8D0B-901773012C9D";
paths = (
{
closed = 1;
nodes = (
"304 68 LINE",
"304 718 LINE",
"232 718 LINE",
"19 534 LINE",
"47 495 LINE",
"54 484 OFFCURVE",
"72 478 OFFCURVE",
"89 492 CURVE SMOOTH",
"217 601 LINE",
"216 586 OFFCURVE",
"216 570 OFFCURVE",
"216 556 CURVE SMOOTH",
"216 68 LINE",
"76 58 LINE",
"66 56 OFFCURVE",
"62 50 OFFCURVE",
"62 40 CURVE SMOOTH",
"62 0 LINE",
"446 0 LINE",
"446 40 LINE SMOOTH",
"446 50 OFFCURVE",
"442 56 OFFCURVE",
"432 58 CURVE"
);
}
);
width = 465;
}
);
note = one;
unicode = 0031;
},
{
glyphname = two;
lastChange = "2017-11-28 23:39:02 +0000";
layers = (
{
layerId = "C81CB9C3-2214-4415-8D0B-901773012C9D";
paths = (
{
closed = 1;
nodes = (
"502 62 LINE",
"502 78 LINE",
"502 160 LINE",
"453 160 LINE SMOOTH",
"443 160 OFFCURVE",
"434 152 OFFCURVE",
"432 142 CURVE",
"432 138 OFFCURVE",
"428 113 OFFCURVE",
"426 85 CURVE",
"230 85 LINE SMOOTH",
"218 85 OFFCURVE",
"205 84 OFFCURVE",
"191 82 CURVE SMOOTH",
"177 80 OFFCURVE",
"164 78 OFFCURVE",
"150 74 CURVE",
"339 266 LINE SMOOTH",
"359 286 OFFCURVE",
"378 306 OFFCURVE",
"396 326 CURVE SMOOTH",
"414 346 OFFCURVE",
"430 366 OFFCURVE",
"444 387 CURVE SMOOTH",
"458 408 OFFCURVE",
"468 430 OFFCURVE",
"476 452 CURVE SMOOTH",
"484 474 OFFCURVE",
"488 500 OFFCURVE",
"488 526 CURVE SMOOTH",
"488 558 OFFCURVE",
"483 586 OFFCURVE",
"472 610 CURVE SMOOTH",
"461 634 OFFCURVE",
"445 655 OFFCURVE",
"426 672 CURVE SMOOTH",
"407 689 OFFCURVE",
"384 703 OFFCURVE",
"358 712 CURVE SMOOTH",
"332 721 OFFCURVE",
"302 725 OFFCURVE",
"272 725 CURVE SMOOTH",
"242 725 OFFCURVE",
"213 721 OFFCURVE",
"187 712 CURVE SMOOTH",
"161 703 OFFCURVE",
"136 689 OFFCURVE",
"116 672 CURVE SMOOTH",
"96 655 OFFCURVE",
"80 635 OFFCURVE",
"66 610 CURVE SMOOTH",
"52 585 OFFCURVE",
"42 555 OFFCURVE",
"38 523 CURVE",
"85 515 LINE",
"87 515 OFFCURVE",
"90 514 OFFCURVE",
"92 514 CURVE SMOOTH",
"96 514 LINE SMOOTH",
"104 514 OFFCURVE",
"112 516 OFFCURVE",
"118 520 CURVE SMOOTH",
"124 524 OFFCURVE",
"128 532 OFFCURVE",
"130 542 CURVE",
"134 558 OFFCURVE",
"139 571 OFFCURVE",
"147 584 CURVE SMOOTH",
"155 597 OFFCURVE",
"165 608 OFFCURVE",
"177 618 CURVE SMOOTH",
"189 628 OFFCURVE",
"202 634 OFFCURVE",
"218 640 CURVE SMOOTH",
"234 646 OFFCURVE",
"250 648 OFFCURVE",
"268 648 CURVE SMOOTH",
"286 648 OFFCURVE",
"302 646 OFFCURVE",
"318 641 CURVE SMOOTH",
"334 636 OFFCURVE",
"347 628 OFFCURVE",
"359 618 CURVE SMOOTH",
"371 608 OFFCURVE",
"380 594 OFFCURVE",
"386 578 CURVE SMOOTH",
"392 562 OFFCURVE",
"396 544 OFFCURVE",
"396 523 CURVE SMOOTH",
"396 502 OFFCURVE",
"393 482 OFFCURVE",
"387 464 CURVE SMOOTH",
"381 446 OFFCURVE",
"373 426 OFFCURVE",
"362 408 CURVE SMOOTH",
"351 390 OFFCURVE",
"338 372 OFFCURVE",
"322 354 CURVE SMOOTH",
"306 336 OFFCURVE",
"289 318 OFFCURVE",
"270 298 CURVE SMOOTH",
"40 68 LINE SMOOTH",
"34 62 OFFCURVE",
"30 56 OFFCURVE",
"28 50 CURVE SMOOTH",
"26 44 OFFCURVE",
"24 36 OFFCURVE",
"24 30 CURVE SMOOTH",
"24 0 LINE",
"501 0 LINE"
);
}
);
width = 531;
}
);
note = two;
unicode = 0032;
},
{
glyphname = three;
lastChange = "2017-11-28 23:39:02 +0000";
layers = (
{
layerId = "C81CB9C3-2214-4415-8D0B-901773012C9D";
paths = (
{
closed = 1;
nodes = (
"276 724 LINE SMOOTH",
"246 724 OFFCURVE",
"216 720 OFFCURVE",
"190 711 CURVE SMOOTH",
"164 702 OFFCURVE",
"140 689 OFFCURVE",
"120 672 CURVE SMOOTH",
"100 655 OFFCURVE",
"83 634 OFFCURVE",
"69 609 CURVE SMOOTH",
"55 584 OFFCURVE",
"46 554 OFFCURVE",
"42 522 CURVE",
"88 514 LINE",
"95 514 LINE",
"100 514 LINE SMOOTH",
"108 514 OFFCURVE",
"115 516 OFFCURVE",
"121 520 CURVE SMOOTH",
"127 524 OFFCURVE",
"131 531 OFFCURVE",
"133 541 CURVE",
"137 557 OFFCURVE",
"143 571 OFFCURVE",
"151 584 CURVE SMOOTH",
"159 597 OFFCURVE",
"169 608 OFFCURVE",
"181 618 CURVE SMOOTH",
"193 628 OFFCURVE",
"206 634 OFFCURVE",
"222 640 CURVE SMOOTH",
"238 646 OFFCURVE",
"254 648 OFFCURVE",
"272 648 CURVE SMOOTH",
"290 648 OFFCURVE",
"306 645 OFFCURVE",
"322 640 CURVE SMOOTH",
"338 635 OFFCURVE",
"350 628 OFFCURVE",
"362 618 CURVE SMOOTH",
"374 608 OFFCURVE",
"384 596 OFFCURVE",
"390 580 CURVE SMOOTH",
"396 564 OFFCURVE",
"399 546 OFFCURVE",
"399 526 CURVE SMOOTH",
"399 508 OFFCURVE",
"396 491 OFFCURVE",
"390 475 CURVE SMOOTH",
"384 459 OFFCURVE",
"374 447 OFFCURVE",
"360 436 CURVE SMOOTH",
"346 425 OFFCURVE",
"330 416 OFFCURVE",
"308 410 CURVE SMOOTH",
"286 404 OFFCURVE",
"260 399 OFFCURVE",
"230 399 CURVE",
"230 334 LINE",
"268 334 OFFCURVE",
"298 330 OFFCURVE",
"322 324 CURVE SMOOTH",
"346 318 OFFCURVE",
"364 310 OFFCURVE",
"378 298 CURVE SMOOTH",
"392 286 OFFCURVE",
"401 272 OFFCURVE",
"406 256 CURVE SMOOTH",
"411 240 OFFCURVE",
"414 223 OFFCURVE",
"414 203 CURVE SMOOTH",
"414 187 OFFCURVE",
"410 172 OFFCURVE",
"404 156 CURVE SMOOTH",
"398 140 OFFCURVE",
"388 125 OFFCURVE",
"376 112 CURVE SMOOTH",
"364 99 OFFCURVE",
"347 88 OFFCURVE",
"328 80 CURVE SMOOTH",
"309 72 OFFCURVE",
"287 68 OFFCURVE",
"262 68 CURVE SMOOTH",
"237 68 OFFCURVE",
"217 72 OFFCURVE",
"200 80 CURVE SMOOTH",
"183 88 OFFCURVE",
"169 96 OFFCURVE",
"157 106 CURVE SMOOTH",
"145 116 OFFCURVE",
"136 128 OFFCURVE",
"130 140 CURVE SMOOTH",
"124 152 OFFCURVE",
"118 163 OFFCURVE",
"114 173 CURVE",
"114 175 OFFCURVE",
"112 176 OFFCURVE",
"112 178 CURVE SMOOTH",
"112 180 OFFCURVE",
"110 180 OFFCURVE",
"110 182 CURVE",
"108 188 OFFCURVE",
"104 193 OFFCURVE",
"99 196 CURVE SMOOTH",
"94 199 OFFCURVE",
"88 200 OFFCURVE",
"82 200 CURVE SMOOTH",
"75 200 OFFCURVE",
"67 199 OFFCURVE",
"60 196 CURVE SMOOTH",
"22 180 LINE",
"30 154 OFFCURVE",
"41 128 OFFCURVE",
"53 105 CURVE SMOOTH",
"65 82 OFFCURVE",
"81 62 OFFCURVE",
"99 46 CURVE SMOOTH",
"117 30 OFFCURVE",
"141 16 OFFCURVE",
"168 6 CURVE SMOOTH",
"195 -4 OFFCURVE",
"227 -8 OFFCURVE",
"265 -8 CURVE SMOOTH",
"298 -8 OFFCURVE",
"329 -3 OFFCURVE",
"358 7 CURVE SMOOTH",
"387 17 OFFCURVE",
"412 32 OFFCURVE",
"434 50 CURVE SMOOTH",
"456 68 OFFCURVE",
"472 91 OFFCURVE",
"484 117 CURVE SMOOTH",
"496 143 OFFCURVE",
"503 173 OFFCURVE",
"503 206 CURVE SMOOTH",
"503 250 OFFCURVE",
"492 286 OFFCURVE",
"468 315 CURVE SMOOTH",
"444 344 OFFCURVE",
"408 365 OFFCURVE",
"362 377 CURVE",
"381 383 OFFCURVE",
"398 390 OFFCURVE",
"414 400 CURVE SMOOTH",
"430 410 OFFCURVE",
"443 420 OFFCURVE",
"454 434 CURVE SMOOTH",
"465 448 OFFCURVE",
"473 463 OFFCURVE",
"479 481 CURVE SMOOTH",
"485 499 OFFCURVE",
"488 520 OFFCURVE",
"488 542 CURVE SMOOTH",
"488 570 OFFCURVE",
"482 594 OFFCURVE",
"472 616 CURVE SMOOTH",
"462 638 OFFCURVE",
"447 658 OFFCURVE",
"429 674 CURVE SMOOTH",
"411 690 OFFCURVE",
"389 704 OFFCURVE",
"363 712 CURVE SMOOTH",
"337 720 OFFCURVE",
"309 724 OFFCURVE",
"279 724 CURVE SMOOTH"
);
}
);
width = 530;
}
);
note = three;
unicode = 0033;
},
{
glyphname = four;
lastChange = "2017-11-28 23:39:02 +0000";
layers = (
{
layerId = "C81CB9C3-2214-4415-8D0B-901773012C9D";
paths = (
{
closed = 1;
nodes = (
"455 258 LINE",
"455 716 LINE",
"372 716 LINE",
"24 254 LINE",
"32 208 LINE",
"34 202 OFFCURVE",
"37 198 OFFCURVE",
"42 194 CURVE SMOOTH",
"47 190 OFFCURVE",
"53 188 OFFCURVE",
"59 188 CURVE SMOOTH",
"376 188 LINE",
"376 0 LINE",
"455 0 LINE",
"455 188 LINE",
"544 188 LINE SMOOTH",
"550 188 OFFCURVE",
"555 190 OFFCURVE",
"558 194 CURVE SMOOTH",
"561 198 OFFCURVE",
"563 201 OFFCURVE",
"563 207 CURVE SMOOTH",
"563 258 LINE"
);
},
{
closed = 1;
nodes = (
"376 258 LINE",
"120 258 LINE",
"380 612 LINE",
"378 602 OFFCURVE",
"377 592 OFFCURVE",
"377 582 CURVE SMOOTH",
"377 572 OFFCURVE",
"376 562 OFFCURVE",
"376 554 CURVE SMOOTH"
);
}
);
width = 584;
}
);
note = four;
unicode = 0034;
},
{
glyphname = five;
lastChange = "2017-11-28 23:39:02 +0000";
layers = (
{
layerId = "C81CB9C3-2214-4415-8D0B-901773012C9D";
paths = (
{
closed = 1;
nodes = (
"456 678 LINE",
"456 716 LINE",
"116 716 LINE",
"58 382 LINE",
"114 365 LINE",
"134 371 OFFCURVE",
"154 377 OFFCURVE",
"174 380 CURVE SMOOTH",
"194 383 OFFCURVE",
"212 384 OFFCURVE",
"230 384 CURVE SMOOTH",
"256 384 OFFCURVE",
"279 381 OFFCURVE",
"299 374 CURVE SMOOTH",
"319 367 OFFCURVE",
"335 356 OFFCURVE",
"348 344 CURVE SMOOTH",
"361 332 OFFCURVE",
"372 316 OFFCURVE",
"378 298 CURVE SMOOTH",
"384 280 OFFCURVE",
"387 260 OFFCURVE",
"387 238 CURVE SMOOTH",
"387 212 OFFCURVE",
"384 188 OFFCURVE",
"376 168 CURVE SMOOTH",
"368 148 OFFCURVE",
"357 130 OFFCURVE",
"343 115 CURVE SMOOTH",
"329 100 OFFCURVE",
"312 88 OFFCURVE",
"292 80 CURVE SMOOTH",
"272 72 OFFCURVE",
"249 68 OFFCURVE",
"224 68 CURVE SMOOTH",
"202 68 OFFCURVE",
"182 71 OFFCURVE",
"166 76 CURVE SMOOTH",
"150 81 OFFCURVE",
"136 87 OFFCURVE",
"124 93 CURVE SMOOTH",
"112 99 OFFCURVE",
"102 105 OFFCURVE",
"94 110 CURVE SMOOTH",
"86 115 OFFCURVE",
"77 118 OFFCURVE",
"71 118 CURVE SMOOTH",
"61 118 OFFCURVE",
"53 112 OFFCURVE",
"47 104 CURVE SMOOTH",
"20 66 LINE",
"31 56 OFFCURVE",
"44 47 OFFCURVE",
"58 38 CURVE SMOOTH",
"72 29 OFFCURVE",
"88 21 OFFCURVE",
"104 14 CURVE SMOOTH",
"120 7 OFFCURVE",
"138 2 OFFCURVE",
"158 -2 CURVE SMOOTH",
"178 -6 OFFCURVE",
"198 -8 OFFCURVE",
"219 -8 CURVE SMOOTH",
"255 -8 OFFCURVE",
"289 -3 OFFCURVE",
"321 9 CURVE SMOOTH",
"353 21 OFFCURVE",
"379 37 OFFCURVE",
"402 59 CURVE SMOOTH",
"425 81 OFFCURVE",
"443 108 OFFCURVE",
"457 138 CURVE SMOOTH",
"471 168 OFFCURVE",
"477 202 OFFCURVE",
"477 240 CURVE SMOOTH",
"477 271 OFFCURVE",
"472 300 OFFCURVE",
"462 326 CURVE SMOOTH",
"452 352 OFFCURVE",
"438 376 OFFCURVE",
"418 396 CURVE SMOOTH",
"398 416 OFFCURVE",
"374 430 OFFCURVE",
"346 441 CURVE SMOOTH",
"318 452 OFFCURVE",
"285 458 OFFCURVE",
"247 458 CURVE SMOOTH",
"215 458 OFFCURVE",
"182 454 OFFCURVE",
"144 446 CURVE",
"176 634 LINE",
"402 634 LINE SMOOTH",
"421 634 OFFCURVE",
"434 638 OFFCURVE",
"442 646 CURVE SMOOTH",
"450 654 OFFCURVE",
"454 664 OFFCURVE",
"454 676 CURVE"
);
}
);
width = 507;
}
);
note = five;
unicode = 0035;
},
{
glyphname = six;
lastChange = "2017-11-28 23:39:02 +0000";
layers = (
{
layerId = "C81CB9C3-2214-4415-8D0B-901773012C9D";
paths = (
{
closed = 1;
nodes = (
"299 439 LINE",
"275 439 OFFCURVE",
"252 435 OFFCURVE",
"232 429 CURVE SMOOTH",
"212 423 OFFCURVE",
"193 414 OFFCURVE",
"176 402 CURVE",
"424 716 LINE",
"345 716 LINE SMOOTH",
"335 716 OFFCURVE",
"324 714 OFFCURVE",
"316 710 CURVE SMOOTH",
"308 706 OFFCURVE",
"301 702 OFFCURVE",
"297 696 CURVE",
"116 451 LINE SMOOTH",
"86 411 OFFCURVE",
"63 373 OFFCURVE",
"49 337 CURVE SMOOTH",
"35 301 OFFCURVE",
"28 268 OFFCURVE",
"28 236 CURVE SMOOTH",
"28 198 OFFCURVE",
"33 165 OFFCURVE",
"44 135 CURVE SMOOTH",
"55 105 OFFCURVE",
"72 79 OFFCURVE",
"92 58 CURVE SMOOTH",
"112 37 OFFCURVE",
"137 22 OFFCURVE",
"166 10 CURVE SMOOTH",
"195 -2 OFFCURVE",
"228 -8 OFFCURVE",
"264 -8 CURVE SMOOTH",
"300 -8 OFFCURVE",
"334 -2 OFFCURVE",
"364 10 CURVE SMOOTH",
"394 22 OFFCURVE",
"420 39 OFFCURVE",
"442 60 CURVE SMOOTH",
"464 81 OFFCURVE",
"480 106 OFFCURVE",
"492 134 CURVE SMOOTH",
"504 162 OFFCURVE",
"510 193 OFFCURVE",
"510 226 CURVE SMOOTH",
"510 260 OFFCURVE",
"506 290 OFFCURVE",
"494 316 CURVE SMOOTH",
"482 342 OFFCURVE",
"467 365 OFFCURVE",
"447 383 CURVE SMOOTH",
"427 401 OFFCURVE",
"406 414 OFFCURVE",
"380 424 CURVE SMOOTH",
"354 434 OFFCURVE",
"326 438 OFFCURVE",
"298 438 CURVE"
);
},
{
closed = 1;
nodes = (
"114 240 OFFCURVE",
"117 259 OFFCURVE",
"124 277 CURVE SMOOTH",
"131 295 OFFCURVE",
"141 311 OFFCURVE",
"155 325 CURVE SMOOTH",
"169 339 OFFCURVE",
"184 350 OFFCURVE",
"204 358 CURVE SMOOTH",
"224 366 OFFCURVE",
"246 370 OFFCURVE",
"270 370 CURVE SMOOTH",
"292 370 OFFCURVE",
"313 367 OFFCURVE",
"331 360 CURVE SMOOTH",
"349 353 OFFCURVE",
"365 343 OFFCURVE",
"379 330 CURVE SMOOTH",
"393 317 OFFCURVE",
"402 301 OFFCURVE",
"410 282 CURVE SMOOTH",
"418 263 OFFCURVE",
"422 242 OFFCURVE",
"422 218 CURVE SMOOTH",
"422 196 OFFCURVE",
"418 175 OFFCURVE",
"410 157 CURVE SMOOTH",
"402 139 OFFCURVE",
"392 123 OFFCURVE",
"378 109 CURVE SMOOTH",
"364 95 OFFCURVE",
"348 86 OFFCURVE",
"328 78 CURVE SMOOTH",
"308 70 OFFCURVE",
"287 66 OFFCURVE",
"263 66 CURVE SMOOTH",
"239 66 OFFCURVE",
"218 69 OFFCURVE",
"200 77 CURVE SMOOTH",
"182 85 OFFCURVE",
"166 94 OFFCURVE",
"153 108 CURVE SMOOTH",
"140 122 OFFCURVE",
"130 139 OFFCURVE",
"124 158 CURVE SMOOTH",
"118 177 OFFCURVE",
"114 197 OFFCURVE",
"114 220 CURVE SMOOTH"
);
}
);
width = 537;
}
);
note = six;
unicode = 0036;
},
{
glyphname = seven;
lastChange = "2017-11-28 23:39:02 +0000";
layers = (
{
layerId = "C81CB9C3-2214-4415-8D0B-901773012C9D";
paths = (
{
closed = 1;
nodes = (
"31 716 LINE",
"31 542 LINE",
"80 542 LINE SMOOTH",
"92 542 OFFCURVE",
"98 547 OFFCURVE",
"100 559 CURVE",
"101 563 OFFCURVE",
"104 588 OFFCURVE",
"108 634 CURVE",
"428 634 LINE",
"418 623 OFFCURVE",
"409 609 OFFCURVE",
"399 591 CURVE",
"98 0 LINE",
"162 0 LINE SMOOTH",
"184 0 OFFCURVE",
"200 11 OFFCURVE",
"210 32 CURVE SMOOTH",
"507 630 LINE",
"515 644 OFFCURVE",
"518 660 OFFCURVE",
"518 676 CURVE SMOOTH",
"518 716 LINE"
);
}
);
width = 543;
}
);
note = seven;
unicode = 0037;
},
{
glyphname = eight;
lastChange = "2017-11-28 23:39:02 +0000";
layers = (
{
layerId = "C81CB9C3-2214-4415-8D0B-901773012C9D";
paths = (
{
closed = 1;
nodes = (
"270 -8 LINE",
"306 -8 OFFCURVE",
"337 -4 OFFCURVE",
"367 6 CURVE SMOOTH",
"397 16 OFFCURVE",
"422 28 OFFCURVE",
"443 46 CURVE SMOOTH",
"464 64 OFFCURVE",
"480 85 OFFCURVE",
"492 110 CURVE SMOOTH",
"504 135 OFFCURVE",
"510 163 OFFCURVE",
"510 195 CURVE SMOOTH",
"510 241 OFFCURVE",
"498 279 OFFCURVE",
"474 309 CURVE SMOOTH",
"450 339 OFFCURVE",
"416 360 OFFCURVE",
"372 372 CURVE",
"410 386 OFFCURVE",
"437 408 OFFCURVE",
"457 436 CURVE SMOOTH",
"477 464 OFFCURVE",
"486 497 OFFCURVE",
"486 535 CURVE SMOOTH",
"486 561 OFFCURVE",
"480 586 OFFCURVE",
"470 609 CURVE SMOOTH",
"460 632 OFFCURVE",
"445 652 OFFCURVE",
"426 669 CURVE SMOOTH",
"407 686 OFFCURVE",
"384 699 OFFCURVE",
"358 709 CURVE SMOOTH",
"332 719 OFFCURVE",
"302 724 OFFCURVE",
"270 724 CURVE SMOOTH",
"238 724 OFFCURVE",
"207 719 OFFCURVE",
"181 709 CURVE SMOOTH",
"155 699 OFFCURVE",
"131 686 OFFCURVE",
"112 669 CURVE SMOOTH",
"93 652 OFFCURVE",
"78 632 OFFCURVE",
"68 609 CURVE SMOOTH",
"58 586 OFFCURVE",
"53 561 OFFCURVE",
"53 535 CURVE SMOOTH",
"53 497 OFFCURVE",
"63 463 OFFCURVE",
"82 435 CURVE SMOOTH",
"101 407 OFFCURVE",
"128 386 OFFCURVE",
"166 372 CURVE",
"122 360 OFFCURVE",
"88 338 OFFCURVE",
"64 308 CURVE SMOOTH",
"40 278 OFFCURVE",
"28 240 OFFCURVE",
"28 194 CURVE SMOOTH",
"28 162 OFFCURVE",
"33 134 OFFCURVE",
"45 109 CURVE SMOOTH",
"57 84 OFFCURVE",
"72 63 OFFCURVE",
"94 45 CURVE SMOOTH",
"116 27 OFFCURVE",
"141 14 OFFCURVE",
"171 4 CURVE SMOOTH",
"201 -6 OFFCURVE",
"232 -10 OFFCURVE",
"268 -10 CURVE"
);
},
{
closed = 1;
nodes = (
"268 62 LINE",
"244 62 OFFCURVE",
"224 65 OFFCURVE",
"206 71 CURVE SMOOTH",
"188 77 OFFCURVE",
"171 86 OFFCURVE",
"158 98 CURVE SMOOTH",
"145 110 OFFCURVE",
"135 125 OFFCURVE",
"128 141 CURVE SMOOTH",
"121 157 OFFCURVE",
"118 176 OFFCURVE",
"118 196 CURVE SMOOTH",
"118 220 OFFCURVE",
"122 240 OFFCURVE",
"130 258 CURVE SMOOTH",
"138 276 OFFCURVE",
"149 290 OFFCURVE",
"163 301 CURVE SMOOTH",
"177 312 OFFCURVE",
"193 320 OFFCURVE",
"211 325 CURVE SMOOTH",
"229 330 OFFCURVE",
"248 332 OFFCURVE",
"268 332 CURVE SMOOTH",
"288 332 OFFCURVE",
"306 330 OFFCURVE",
"324 325 CURVE SMOOTH",
"342 320 OFFCURVE",
"358 312 OFFCURVE",
"372 301 CURVE SMOOTH",
"386 290 OFFCURVE",
"397 276 OFFCURVE",
"405 258 CURVE SMOOTH",
"413 240 OFFCURVE",
"417 219 OFFCURVE",
"417 195 CURVE SMOOTH",
"417 175 OFFCURVE",
"413 156 OFFCURVE",
"406 140 CURVE SMOOTH",
"399 124 OFFCURVE",
"389 110 OFFCURVE",
"376 98 CURVE SMOOTH",
"363 86 OFFCURVE",
"348 76 OFFCURVE",
"330 70 CURVE SMOOTH",
"312 64 OFFCURVE",
"290 60 OFFCURVE",
"266 60 CURVE"
);
},
{
closed = 1;
nodes = (
"266 404 LINE",
"242 404 OFFCURVE",
"222 407 OFFCURVE",
"206 414 CURVE SMOOTH",
"190 421 OFFCURVE",
"176 431 OFFCURVE",
"166 443 CURVE SMOOTH",
"156 455 OFFCURVE",
"148 468 OFFCURVE",
"144 484 CURVE SMOOTH",
"140 500 OFFCURVE",
"136 516 OFFCURVE",
"136 532 CURVE SMOOTH",
"136 548 OFFCURVE",
"138 564 OFFCURVE",
"144 578 CURVE SMOOTH",
"150 592 OFFCURVE",
"158 606 OFFCURVE",
"169 617 CURVE SMOOTH",
"180 628 OFFCURVE",
"194 637 OFFCURVE",
"210 643 CURVE SMOOTH",
"226 649 OFFCURVE",
"244 652 OFFCURVE",
"266 652 CURVE SMOOTH",
"288 652 OFFCURVE",
"306 649 OFFCURVE",
"322 643 CURVE SMOOTH",
"338 637 OFFCURVE",
"351 628 OFFCURVE",
"362 617 CURVE SMOOTH",
"373 606 OFFCURVE",
"380 592 OFFCURVE",
"386 578 CURVE SMOOTH",
"392 564 OFFCURVE",
"394 548 OFFCURVE",
"394 532 CURVE SMOOTH",
"394 516 OFFCURVE",
"392 500 OFFCURVE",
"388 484 CURVE SMOOTH",
"384 468 OFFCURVE",
"375 455 OFFCURVE",
"365 443 CURVE SMOOTH",
"355 431 OFFCURVE",
"340 421 OFFCURVE",
"324 414 CURVE SMOOTH",
"308 407 OFFCURVE",
"288 404 OFFCURVE",
"264 404 CURVE"
);
}
);
width = 537;
}
);
note = eight;
unicode = 0038;
},
{
glyphname = nine;
lastChange = "2017-11-28 23:39:02 +0000";
layers = (
{
layerId = "C81CB9C3-2214-4415-8D0B-901773012C9D";
paths = (
{
closed = 1;
nodes = (
"254 294 OFFCURVE",
"279 298 OFFCURVE",
"302 306 CURVE SMOOTH",
"325 314 OFFCURVE",
"346 324 OFFCURVE",
"364 338 CURVE",
"358 330 OFFCURVE",
"352 321 OFFCURVE",
"346 313 CURVE SMOOTH",
"340 305 OFFCURVE",
"332 296 OFFCURVE",
"324 286 CURVE SMOOTH",
"106 0 LINE",
"188 0 LINE SMOOTH",
"198 0 OFFCURVE",
"208 2 OFFCURVE",
"216 6 CURVE SMOOTH",
"224 10 OFFCURVE",
"230 16 OFFCURVE",
"234 22 CURVE SMOOTH",
"409 274 LINE SMOOTH",
"422 292 OFFCURVE",
"434 310 OFFCURVE",
"444 328 CURVE SMOOTH",
"454 346 OFFCURVE",
"462 362 OFFCURVE",
"470 380 CURVE SMOOTH",
"478 398 OFFCURVE",
"482 416 OFFCURVE",
"486 434 CURVE SMOOTH",
"490 452 OFFCURVE",
"492 473 OFFCURVE",
"492 493 CURVE SMOOTH",
"492 527 OFFCURVE",
"487 560 OFFCURVE",
"476 588 CURVE SMOOTH",
"465 616 OFFCURVE",
"450 641 OFFCURVE",
"430 661 CURVE SMOOTH",
"410 681 OFFCURVE",
"386 697 OFFCURVE",
"358 709 CURVE SMOOTH",
"330 721 OFFCURVE",
"298 726 OFFCURVE",
"264 726 CURVE SMOOTH",
"230 726 OFFCURVE",
"197 720 OFFCURVE",
"168 708 CURVE SMOOTH",
"139 696 OFFCURVE",
"115 680 OFFCURVE",
"94 660 CURVE SMOOTH",
"73 640 OFFCURVE",
"56 616 OFFCURVE",
"44 588 CURVE SMOOTH",
"32 560 OFFCURVE",
"27 532 OFFCURVE",
"27 500 CURVE SMOOTH",
"27 467 OFFCURVE",
"33 438 OFFCURVE",
"44 412 CURVE SMOOTH",
"55 386 OFFCURVE",
"70 366 OFFCURVE",
"88 348 CURVE SMOOTH",
"106 330 OFFCURVE",
"127 317 OFFCURVE",
"151 308 CURVE SMOOTH",
"175 299 OFFCURVE",
"201 294 OFFCURVE",
"228 294 CURVE SMOOTH"
);
},
{
closed = 1;
nodes = (
"406 504 LINE",
"406 486 OFFCURVE",
"402 467 OFFCURVE",
"396 450 CURVE SMOOTH",
"390 433 OFFCURVE",
"380 419 OFFCURVE",
"368 406 CURVE SMOOTH",
"356 393 OFFCURVE",
"340 382 OFFCURVE",
"322 374 CURVE SMOOTH",
"304 366 OFFCURVE",
"282 362 OFFCURVE",
"258 362 CURVE SMOOTH",
"236 362 OFFCURVE",
"217 366 OFFCURVE",
"199 372 CURVE SMOOTH",
"181 378 OFFCURVE",
"166 388 OFFCURVE",
"154 400 CURVE SMOOTH",
"142 412 OFFCURVE",
"132 428 OFFCURVE",
"126 446 CURVE SMOOTH",
"120 464 OFFCURVE",
"116 484 OFFCURVE",
"116 506 CURVE SMOOTH",
"116 527 OFFCURVE",
"120 546 OFFCURVE",
"127 564 CURVE SMOOTH",
"134 582 OFFCURVE",
"144 597 OFFCURVE",
"157 609 CURVE SMOOTH",
"170 621 OFFCURVE",
"186 631 OFFCURVE",
"204 638 CURVE SMOOTH",
"222 645 OFFCURVE",
"242 649 OFFCURVE",
"264 649 CURVE SMOOTH",
"285 649 OFFCURVE",
"303 645 OFFCURVE",
"321 638 CURVE SMOOTH",
"339 631 OFFCURVE",
"354 621 OFFCURVE",
"366 609 CURVE SMOOTH",
"378 597 OFFCURVE",
"389 581 OFFCURVE",
"396 563 CURVE SMOOTH",
"403 545 OFFCURVE",
"406 524 OFFCURVE",
"406 502 CURVE"
);
}
);
width = 522;
}
);
note = nine;
unicode = 0039;
},
{
glyphname = colon;
lastChange = "2017-11-28 23:39:02 +0000";
layers = (
{
layerId = "C81CB9C3-2214-4415-8D0B-901773012C9D";
paths = (
{
closed = 1;
nodes = (
"42 55 LINE",
"42 46 OFFCURVE",
"44 38 OFFCURVE",
"47 30 CURVE SMOOTH",
"50 22 OFFCURVE",
"54 16 OFFCURVE",
"60 10 CURVE SMOOTH",
"66 4 OFFCURVE",
"72 1 OFFCURVE",
"80 -2 CURVE SMOOTH",
"88 -5 OFFCURVE",
"96 -7 OFFCURVE",
"104 -7 CURVE SMOOTH",
"112 -7 OFFCURVE",
"120 -5 OFFCURVE",
"128 -2 CURVE SMOOTH",
"136 1 OFFCURVE",
"141 4 OFFCURVE",
"147 10 CURVE SMOOTH",
"153 16 OFFCURVE",
"157 22 OFFCURVE",
"160 30 CURVE SMOOTH",
"163 38 OFFCURVE",
"164 45 OFFCURVE",
"164 54 CURVE SMOOTH",
"164 62 OFFCURVE",
"163 70 OFFCURVE",
"160 78 CURVE SMOOTH",
"157 86 OFFCURVE",
"153 92 OFFCURVE",
"147 98 CURVE SMOOTH",
"141 104 OFFCURVE",
"136 108 OFFCURVE",
"128 112 CURVE SMOOTH",
"120 116 OFFCURVE",
"112 116 OFFCURVE",
"104 116 CURVE SMOOTH",
"96 116 OFFCURVE",
"88 116 OFFCURVE",
"80 112 CURVE SMOOTH",
"72 108 OFFCURVE",
"66 104 OFFCURVE",
"60 98 CURVE SMOOTH",
"54 92 OFFCURVE",
"50 86 OFFCURVE",
"47 78 CURVE SMOOTH",
"44 70 OFFCURVE",
"42 62 OFFCURVE",
"42 54 CURVE"
);
},
{
closed = 1;
nodes = (
"42 430 LINE",
"42 421 OFFCURVE",
"44 412 OFFCURVE",
"47 404 CURVE SMOOTH",
"50 396 OFFCURVE",
"54 391 OFFCURVE",
"60 385 CURVE SMOOTH",
"66 379 OFFCURVE",
"72 375 OFFCURVE",
"80 372 CURVE SMOOTH",
"88 369 OFFCURVE",
"96 368 OFFCURVE",
"104 368 CURVE SMOOTH",
"112 368 OFFCURVE",
"120 369 OFFCURVE",
"128 372 CURVE SMOOTH",
"136 375 OFFCURVE",
"141 379 OFFCURVE",
"147 385 CURVE SMOOTH",
"153 391 OFFCURVE",
"157 396 OFFCURVE",
"160 404 CURVE SMOOTH",
"163 412 OFFCURVE",
"164 420 OFFCURVE",
"164 429 CURVE SMOOTH",
"164 437 OFFCURVE",
"163 445 OFFCURVE",
"160 453 CURVE SMOOTH",
"157 461 OFFCURVE",
"153 466 OFFCURVE",
"147 472 CURVE SMOOTH",
"141 478 OFFCURVE",
"136 482 OFFCURVE",
"128 486 CURVE SMOOTH",
"120 490 OFFCURVE",
"112 491 OFFCURVE",
"104 491 CURVE SMOOTH",
"96 491 OFFCURVE",
"88 490 OFFCURVE",
"80 486 CURVE SMOOTH",
"72 482 OFFCURVE",
"66 478 OFFCURVE",
"60 472 CURVE SMOOTH",
"54 466 OFFCURVE",
"50 461 OFFCURVE",
"47 453 CURVE SMOOTH",
"44 445 OFFCURVE",
"42 437 OFFCURVE",
"42 429 CURVE"
);
}
);
width = 207;
}
);
note = colon;
unicode = 003A;
},
{
glyphname = semicolon;
lastChange = "2017-11-28 23:39:02 +0000";
layers = (
{
layerId = "C81CB9C3-2214-4415-8D0B-901773012C9D";
paths = (
{
closed = 1;
nodes = (
"46 62 LINE",
"46 53 OFFCURVE",
"47 44 OFFCURVE",
"50 36 CURVE SMOOTH",
"53 28 OFFCURVE",
"57 23 OFFCURVE",
"62 17 CURVE SMOOTH",
"67 11 OFFCURVE",
"73 7 OFFCURVE",
"80 4 CURVE SMOOTH",
"87 1 OFFCURVE",
"96 0 OFFCURVE",
"104 0 CURVE SMOOTH",
"110 0 LINE",
"108 -11 OFFCURVE",
"104 -22 OFFCURVE",
"100 -32 CURVE SMOOTH",
"96 -42 OFFCURVE",
"91 -50 OFFCURVE",
"85 -58 CURVE SMOOTH",
"79 -66 OFFCURVE",
"74 -73 OFFCURVE",
"69 -79 CURVE SMOOTH",
"64 -85 OFFCURVE",
"60 -90 OFFCURVE",
"56 -94 CURVE SMOOTH",
"52 -98 OFFCURVE",
"49 -103 OFFCURVE",
"49 -107 CURVE SMOOTH",
"49 -113 OFFCURVE",
"52 -117 OFFCURVE",
"56 -121 CURVE SMOOTH",
"70 -136 LINE",
"85 -124 OFFCURVE",
"99 -109 OFFCURVE",
"111 -94 CURVE SMOOTH",
"123 -79 OFFCURVE",
"133 -64 OFFCURVE",
"141 -48 CURVE SMOOTH",
"149 -32 OFFCURVE",
"156 -16 OFFCURVE",
"160 0 CURVE SMOOTH",
"164 16 OFFCURVE",
"166 32 OFFCURVE",
"166 47 CURVE SMOOTH",
"166 57 OFFCURVE",
"164 66 OFFCURVE",
"162 74 CURVE SMOOTH",
"160 82 OFFCURVE",
"155 91 OFFCURVE",
"150 97 CURVE SMOOTH",
"145 103 OFFCURVE",
"139 108 OFFCURVE",
"131 112 CURVE SMOOTH",
"123 116 OFFCURVE",
"114 118 OFFCURVE",
"104 118 CURVE SMOOTH",
"96 118 OFFCURVE",
"88 116 OFFCURVE",
"80 113 CURVE SMOOTH",
"72 110 OFFCURVE",
"66 106 OFFCURVE",
"61 101 CURVE SMOOTH",
"56 96 OFFCURVE",
"52 90 OFFCURVE",
"49 83 CURVE SMOOTH",
"46 76 OFFCURVE",
"44 69 OFFCURVE",
"44 61 CURVE"
);
},
{
closed = 1;
nodes = (
"42 430 LINE",
"42 421 OFFCURVE",
"43 412 OFFCURVE",
"46 404 CURVE SMOOTH",
"49 396 OFFCURVE",
"53 391 OFFCURVE",
"59 385 CURVE SMOOTH",
"65 379 OFFCURVE",
"70 375 OFFCURVE",
"78 372 CURVE SMOOTH",
"86 369 OFFCURVE",
"94 368 OFFCURVE",
"102 368 CURVE SMOOTH",
"110 368 OFFCURVE",
"118 369 OFFCURVE",
"126 372 CURVE SMOOTH",
"134 375 OFFCURVE",
"140 379 OFFCURVE",
"146 385 CURVE SMOOTH",
"152 391 OFFCURVE",
"156 396 OFFCURVE",
"159 404 CURVE SMOOTH",
"162 412 OFFCURVE",
"164 420 OFFCURVE",
"164 429 CURVE SMOOTH",
"164 437 OFFCURVE",
"162 445 OFFCURVE",
"159 453 CURVE SMOOTH",
"156 461 OFFCURVE",
"152 466 OFFCURVE",
"146 472 CURVE SMOOTH",
"140 478 OFFCURVE",
"134 482 OFFCURVE",
"126 486 CURVE SMOOTH",
"118 490 OFFCURVE",
"110 491 OFFCURVE",
"102 491 CURVE SMOOTH",
"94 491 OFFCURVE",
"86 490 OFFCURVE",
"78 486 CURVE SMOOTH",
"70 482 OFFCURVE",
"65 478 OFFCURVE",
"59 472 CURVE SMOOTH",
"53 466 OFFCURVE",
"49 461 OFFCURVE",
"46 453 CURVE SMOOTH",
"43 445 OFFCURVE",
"42 437 OFFCURVE",
"42 429 CURVE"
);
}
);
width = 206;
}
);
note = semicolon;
unicode = 003B;
},
{
glyphname = less;
lastChange = "2017-11-28 23:39:02 +0000";
layers = (
{
layerId = "C81CB9C3-2214-4415-8D0B-901773012C9D";
paths = (
{
closed = 1;
nodes = (
"30 355 LINE",
"30 318 LINE",
"418 117 LINE",
"418 181 LINE SMOOTH",
"418 187 OFFCURVE",
"416 192 OFFCURVE",
"414 196 CURVE SMOOTH",
"412 200 OFFCURVE",
"406 204 OFFCURVE",
"400 208 CURVE",
"176 322 LINE",
"170 326 OFFCURVE",
"162 328 OFFCURVE",
"154 330 CURVE SMOOTH",
"130 336 LINE",
"138 338 OFFCURVE",
"146 341 OFFCURVE",
"154 343 CURVE SMOOTH",
"162 345 OFFCURVE",
"170 348 OFFCURVE",
"176 352 CURVE",
"400 466 LINE",
"406 470 OFFCURVE",
"412 473 OFFCURVE",
"414 477 CURVE SMOOTH",
"416 481 OFFCURVE",
"418 486 OFFCURVE",
"418 492 CURVE SMOOTH",
"418 555 LINE"
);
}
);
width = 454;
}
);
note = less;
unicode = 003C;
},
{
glyphname = equal;
lastChange = "2017-11-28 23:39:02 +0000";
layers = (
{
layerId = "C81CB9C3-2214-4415-8D0B-901773012C9D";
paths = (
{
closed = 1;
nodes = (
"48 287 LINE",
"48 220 LINE",
"478 220 LINE",
"478 287 LINE"
);
},
{
closed = 1;
nodes = (
"48 454 LINE",
"48 387 LINE",
"478 387 LINE",
"478 454 LINE"
);
}
);
width = 526;
}
);
note = equal;
unicode = 003D;
},
{
glyphname = greater;
lastChange = "2017-11-28 23:39:02 +0000";
layers = (
{
layerId = "C81CB9C3-2214-4415-8D0B-901773012C9D";
paths = (
{
closed = 1;
nodes = (
"38 117 LINE",
"425 318 LINE",
"425 355 LINE",
"38 556 LINE",
"38 492 LINE SMOOTH",
"38 486 OFFCURVE",
"40 482 OFFCURVE",
"42 478 CURVE SMOOTH",
"44 474 OFFCURVE",
"50 470 OFFCURVE",
"56 466 CURVE",
"280 352 LINE",
"286 348 OFFCURVE",
"294 345 OFFCURVE",
"301 343 CURVE SMOOTH",
"308 341 OFFCURVE",
"316 338 OFFCURVE",
"324 336 CURVE",
"316 334 OFFCURVE",
"307 332 OFFCURVE",
"300 330 CURVE SMOOTH",
"293 328 OFFCURVE",
"286 325 OFFCURVE",
"280 321 CURVE",
"56 208 LINE",
"50 204 OFFCURVE",
"44 200 OFFCURVE",
"42 196 CURVE SMOOTH",
"40 192 OFFCURVE",
"38 186 OFFCURVE",
"38 180 CURVE SMOOTH"
);
}
);
width = 455;
}
);
note = greater;
unicode = 003E;
},
{
glyphname = question;
lastChange = "2017-11-28 23:39:02 +0000";
layers = (
{
layerId = "C81CB9C3-2214-4415-8D0B-901773012C9D";
paths = (
{
closed = 1;
nodes = (
"22 652 LINE",
"45 615 LINE",
"49 607 OFFCURVE",
"56 604 OFFCURVE",
"64 604 CURVE SMOOTH",
"68 604 OFFCURVE",
"74 606 OFFCURVE",
"80 611 CURVE SMOOTH",
"86 616 OFFCURVE",
"94 622 OFFCURVE",
"104 628 CURVE SMOOTH",
"114 634 OFFCURVE",
"126 639 OFFCURVE",
"140 644 CURVE SMOOTH",
"154 649 OFFCURVE",
"172 652 OFFCURVE",
"192 652 CURVE SMOOTH",
"207 652 OFFCURVE",
"221 649 OFFCURVE",
"234 645 CURVE SMOOTH",
"247 641 OFFCURVE",
"258 634 OFFCURVE",
"268 626 CURVE SMOOTH",
"278 618 OFFCURVE",
"285 608 OFFCURVE",
"291 596 CURVE SMOOTH",
"297 584 OFFCURVE",
"300 572 OFFCURVE",
"300 558 CURVE SMOOTH",
"300 538 OFFCURVE",
"296 520 OFFCURVE",
"288 506 CURVE SMOOTH",
"280 492 OFFCURVE",
"272 478 OFFCURVE",
"260 466 CURVE SMOOTH",
"248 454 OFFCURVE",
"235 445 OFFCURVE",
"222 435 CURVE SMOOTH",
"209 425 OFFCURVE",
"198 416 OFFCURVE",
"186 406 CURVE SMOOTH",
"174 396 OFFCURVE",
"165 387 OFFCURVE",
"157 376 CURVE SMOOTH",
"149 365 OFFCURVE",
"146 352 OFFCURVE",
"146 338 CURVE SMOOTH",
"146 333 LINE",
"152 250 LINE",
"212 250 LINE",
"222 326 LINE",
"224 337 OFFCURVE",
"228 347 OFFCURVE",
"236 356 CURVE SMOOTH",
"244 365 OFFCURVE",
"255 375 OFFCURVE",
"267 384 CURVE SMOOTH",
"279 393 OFFCURVE",
"291 402 OFFCURVE",
"305 412 CURVE SMOOTH",
"319 422 OFFCURVE",
"330 434 OFFCURVE",
"342 448 CURVE SMOOTH",
"354 462 OFFCURVE",
"363 478 OFFCURVE",
"371 496 CURVE SMOOTH",
"379 514 OFFCURVE",
"382 536 OFFCURVE",
"382 562 CURVE SMOOTH",
"382 587 OFFCURVE",
"378 610 OFFCURVE",
"368 630 CURVE SMOOTH",
"358 650 OFFCURVE",
"345 667 OFFCURVE",
"329 681 CURVE SMOOTH",
"313 695 OFFCURVE",
"292 706 OFFCURVE",
"270 714 CURVE SMOOTH",
"248 722 OFFCURVE",
"223 725 OFFCURVE",
"197 725 CURVE SMOOTH",
"177 725 OFFCURVE",
"159 723 OFFCURVE",
"142 719 CURVE SMOOTH",
"125 715 OFFCURVE",
"109 709 OFFCURVE",
"94 703 CURVE SMOOTH",
"79 697 OFFCURVE",
"64 688 OFFCURVE",
"52 680 CURVE SMOOTH",
"40 672 OFFCURVE",
"28 664 OFFCURVE",
"18 654 CURVE"
);
},
{
closed = 1;
nodes = (
"116 47 OFFCURVE",
"117 39 OFFCURVE",
"120 31 CURVE SMOOTH",
"123 23 OFFCURVE",
"128 18 OFFCURVE",
"134 12 CURVE SMOOTH",
"140 6 OFFCURVE",
"145 1 OFFCURVE",
"153 -2 CURVE SMOOTH",
"161 -5 OFFCURVE",
"169 -6 OFFCURVE",
"177 -6 CURVE SMOOTH",
"185 -6 OFFCURVE",
"193 -5 OFFCURVE",
"201 -2 CURVE SMOOTH",
"209 1 OFFCURVE",
"214 6 OFFCURVE",
"220 12 CURVE SMOOTH",
"226 18 OFFCURVE",
"231 23 OFFCURVE",
"234 31 CURVE SMOOTH",
"237 39 OFFCURVE",
"238 47 OFFCURVE",
"238 56 CURVE SMOOTH",
"238 64 OFFCURVE",
"237 72 OFFCURVE",
"234 80 CURVE SMOOTH",
"231 88 OFFCURVE",
"226 93 OFFCURVE",
"220 99 CURVE SMOOTH",
"214 105 OFFCURVE",
"209 108 OFFCURVE",
"201 112 CURVE SMOOTH",
"193 116 OFFCURVE",
"185 118 OFFCURVE",
"177 118 CURVE SMOOTH",
"169 118 OFFCURVE",
"161 116 OFFCURVE",
"153 112 CURVE SMOOTH",
"145 108 OFFCURVE",
"140 105 OFFCURVE",
"134 99 CURVE SMOOTH",
"128 93 OFFCURVE",
"123 88 OFFCURVE",
"120 80 CURVE SMOOTH",
"117 72 OFFCURVE",
"116 64 OFFCURVE",
"116 56 CURVE SMOOTH"
);
}
);
width = 411;
}
);
note = question;
unicode = 003F;
},
{
glyphname = at;
lastChange = "2017-11-28 23:39:02 +0000";
layers = (
{
layerId = "C81CB9C3-2214-4415-8D0B-901773012C9D";
paths = (
{
closed = 1;
nodes = (
"571 93 LINE",
"599 93 OFFCURVE",
"625 100 OFFCURVE",
"649 112 CURVE SMOOTH",
"673 124 OFFCURVE",
"694 142 OFFCURVE",
"712 164 CURVE SMOOTH",
"730 186 OFFCURVE",
"744 214 OFFCURVE",
"754 244 CURVE SMOOTH",
"764 274 OFFCURVE",
"769 308 OFFCURVE",
"769 344 CURVE SMOOTH",
"769 380 OFFCURVE",
"765 412 OFFCURVE",
"756 442 CURVE SMOOTH",
"747 472 OFFCURVE",
"734 501 OFFCURVE",
"718 526 CURVE SMOOTH",
"702 551 OFFCURVE",
"683 573 OFFCURVE",
"661 592 CURVE SMOOTH",
"639 611 OFFCURVE",
"615 627 OFFCURVE",
"589 640 CURVE SMOOTH",
"563 653 OFFCURVE",
"536 663 OFFCURVE",
"506 669 CURVE SMOOTH",
"476 675 OFFCURVE",
"446 679 OFFCURVE",
"416 679 CURVE SMOOTH",
"380 679 OFFCURVE",
"345 674 OFFCURVE",
"312 664 CURVE SMOOTH",
"279 654 OFFCURVE",
"248 641 OFFCURVE",
"220 624 CURVE SMOOTH",
"192 607 OFFCURVE",
"166 587 OFFCURVE",
"142 563 CURVE SMOOTH",
"118 539 OFFCURVE",
"98 513 OFFCURVE",
"82 484 CURVE SMOOTH",
"66 455 OFFCURVE",
"52 424 OFFCURVE",
"43 390 CURVE SMOOTH",
"34 356 OFFCURVE",
"30 320 OFFCURVE",
"30 284 CURVE SMOOTH",
"30 220 OFFCURVE",
"40 164 OFFCURVE",
"61 114 CURVE SMOOTH",
"82 64 OFFCURVE",
"111 22 OFFCURVE",
"147 -12 CURVE SMOOTH",
"183 -46 OFFCURVE",
"226 -74 OFFCURVE",
"276 -92 CURVE SMOOTH",
"326 -110 OFFCURVE",
"378 -120 OFFCURVE",
"436 -120 CURVE SMOOTH",
"494 -120 OFFCURVE",
"545 -113 OFFCURVE",
"591 -99 CURVE SMOOTH",
"637 -85 OFFCURVE",
"676 -66 OFFCURVE",
"712 -42 CURVE",
"700 -10 LINE",
"696 -2 OFFCURVE",
"691 2 OFFCURVE",
"684 2 CURVE SMOOTH",
"680 2 OFFCURVE",
"676 1 OFFCURVE",
"671 -2 CURVE SMOOTH",
"643 -19 OFFCURVE",
"609 -33 OFFCURVE",
"570 -44 CURVE SMOOTH",
"531 -55 OFFCURVE",
"486 -60 OFFCURVE",
"436 -60 CURVE SMOOTH",
"388 -60 OFFCURVE",
"344 -52 OFFCURVE",
"302 -38 CURVE SMOOTH",
"260 -24 OFFCURVE",
"225 -2 OFFCURVE",
"194 27 CURVE SMOOTH",
"163 56 OFFCURVE",
"138 92 OFFCURVE",
"120 135 CURVE SMOOTH",
"102 178 OFFCURVE",
"93 228 OFFCURVE",
"93 284 CURVE SMOOTH",
"93 332 OFFCURVE",
"102 377 OFFCURVE",
"118 418 CURVE SMOOTH",
"134 459 OFFCURVE",
"157 494 OFFCURVE",
"186 524 CURVE SMOOTH",
"215 554 OFFCURVE",
"249 578 OFFCURVE",
"288 595 CURVE SMOOTH",
"327 612 OFFCURVE",
"370 620 OFFCURVE",
"414 620 CURVE SMOOTH",
"454 620 OFFCURVE",
"493 615 OFFCURVE",
"528 603 CURVE SMOOTH",
"563 591 OFFCURVE",
"593 574 OFFCURVE",
"619 551 CURVE SMOOTH",
"645 528 OFFCURVE",
"665 498 OFFCURVE",
"680 464 CURVE SMOOTH",
"695 430 OFFCURVE",
"703 390 OFFCURVE",
"703 344 CURVE SMOOTH",
"703 315 OFFCURVE",
"699 288 OFFCURVE",
"693 264 CURVE SMOOTH",
"687 240 OFFCURVE",
"677 219 OFFCURVE",
"666 202 CURVE SMOOTH",
"655 185 OFFCURVE",
"642 173 OFFCURVE",
"628 163 CURVE SMOOTH",
"614 153 OFFCURVE",
"598 149 OFFCURVE",
"582 149 CURVE SMOOTH",
"574 149 OFFCURVE",
"567 150 OFFCURVE",
"560 152 CURVE SMOOTH",
"553 154 OFFCURVE",
"547 156 OFFCURVE",
"542 160 CURVE SMOOTH",
"537 164 OFFCURVE",
"533 171 OFFCURVE",
"530 179 CURVE SMOOTH",
"527 187 OFFCURVE",
"525 197 OFFCURVE",
"525 209 CURVE SMOOTH",
"525 225 OFFCURVE",
"528 246 OFFCURVE",
"534 271 CURVE SMOOTH",
"581 452 LINE",
"566 458 OFFCURVE",
"550 462 OFFCURVE",
"533 466 CURVE SMOOTH",
"516 470 OFFCURVE",
"496 472 OFFCURVE",
"474 472 CURVE SMOOTH",
"432 472 OFFCURVE",
"396 464 OFFCURVE",
"364 450 CURVE SMOOTH",
"332 436 OFFCURVE",
"306 416 OFFCURVE",
"284 393 CURVE SMOOTH",
"262 370 OFFCURVE",
"246 344 OFFCURVE",
"235 315 CURVE SMOOTH",
"224 286 OFFCURVE",
"218 257 OFFCURVE",
"218 229 CURVE SMOOTH",
"218 209 OFFCURVE",
"221 191 OFFCURVE",
"226 175 CURVE SMOOTH",
"231 159 OFFCURVE",
"238 144 OFFCURVE",
"248 132 CURVE SMOOTH",
"258 120 OFFCURVE",
"271 111 OFFCURVE",
"285 104 CURVE SMOOTH",
"299 97 OFFCURVE",
"317 93 OFFCURVE",
"337 93 CURVE SMOOTH",
"363 93 OFFCURVE",
"388 98 OFFCURVE",
"410 110 CURVE SMOOTH",
"432 122 OFFCURVE",
"453 141 OFFCURVE",
"473 168 CURVE",
"477 142 OFFCURVE",
"488 122 OFFCURVE",
"504 110 CURVE SMOOTH",
"520 98 OFFCURVE",
"542 92 OFFCURVE",
"568 92 CURVE"
);
},
{
closed = 1;
nodes = (
"355 152 LINE",
"333 152 OFFCURVE",
"317 159 OFFCURVE",
"306 173 CURVE SMOOTH",
"295 187 OFFCURVE",
"290 206 OFFCURVE",
"290 230 CURVE SMOOTH",
"290 253 OFFCURVE",
"294 276 OFFCURVE",
"302 298 CURVE SMOOTH",
"310 320 OFFCURVE",
"322 339 OFFCURVE",
"337 356 CURVE SMOOTH",
"352 373 OFFCURVE",
"370 388 OFFCURVE",
"391 398 CURVE SMOOTH",
"412 408 OFFCURVE",
"435 413 OFFCURVE",
"460 413 CURVE SMOOTH",
"476 413 OFFCURVE",
"489 411 OFFCURVE",
"502 408 CURVE",
"464 261 LINE SMOOTH",
"458 239 OFFCURVE",
"452 221 OFFCURVE",
"444 207 CURVE SMOOTH",
"436 193 OFFCURVE",
"427 180 OFFCURVE",
"417 172 CURVE SMOOTH",
"407 164 OFFCURVE",
"396 158 OFFCURVE",
"386 154 CURVE SMOOTH",
"376 150 OFFCURVE",
"365 150 OFFCURVE",
"355 150 CURVE"
);
}
);
width = 799;
}
);
leftKerningGroup = O;
note = at;
rightKerningGroup = O;
unicode = 0040;
},
{
glyphname = A;
lastChange = "2017-11-28 23:39:02 +0000";
layers = (
{
anchors = (
{
name = bottom;
position = "{386, 0}";
},
{
name = ogonek;
position = "{695, 10}";
},
{
name = top;
position = "{386, 716}";
}
);
layerId = "C81CB9C3-2214-4415-8D0B-901773012C9D";
paths = (
{
closed = 1;
nodes = (
"695 68 LINE",
"436 716 LINE",
"338 716 LINE",
"78 68 LINE",
"38 56 LINE",
"30 54 OFFCURVE",
"25 49 OFFCURVE",
"25 40 CURVE SMOOTH",
"25 0 LINE",
"230 0 LINE",
"230 40 LINE SMOOTH",
"230 49 OFFCURVE",
"226 54 OFFCURVE",
"217 56 CURVE",
"176 68 LINE",
"232 212 LINE",
"541 212 LINE",
"597 68 LINE",
"556 56 LINE",
"547 54 OFFCURVE",
"542 49 OFFCURVE",
"542 40 CURVE SMOOTH",
"542 0 LINE",
"748 0 LINE",
"748 40 LINE SMOOTH",
"748 49 OFFCURVE",
"743 54 OFFCURVE",
"735 56 CURVE"
);
},
{
closed = 1;
nodes = (
"259 282 LINE",
"366 557 LINE SMOOTH",
"373 576 OFFCURVE",
"379 598 OFFCURVE",
"386 625 CURVE",
"394 598 OFFCURVE",
"401 575 OFFCURVE",
"408 557 CURVE",
"514 282 LINE"
);
}
);
width = 772;
}
);
leftKerningGroup = A;
note = A;
rightKerningGroup = A;
unicode = 0041;
},
{
glyphname = B;
lastChange = "2017-11-28 23:39:02 +0000";
layers = (
{
anchors = (
{
name = bottom;
position = "{315, 0}";
},
{
name = top;
position = "{315, 716}";
}
);
layerId = "C81CB9C3-2214-4415-8D0B-901773012C9D";
paths = (
{
closed = 1;
nodes = (
"541 396 OFFCURVE",
"586 448 OFFCURVE",
"586 536 CURVE SMOOTH",
"586 663 OFFCURVE",
"483 716 OFFCURVE",
"334 716 CURVE SMOOTH",
"33 716 LINE",
"33 672 LINE SMOOTH",
"33 662 OFFCURVE",
"38 656 OFFCURVE",
"48 654 CURVE",
"105 642 LINE",
"105 74 LINE",
"48 62 LINE SMOOTH",
"38 60 OFFCURVE",
"33 54 OFFCURVE",
"33 44 CURVE SMOOTH",
"33 0 LINE",
"358 0 LINE SMOOTH",
"502 0 OFFCURVE",
"610 70 OFFCURVE",
"610 204 CURVE SMOOTH",
"610 292 OFFCURVE",
"558 347 OFFCURVE",
"452 368 CURVE"
);
},
{
closed = 1;
nodes = (
"202 638 LINE",
"334 638 LINE SMOOTH",
"432 638 OFFCURVE",
"490 606 OFFCURVE",
"490 516 CURVE SMOOTH",
"490 433 OFFCURVE",
"428 396 OFFCURVE",
"330 396 CURVE SMOOTH",
"202 396 LINE"
);
},
{
closed = 1;
nodes = (
"358 77 CURVE",
"202 77 LINE",
"202 326 LINE",
"357 326 LINE SMOOTH",
"450 326 OFFCURVE",
"514 292 OFFCURVE",
"514 206 CURVE SMOOTH",
"514 124 OFFCURVE",
"465 76 OFFCURVE"
);
}
);
width = 630;
}
);
note = B;
unicode = 0042;
},
{
glyphname = C;
lastChange = "2017-11-28 23:39:02 +0000";
layers = (
{
anchors = (
{
name = bottom;
position = "{318, 0}";
},
{
name = top;
position = "{318, 716}";
}
);
layerId = "C81CB9C3-2214-4415-8D0B-901773012C9D";
paths = (
{
closed = 1;
nodes = (
"516 708 OFFCURVE",
"443 725 OFFCURVE",
"388 724 CURVE",
"278 724 OFFCURVE",
"188 690 OFFCURVE",
"122 622 CURVE SMOOTH",
"56 554 OFFCURVE",
"22 466 OFFCURVE",
"22 358 CURVE SMOOTH",
"22 149 OFFCURVE",
"151 -8 OFFCURVE",
"364 -8 CURVE SMOOTH",
"474 -8 OFFCURVE",
"560 28 OFFCURVE",
"622 100 CURVE",
"584 142 LINE",
"577 149 OFFCURVE",
"566 152 OFFCURVE",
"552 140 CURVE",
"499 91 OFFCURVE",
"443 76 OFFCURVE",
"369 76 CURVE SMOOTH",
"217 76 OFFCURVE",
"120 192 OFFCURVE",
"120 358 CURVE SMOOTH",
"120 444 OFFCURVE",
"145 513 OFFCURVE",
"193 565 CURVE SMOOTH",
"269 645 OFFCURVE",
"380 662 OFFCURVE",
"530 614 CURVE",
"538 524 LINE",
"540 512 OFFCURVE",
"548 506 OFFCURVE",
"560 506 CURVE SMOOTH",
"608 506 LINE",
"608 674 LINE"
);
}
);
width = 635;
}
);
leftKerningGroup = C;
note = C;
unicode = 0043;
},
{
glyphname = D;
lastChange = "2017-11-28 23:39:02 +0000";
layers = (
{
anchors = (
{
name = bottom;
position = "{372, 0}";
},
{
name = center;
position = "{372, 358}";
},
{
name = top;
position = "{372, 716}";
}
);
layerId = "C81CB9C3-2214-4415-8D0B-901773012C9D";
paths = (
{
closed = 1;
nodes = (
"718 568 OFFCURVE",
"583 716 OFFCURVE",
"365 716 CURVE SMOOTH",
"34 716 LINE",
"34 674 LINE SMOOTH",
"34 664 OFFCURVE",
"40 657 OFFCURVE",
"50 655 CURVE",
"106 643 LINE",
"106 72 LINE",
"50 61 LINE SMOOTH",
"40 59 OFFCURVE",
"34 52 OFFCURVE",
"34 42 CURVE SMOOTH",
"34 0 LINE",
"365 0 LINE SMOOTH",
"578 0 OFFCURVE",
"718 145 OFFCURVE",
"718 358 CURVE SMOOTH"
);
},
{
closed = 1;
nodes = (
"618 187 OFFCURVE",
"527 78 OFFCURVE",
"365 78 CURVE SMOOTH",
"204 78 LINE",
"204 638 LINE",
"365 638 LINE SMOOTH",
"529 638 OFFCURVE",
"618 525 OFFCURVE",
"618 358 CURVE SMOOTH"
);
}
);
width = 743;
}
);
note = D;
unicode = 0044;
},
{
glyphname = E;
lastChange = "2017-11-28 23:39:02 +0000";
layers = (
{
anchors = (
{
name = bottom;
position = "{294, 0}";
},
{
name = ogonek;
position = "{528, 10}";
},
{
name = top;
position = "{294, 716}";
},
{
name = topleft;
position = "{20, 716}";
}
);
layerId = "C81CB9C3-2214-4415-8D0B-901773012C9D";
paths = (
{
closed = 1;
nodes = (
"34 716 LINE",
"34 674 LINE SMOOTH",
"34 664 OFFCURVE",
"39 657 OFFCURVE",
"49 655 CURVE",
"55 653 OFFCURVE",
"74 649 OFFCURVE",
"106 643 CURVE",
"106 72 LINE",
"49 61 LINE SMOOTH",
"39 59 OFFCURVE",
"34 52 OFFCURVE",
"34 42 CURVE SMOOTH",
"34 0 LINE",
"548 0 LINE",
"548 166 LINE",
"500 166 LINE SMOOTH",
"488 166 OFFCURVE",
"480 162 OFFCURVE",
"478 150 CURVE",
"478 147 OFFCURVE",
"476 122 OFFCURVE",
"472 78 CURVE",
"204 78 LINE",
"204 323 LINE",
"468 323 LINE",
"468 399 LINE",
"204 399 LINE",
"204 637 LINE",
"472 637 LINE",
"476 589 OFFCURVE",
"479 563 OFFCURVE",
"479 560 CURVE",
"481 548 OFFCURVE",
"488 543 OFFCURVE",
"500 543 CURVE SMOOTH",
"548 543 LINE",
"548 716 LINE"
);
}
);
width = 587;
}
);
note = E;
unicode = 0045;
},
{
glyphname = F;
lastChange = "2017-11-28 23:39:02 +0000";
layers = (
{
anchors = (
{
name = bottom;
position = "{292, 0}";
},
{
name = top;
position = "{292, 716}";
}
);
layerId = "C81CB9C3-2214-4415-8D0B-901773012C9D";
paths = (
{
closed = 1;
nodes = (
"106 716 LINE",
"34 716 LINE",
"34 674 LINE SMOOTH",
"34 664 OFFCURVE",
"39 657 OFFCURVE",
"49 655 CURVE",
"55 653 OFFCURVE",
"74 649 OFFCURVE",
"106 643 CURVE",
"106 72 LINE",
"49 61 LINE SMOOTH",
"39 59 OFFCURVE",
"34 52 OFFCURVE",
"34 42 CURVE SMOOTH",
"34 0 LINE",
"276 0 LINE",
"276 42 LINE SMOOTH",
"276 52 OFFCURVE",
"270 59 OFFCURVE",
"260 61 CURVE SMOOTH",
"230 67 OFFCURVE",
"212 70 OFFCURVE",
"204 72 CURVE",
"204 308 LINE",
"476 308 LINE",
"476 386 LINE",
"204 386 LINE",
"204 637 LINE",
"488 637 LINE",
"492 589 OFFCURVE",
"496 563 OFFCURVE",
"496 560 CURVE",
"498 548 OFFCURVE",
"504 543 OFFCURVE",
"516 543 CURVE SMOOTH",
"565 543 LINE",
"565 716 LINE"
);
}
);
width = 584;
}
);
note = F;
unicode = 0046;
},
{
glyphname = G;
lastChange = "2017-11-28 23:39:02 +0000";
layers = (
{
anchors = (
{
name = bottom;
position = "{342, 0}";
},
{
name = top;
position = "{342, 716}";
}
);
layerId = "C81CB9C3-2214-4415-8D0B-901773012C9D";
paths = (
{
closed = 1;
nodes = (
"306 70 OFFCURVE",
"243 96 OFFCURVE",
"195 146 CURVE SMOOTH",
"146 198 OFFCURVE",
"122 268 OFFCURVE",
"122 358 CURVE SMOOTH",
"122 444 OFFCURVE",
"145 513 OFFCURVE",
"193 564 CURVE SMOOTH",
"216 588 OFFCURVE",
"244 607 OFFCURVE",
"276 620 CURVE SMOOTH",
"308 633 OFFCURVE",
"350 640 OFFCURVE",
"398 640 CURVE SMOOTH",
"446 640 OFFCURVE",
"489 634 OFFCURVE",
"527 624 CURVE",
"537 622 OFFCURVE",
"548 618 OFFCURVE",
"564 613 CURVE",
"568 557 OFFCURVE",
"572 527 OFFCURVE",
"572 522 CURVE",
"574 510 OFFCURVE",
"581 506 OFFCURVE",
"593 506 CURVE SMOOTH",
"641 506 LINE",
"641 672 LINE",
"550 706 OFFCURVE",
"466 724 OFFCURVE",
"388 724 CURVE SMOOTH",
"276 724 OFFCURVE",
"187 690 OFFCURVE",
"120 622 CURVE SMOOTH",
"54 556 OFFCURVE",
"22 468 OFFCURVE",
"22 358 CURVE SMOOTH",
"22 250 OFFCURVE",
"55 161 OFFCURVE",
"121 93 CURVE SMOOTH",
"187 25 OFFCURVE",
"272 -8 OFFCURVE",
"376 -8 CURVE SMOOTH",
"486 -8 OFFCURVE",
"576 17 OFFCURVE",
"648 69 CURVE",
"648 344 LINE",
"428 344 LINE",
"428 289 LINE SMOOTH",
"428 283 OFFCURVE",
"430 280 OFFCURVE",
"434 276 CURVE SMOOTH",
"438 272 OFFCURVE",
"444 270 OFFCURVE",
"450 270 CURVE SMOOTH",
"561 270 LINE",
"561 112 LINE",
"508 84 OFFCURVE",
"450 70 OFFCURVE",
"384 70 CURVE SMOOTH"
);
}
);
width = 684;
}
);
leftKerningGroup = C;
note = G;
unicode = 0047;
},
{
glyphname = H;
lastChange = "2017-11-28 23:39:02 +0000";
layers = (
{
anchors = (
{
name = bottom;
position = "{395, 0}";
},
{
name = center;
position = "{395, 358}";
},
{
name = top;
position = "{395, 716}";
},
{
name = topleft;
position = "{20, 716}";
}
);
layerId = "C81CB9C3-2214-4415-8D0B-901773012C9D";
paths = (
{
closed = 1;
nodes = (
"744 655 LINE SMOOTH",
"754 657 OFFCURVE",
"759 664 OFFCURVE",
"759 674 CURVE SMOOTH",
"759 716 LINE",
"517 716 LINE",
"517 674 LINE SMOOTH",
"517 664 OFFCURVE",
"521 658 OFFCURVE",
"529 656 CURVE SMOOTH",
"537 654 OFFCURVE",
"557 650 OFFCURVE",
"589 644 CURVE",
"589 397 LINE",
"203 397 LINE",
"203 644 LINE",
"237 650 OFFCURVE",
"257 654 OFFCURVE",
"264 656 CURVE SMOOTH",
"271 658 OFFCURVE",
"274 664 OFFCURVE",
"274 674 CURVE SMOOTH",
"274 716 LINE",
"33 716 LINE",
"33 674 LINE SMOOTH",
"33 664 OFFCURVE",
"37 658 OFFCURVE",
"45 656 CURVE SMOOTH",
"53 654 OFFCURVE",
"73 650 OFFCURVE",
"105 644 CURVE",
"105 73 LINE",
"48 62 LINE SMOOTH",
"38 60 OFFCURVE",
"33 53 OFFCURVE",
"33 43 CURVE SMOOTH",
"33 0 LINE",
"274 0 LINE",
"274 43 LINE SMOOTH",
"274 53 OFFCURVE",
"250 63 OFFCURVE",
"202 73 CURVE",
"202 326 LINE",
"588 326 LINE",
"588 73 LINE",
"532 62 LINE SMOOTH",
"522 60 OFFCURVE",
"516 53 OFFCURVE",
"516 43 CURVE SMOOTH",
"516 0 LINE",
"758 0 LINE",
"758 43 LINE SMOOTH",
"758 53 OFFCURVE",
"754 59 OFFCURVE",
"746 61 CURVE SMOOTH",
"738 63 OFFCURVE",
"718 67 OFFCURVE",
"686 73 CURVE",
"686 644 LINE"
);
}
);
width = 789;
}
);
note = H;
unicode = 0048;
},
{
glyphname = I;
lastChange = "2017-11-28 23:39:02 +0000";
layers = (
{
anchors = (
{
name = bottom;
position = "{153, 0}";
},
{
name = ogonek;
position = "{274, 10}";
},
{
name = top;
position = "{153, 716}";
},
{
name = topleft;
position = "{20, 716}";
}
);
layerId = "C81CB9C3-2214-4415-8D0B-901773012C9D";
paths = (
{
closed = 1;
nodes = (
"260 655 LINE SMOOTH",
"270 657 OFFCURVE",
"275 664 OFFCURVE",
"275 674 CURVE SMOOTH",
"275 716 LINE",
"34 716 LINE",
"34 674 LINE SMOOTH",
"34 664 OFFCURVE",
"38 658 OFFCURVE",
"46 656 CURVE SMOOTH",
"54 654 OFFCURVE",
"74 650 OFFCURVE",
"106 644 CURVE",
"106 73 LINE",
"48 62 LINE SMOOTH",
"38 60 OFFCURVE",
"34 53 OFFCURVE",
"34 43 CURVE SMOOTH",
"34 0 LINE",
"275 0 LINE",
"275 43 LINE SMOOTH",
"275 53 OFFCURVE",
"271 59 OFFCURVE",
"263 61 CURVE SMOOTH",
"255 63 OFFCURVE",
"234 67 OFFCURVE",
"202 73 CURVE",
"202 644 LINE"
);
}
);
width = 305;
}
);
note = I;
unicode = 0049;
},
{
glyphname = J;
lastChange = "2017-11-28 23:39:02 +0000";
layers = (
{
anchors = (
{
name = bottom;
position = "{221, 0}";
},
{
name = top;
position = "{221, 716}";
}
);
layerId = "C81CB9C3-2214-4415-8D0B-901773012C9D";
paths = (
{
closed = 1;
nodes = (
"118 73 LINE",
"102 73 OFFCURVE",
"88 75 OFFCURVE",
"78 78 CURVE SMOOTH",
"68 81 OFFCURVE",
"60 82 OFFCURVE",
"54 82 CURVE SMOOTH",
"48 82 OFFCURVE",
"42 80 OFFCURVE",
"38 76 CURVE SMOOTH",
"34 72 OFFCURVE",
"30 48 OFFCURVE",
"27 6 CURVE",
"62 -4 OFFCURVE",
"97 -8 OFFCURVE",
"131 -8 CURVE SMOOTH",
"165 -8 OFFCURVE",
"196 -2 OFFCURVE",
"224 10 CURVE SMOOTH",
"310 46 OFFCURVE",
"354 125 OFFCURVE",
"354 248 CURVE SMOOTH",
"354 644 LINE",
"410 655 LINE SMOOTH",
"420 657 OFFCURVE",
"426 664 OFFCURVE",
"426 674 CURVE SMOOTH",
"426 716 LINE",
"176 716 LINE",
"176 674 LINE SMOOTH",
"176 664 OFFCURVE",
"180 657 OFFCURVE",
"190 655 CURVE",
"196 653 OFFCURVE",
"219 649 OFFCURVE",
"257 643 CURVE",
"257 245 LINE SMOOTH",
"257 130 OFFCURVE",
"210 72 OFFCURVE",
"118 72 CURVE"
);
}
);
width = 442;
}
);
leftKerningGroup = J;
note = J;
rightKerningGroup = J;
unicode = 004A;
},
{
glyphname = K;
lastChange = "2017-11-28 23:39:02 +0000";
layers = (
{
anchors = (
{
name = bottom;
position = "{355, 0}";
},
{
name = top;
position = "{355, 716}";
}
);
layerId = "C81CB9C3-2214-4415-8D0B-901773012C9D";
paths = (
{
closed = 1;
nodes = (
"670 59 LINE",
"664 61 OFFCURVE",
"647 64 OFFCURVE",
"619 70 CURVE",
"392 340 LINE SMOOTH",
"376 360 OFFCURVE",
"360 372 OFFCURVE",
"346 376 CURVE",
"358 382 OFFCURVE",
"371 392 OFFCURVE",
"385 408 CURVE SMOOTH",
"598 649 LINE",
"624 655 OFFCURVE",
"638 659 OFFCURVE",
"644 661 CURVE",
"654 663 OFFCURVE",
"660 670 OFFCURVE",
"660 680 CURVE",
"658 718 LINE",
"432 718 LINE",
"432 678 LINE SMOOTH",
"432 668 OFFCURVE",
"436 662 OFFCURVE",
"446 660 CURVE SMOOTH",
"452 659 OFFCURVE",
"466 656 OFFCURVE",
"490 652 CURVE",
"290 424 LINE SMOOTH",
"278 410 OFFCURVE",
"260 404 OFFCURVE",
"238 404 CURVE SMOOTH",
"202 404 LINE",
"202 644 LINE",
"210 646 OFFCURVE",
"228 650 OFFCURVE",
"258 656 CURVE SMOOTH",
"268 658 OFFCURVE",
"274 665 OFFCURVE",
"274 675 CURVE SMOOTH",
"274 718 LINE",
"33 718 LINE",
"33 675 LINE SMOOTH",
"33 665 OFFCURVE",
"38 658 OFFCURVE",
"48 656 CURVE",
"54 654 OFFCURVE",
"73 650 OFFCURVE",
"105 644 CURVE",
"105 74 LINE",
"48 62 LINE SMOOTH",
"38 60 OFFCURVE",
"33 54 OFFCURVE",
"33 44 CURVE SMOOTH",
"33 1 LINE",
"274 1 LINE",
"274 44 LINE SMOOTH",
"274 54 OFFCURVE",
"268 60 OFFCURVE",
"258 62 CURVE SMOOTH",
"231 68 OFFCURVE",
"213 72 OFFCURVE",
"202 74 CURVE",
"202 330 LINE",
"246 330 LINE SMOOTH",
"254 330 OFFCURVE",
"262 330 OFFCURVE",
"271 328 CURVE SMOOTH",
"280 326 OFFCURVE",
"290 318 OFFCURVE",
"302 306 CURVE",
"509 68 LINE",
"482 62 OFFCURVE",
"467 59 OFFCURVE",
"463 59 CURVE",
"453 57 OFFCURVE",
"449 52 OFFCURVE",
"449 42 CURVE SMOOTH",
"449 2 LINE",
"684 2 LINE",
"684 42 LINE SMOOTH",
"684 52 OFFCURVE",
"679 58 OFFCURVE",
"669 60 CURVE"
);
}
);
width = 710;
}
);
note = K;
unicode = 004B;
},
{
glyphname = L;
lastChange = "2017-11-28 23:39:02 +0000";
layers = (
{
anchors = (
{
name = bottom;
position = "{285, 0}";
},
{
name = center;
position = "{285, 358}";
},
{
name = top;
position = "{285, 716}";
},
{
name = topright;
position = "{550, 716}";
}
);
layerId = "C81CB9C3-2214-4415-8D0B-901773012C9D";
paths = (
{
closed = 1;
nodes = (
"536 156 LINE",
"487 156 LINE SMOOTH",
"477 156 OFFCURVE",
"468 149 OFFCURVE",
"466 139 CURVE",
"465 135 OFFCURVE",
"462 110 OFFCURVE",
"460 82 CURVE",
"202 82 LINE",
"202 644 LINE",
"204 644 OFFCURVE",
"251 653 OFFCURVE",
"259 655 CURVE SMOOTH",
"268 657 OFFCURVE",
"274 665 OFFCURVE",
"274 674 CURVE SMOOTH",
"274 716 LINE",
"202 716 LINE",
"202 716 LINE",
"106 716 LINE",
"34 716 LINE",
"34 674 LINE SMOOTH",
"34 665 OFFCURVE",
"40 657 OFFCURVE",
"49 655 CURVE SMOOTH",
"58 653 OFFCURVE",
"106 644 OFFCURVE",
"106 644 CURVE",
"106 73 LINE",
"106 73 OFFCURVE",
"58 64 OFFCURVE",
"49 62 CURVE SMOOTH",
"40 60 OFFCURVE",
"34 52 OFFCURVE",
"34 43 CURVE SMOOTH",
"34 0 LINE",
"106 0 LINE",
"504 0 LINE",
"512 0 LINE",
"536 0 LINE"
);
}
);
width = 570;
}
);
note = L;
unicode = 004C;
},
{
glyphname = M;
lastChange = "2017-11-28 23:39:02 +0000";
layers = (
{
anchors = (
{
name = bottom;
position = "{477, 0}";
},
{
name = top;
position = "{477, 716}";
}
);
layerId = "C81CB9C3-2214-4415-8D0B-901773012C9D";
paths = (
{
closed = 1;
nodes = (
"188 575 LINE",
"438 126 LINE SMOOTH",
"446 111 OFFCURVE",
"459 103 OFFCURVE",
"474 103 CURVE SMOOTH",
"488 103 LINE SMOOTH",
"503 103 OFFCURVE",
"514 111 OFFCURVE",
"522 126 CURVE SMOOTH",
"768 574 LINE",
"766 558 OFFCURVE",
"766 541 OFFCURVE",
"766 527 CURVE SMOOTH",
"766 74 LINE",
"731 68 OFFCURVE",
"709 64 OFFCURVE",
"699 62 CURVE SMOOTH",
"689 60 OFFCURVE",
"684 54 OFFCURVE",
"684 44 CURVE SMOOTH",
"684 0 LINE",
"924 0 LINE",
"924 44 LINE SMOOTH",
"924 54 OFFCURVE",
"918 60 OFFCURVE",
"908 62 CURVE",
"902 64 OFFCURVE",
"883 68 OFFCURVE",
"851 74 CURVE",
"851 644 LINE",
"908 656 LINE SMOOTH",
"918 658 OFFCURVE",
"924 664 OFFCURVE",
"924 674 CURVE SMOOTH",
"924 718 LINE",
"780 718 LINE SMOOTH",
"772 718 OFFCURVE",
"764 717 OFFCURVE",
"760 715 CURVE SMOOTH",
"756 713 OFFCURVE",
"750 710 OFFCURVE",
"746 702 CURVE",
"504 261 LINE",
"496 245 OFFCURVE",
"488 228 OFFCURVE",
"481 208 CURVE",
"472 232 OFFCURVE",
"464 250 OFFCURVE",
"458 260 CURVE SMOOTH",
"211 702 LINE",
"207 710 OFFCURVE",
"202 713 OFFCURVE",
"198 715 CURVE SMOOTH",
"194 717 OFFCURVE",
"186 718 OFFCURVE",
"178 718 CURVE SMOOTH",
"34 718 LINE",
"34 674 LINE SMOOTH",
"34 664 OFFCURVE",
"40 658 OFFCURVE",
"50 656 CURVE",
"56 654 OFFCURVE",
"74 650 OFFCURVE",
"106 644 CURVE",
"106 74 LINE",
"50 62 LINE SMOOTH",
"40 60 OFFCURVE",
"34 54 OFFCURVE",
"34 44 CURVE SMOOTH",
"34 0 LINE",
"273 0 LINE",
"273 44 LINE SMOOTH",
"273 54 OFFCURVE",
"269 60 OFFCURVE",
"260 62 CURVE SMOOTH",
"251 64 OFFCURVE",
"228 68 OFFCURVE",
"192 74 CURVE",
"192 528 LINE SMOOTH",
"192 543 OFFCURVE",
"191 558 OFFCURVE",
"189 576 CURVE"
);
}
);
width = 954;
}
);
note = M;
unicode = 004D;
},
{
glyphname = N;
lastChange = "2017-11-28 23:39:02 +0000";
layers = (
{
anchors = (
{
name = bottom;
position = "{388, 0}";
},
{
name = top;
position = "{388, 716}";
}
);
layerId = "C81CB9C3-2214-4415-8D0B-901773012C9D";
paths = (
{
closed = 1;
nodes = (
"604 160 LINE",
"190 700 LINE",
"184 706 OFFCURVE",
"179 711 OFFCURVE",
"175 713 CURVE SMOOTH",
"171 715 OFFCURVE",
"164 716 OFFCURVE",
"156 716 CURVE SMOOTH",
"34 716 LINE",
"34 673 LINE SMOOTH",
"34 663 OFFCURVE",
"39 656 OFFCURVE",
"49 654 CURVE",
"55 652 OFFCURVE",
"74 648 OFFCURVE",
"106 642 CURVE",
"106 72 LINE",
"49 60 LINE SMOOTH",
"39 58 OFFCURVE",
"34 52 OFFCURVE",
"34 42 CURVE SMOOTH",
"34 -1 LINE",
"272 -1 LINE",
"272 42 LINE SMOOTH",
"272 52 OFFCURVE",
"268 58 OFFCURVE",
"258 60 CURVE SMOOTH",
"253 61 OFFCURVE",
"231 66 OFFCURVE",
"191 72 CURVE",
"191 510 LINE SMOOTH",
"191 524 OFFCURVE",
"191 539 OFFCURVE",
"189 556 CURVE",
"604 16 LINE",
"614 4 OFFCURVE",
"624 -1 OFFCURVE",
"638 -1 CURVE SMOOTH",
"687 -1 LINE",
"687 642 LINE",
"744 654 LINE SMOOTH",
"754 656 OFFCURVE",
"760 662 OFFCURVE",
"760 672 CURVE SMOOTH",
"760 716 LINE",
"687 716 LINE",
"602 716 LINE",
"520 716 LINE",
"520 672 LINE SMOOTH",
"520 662 OFFCURVE",
"526 656 OFFCURVE",
"536 654 CURVE SMOOTH",
"542 653 OFFCURVE",
"563 648 OFFCURVE",
"602 642 CURVE",
"602 208 LINE SMOOTH",
"602 190 OFFCURVE",
"602 172 OFFCURVE",
"604 158 CURVE"
);
}
);
width = 776;
}
);
note = N;
unicode = 004E;
},
{
glyphname = O;
lastChange = "2017-11-28 23:39:02 +0000";
layers = (
{
anchors = (
{
name = bottom;
position = "{377, 0}";
},
{
name = center;
position = "{377, 358}";
},
{
name = ogonek;
position = "{679, 10}";
},
{
name = top;
position = "{377, 716}";
},
{
name = topleft;
position = "{20, 716}";
},
{
name = topright;
position = "{734, 716}";
}
);
layerId = "C81CB9C3-2214-4415-8D0B-901773012C9D";
paths = (
{
closed = 1;
nodes = (
"729 358 LINE",
"729 412 OFFCURVE",
"721 461 OFFCURVE",
"704 506 CURVE SMOOTH",
"687 551 OFFCURVE",
"663 590 OFFCURVE",
"632 622 CURVE SMOOTH",
"601 654 OFFCURVE",
"564 679 OFFCURVE",
"520 697 CURVE SMOOTH",
"476 715 OFFCURVE",
"428 724 OFFCURVE",
"376 724 CURVE SMOOTH",
"324 724 OFFCURVE",
"276 715 OFFCURVE",
"232 697 CURVE SMOOTH",
"188 679 OFFCURVE",
"151 653 OFFCURVE",
"120 621 CURVE SMOOTH",
"89 589 OFFCURVE",
"65 550 OFFCURVE",
"48 505 CURVE SMOOTH",
"31 460 OFFCURVE",
"22 411 OFFCURVE",
"22 357 CURVE SMOOTH",
"22 303 OFFCURVE",
"31 254 OFFCURVE",
"48 209 CURVE SMOOTH",
"65 164 OFFCURVE",
"89 125 OFFCURVE",
"120 93 CURVE SMOOTH",
"151 61 OFFCURVE",
"188 36 OFFCURVE",
"232 18 CURVE SMOOTH",
"276 0 OFFCURVE",
"324 -10 OFFCURVE",
"376 -10 CURVE SMOOTH",
"428 -10 OFFCURVE",
"476 0 OFFCURVE",
"520 18 CURVE SMOOTH",
"564 36 OFFCURVE",
"600 61 OFFCURVE",
"631 93 CURVE SMOOTH",
"662 125 OFFCURVE",
"686 164 OFFCURVE",
"703 209 CURVE SMOOTH",
"720 254 OFFCURVE",
"728 302 OFFCURVE",
"728 356 CURVE"
);
},
{
closed = 1;
nodes = (
"629 356 LINE",
"629 312 OFFCURVE",
"623 273 OFFCURVE",
"611 238 CURVE SMOOTH",
"599 203 OFFCURVE",
"582 174 OFFCURVE",
"560 150 CURVE SMOOTH",
"538 126 OFFCURVE",
"512 107 OFFCURVE",
"480 94 CURVE SMOOTH",
"448 81 OFFCURVE",
"413 74 OFFCURVE",
"375 74 CURVE SMOOTH",
"337 74 OFFCURVE",
"302 81 OFFCURVE",
"270 94 CURVE SMOOTH",
"238 107 OFFCURVE",
"212 126 OFFCURVE",
"190 150 CURVE SMOOTH",
"168 174 OFFCURVE",
"150 203 OFFCURVE",
"138 238 CURVE SMOOTH",
"126 273 OFFCURVE",
"120 312 OFFCURVE",
"120 356 CURVE SMOOTH",
"120 400 OFFCURVE",
"126 440 OFFCURVE",
"138 475 CURVE SMOOTH",
"150 510 OFFCURVE",
"168 540 OFFCURVE",
"190 564 CURVE SMOOTH",
"212 588 OFFCURVE",
"238 606 OFFCURVE",
"270 619 CURVE SMOOTH",
"302 632 OFFCURVE",
"336 638 OFFCURVE",
"374 638 CURVE SMOOTH",
"412 638 OFFCURVE",
"448 632 OFFCURVE",
"480 619 CURVE SMOOTH",
"512 606 OFFCURVE",
"538 588 OFFCURVE",
"560 564 CURVE SMOOTH",
"582 540 OFFCURVE",
"598 510 OFFCURVE",
"610 475 CURVE SMOOTH",
"622 440 OFFCURVE",
"628 400 OFFCURVE",
"628 356 CURVE"
);
}
);
width = 754;
}
);
leftKerningGroup = C;
note = O;
rightKerningGroup = D;
unicode = 004F;
},
{
glyphname = P;
lastChange = "2017-11-28 23:39:02 +0000";
layers = (
{
anchors = (
{
name = bottom;
position = "{296, 0}";
},
{
name = top;
position = "{296, 716}";
}
);
layerId = "C81CB9C3-2214-4415-8D0B-901773012C9D";
paths = (
{
closed = 1;
nodes = (
"422 701 LINE",
"388 711 OFFCURVE",
"350 716 OFFCURVE",
"304 716 CURVE SMOOTH",
"34 716 LINE",
"34 674 LINE SMOOTH",
"34 664 OFFCURVE",
"39 657 OFFCURVE",
"49 655 CURVE",
"55 653 OFFCURVE",
"74 649 OFFCURVE",
"106 643 CURVE",
"106 72 LINE",
"49 61 LINE SMOOTH",
"39 59 OFFCURVE",
"34 52 OFFCURVE",
"34 42 CURVE SMOOTH",
"34 0 LINE",
"274 0 LINE",
"274 42 LINE SMOOTH",
"274 52 OFFCURVE",
"270 59 OFFCURVE",
"260 61 CURVE SMOOTH",
"228 67 OFFCURVE",
"208 71 OFFCURVE",
"202 73 CURVE",
"202 268 LINE",
"304 268 LINE SMOOTH",
"388 268 OFFCURVE",
"454 290 OFFCURVE",
"502 332 CURVE SMOOTH",
"548 372 OFFCURVE",
"570 426 OFFCURVE",
"570 494 CURVE SMOOTH",
"570 600 OFFCURVE",
"521 670 OFFCURVE",
"422 702 CURVE"
);
},
{
closed = 1;
nodes = (
"474 495 LINE",
"474 449 OFFCURVE",
"459 413 OFFCURVE",
"429 386 CURVE SMOOTH",
"399 359 OFFCURVE",
"358 346 OFFCURVE",
"304 346 CURVE SMOOTH",
"202 346 LINE",
"202 640 LINE",
"304 640 LINE SMOOTH",
"361 640 OFFCURVE",
"403 628 OFFCURVE",
"431 602 CURVE SMOOTH",
"459 576 OFFCURVE",
"473 542 OFFCURVE",
"473 496 CURVE"
);
}
);
width = 591;
}
);
note = P;
unicode = 0050;
},
{
glyphname = Q;
lastChange = "2017-11-28 23:39:02 +0000";
layers = (
{
anchors = (
{
name = bottom;
position = "{385, 0}";
},
{
name = top;
position = "{385, 716}";
}
);
layerId = "C81CB9C3-2214-4415-8D0B-901773012C9D";
paths = (
{
closed = 1;
nodes = (
"729 358 LINE",
"729 412 OFFCURVE",
"721 461 OFFCURVE",
"704 506 CURVE SMOOTH",
"687 551 OFFCURVE",
"663 590 OFFCURVE",
"632 622 CURVE SMOOTH",
"601 654 OFFCURVE",
"564 679 OFFCURVE",
"520 697 CURVE SMOOTH",
"476 715 OFFCURVE",
"428 724 OFFCURVE",
"376 724 CURVE SMOOTH",
"324 724 OFFCURVE",
"276 715 OFFCURVE",
"232 697 CURVE SMOOTH",
"188 679 OFFCURVE",
"151 653 OFFCURVE",
"120 621 CURVE SMOOTH",
"89 589 OFFCURVE",
"65 550 OFFCURVE",
"48 505 CURVE SMOOTH",
"31 460 OFFCURVE",
"22 411 OFFCURVE",
"22 357 CURVE SMOOTH",
"22 303 OFFCURVE",
"31 254 OFFCURVE",
"48 209 CURVE SMOOTH",
"65 164 OFFCURVE",
"89 125 OFFCURVE",
"120 93 CURVE SMOOTH",
"151 61 OFFCURVE",
"188 36 OFFCURVE",
"232 18 CURVE SMOOTH",
"276 0 OFFCURVE",
"324 -10 OFFCURVE",
"376 -10 CURVE SMOOTH",
"398 -10 OFFCURVE",
"420 -8 OFFCURVE",
"440 -4 CURVE SMOOTH",
"460 0 OFFCURVE",
"480 4 OFFCURVE",
"499 10 CURVE",
"625 -128 LINE",
"633 -136 OFFCURVE",
"640 -142 OFFCURVE",
"650 -146 CURVE SMOOTH",
"660 -150 OFFCURVE",
"670 -150 OFFCURVE",
"682 -150 CURVE SMOOTH",
"762 -150 LINE",
"578 48 LINE",
"602 64 OFFCURVE",
"624 82 OFFCURVE",
"642 104 CURVE SMOOTH",
"660 126 OFFCURVE",
"676 148 OFFCURVE",
"689 174 CURVE SMOOTH",
"702 200 OFFCURVE",
"712 229 OFFCURVE",
"719 259 CURVE SMOOTH",
"726 289 OFFCURVE",
"730 321 OFFCURVE",
"730 355 CURVE"
);
},
{
closed = 1;
nodes = (
"630 311 OFFCURVE",
"624 271 OFFCURVE",
"612 236 CURVE SMOOTH",
"600 201 OFFCURVE",
"583 172 OFFCURVE",
"561 148 CURVE SMOOTH",
"539 124 OFFCURVE",
"513 105 OFFCURVE",
"481 92 CURVE SMOOTH",
"449 79 OFFCURVE",
"414 73 OFFCURVE",
"376 73 CURVE SMOOTH",
"338 73 OFFCURVE",
"303 79 OFFCURVE",
"271 92 CURVE SMOOTH",
"239 105 OFFCURVE",
"212 124 OFFCURVE",
"190 148 CURVE SMOOTH",
"168 172 OFFCURVE",
"152 201 OFFCURVE",
"140 236 CURVE SMOOTH",
"128 271 OFFCURVE",
"122 311 OFFCURVE",
"122 355 CURVE SMOOTH",
"122 399 OFFCURVE",
"128 439 OFFCURVE",
"140 474 CURVE SMOOTH",
"152 509 OFFCURVE",
"168 538 OFFCURVE",
"190 562 CURVE SMOOTH",
"212 586 OFFCURVE",
"238 605 OFFCURVE",
"270 618 CURVE SMOOTH",
"302 631 OFFCURVE",
"338 637 OFFCURVE",
"376 637 CURVE SMOOTH",
"414 637 OFFCURVE",
"448 631 OFFCURVE",
"480 618 CURVE SMOOTH",
"512 605 OFFCURVE",
"538 586 OFFCURVE",
"560 562 CURVE SMOOTH",
"582 538 OFFCURVE",
"600 509 OFFCURVE",
"612 474 CURVE SMOOTH",
"624 439 OFFCURVE",
"630 399 OFFCURVE",
"630 355 CURVE SMOOTH"
);
}
);
width = 769;
}
);
leftKerningGroup = C;
note = Q;
rightKerningGroup = Q;
unicode = 0051;
},
{
glyphname = R;
lastChange = "2017-11-28 23:39:02 +0000";
layers = (
{
anchors = (
{
name = bottom;
position = "{335, 0}";
},
{
name = top;
position = "{335, 716}";
}
);
layerId = "C81CB9C3-2214-4415-8D0B-901773012C9D";
paths = (
{
closed = 1;
nodes = (
"628 62 LINE",
"620 64 OFFCURVE",
"578 71 OFFCURVE",
"572 72 CURVE",
"417 284 LINE SMOOTH",
"407 298 OFFCURVE",
"397 307 OFFCURVE",
"385 314 CURVE",
"413 320 OFFCURVE",
"437 331 OFFCURVE",
"459 343 CURVE SMOOTH",
"481 355 OFFCURVE",
"499 370 OFFCURVE",
"514 388 CURVE SMOOTH",
"529 406 OFFCURVE",
"541 426 OFFCURVE",
"549 448 CURVE SMOOTH",
"557 470 OFFCURVE",
"561 492 OFFCURVE",
"561 518 CURVE SMOOTH",
"561 548 OFFCURVE",
"556 577 OFFCURVE",
"546 601 CURVE SMOOTH",
"536 625 OFFCURVE",
"520 646 OFFCURVE",
"498 664 CURVE SMOOTH",
"476 682 OFFCURVE",
"449 695 OFFCURVE",
"416 704 CURVE SMOOTH",
"383 713 OFFCURVE",
"344 718 OFFCURVE",
"298 718 CURVE SMOOTH",
"105 718 LINE",
"33 718 LINE",
"33 674 LINE SMOOTH",
"33 665 OFFCURVE",
"39 658 OFFCURVE",
"48 656 CURVE SMOOTH",
"57 654 OFFCURVE",
"106 644 OFFCURVE",
"106 644 CURVE",
"106 74 LINE",
"106 74 OFFCURVE",
"57 64 OFFCURVE",
"48 62 CURVE SMOOTH",
"39 60 OFFCURVE",
"33 53 OFFCURVE",
"33 44 CURVE SMOOTH",
"33 1 LINE",
"105 1 LINE",
"202 1 LINE",
"202 1 LINE",
"274 1 LINE",
"274 44 LINE SMOOTH",
"274 53 OFFCURVE",
"267 60 OFFCURVE",
"258 62 CURVE SMOOTH",
"250 64 OFFCURVE",
"202 74 OFFCURVE",
"202 74 CURVE",
"202 300 LINE",
"266 300 LINE SMOOTH",
"280 300 OFFCURVE",
"290 298 OFFCURVE",
"296 294 CURVE SMOOTH",
"302 290 OFFCURVE",
"308 285 OFFCURVE",
"314 277 CURVE SMOOTH",
"500 21 LINE",
"508 7 OFFCURVE",
"520 0 OFFCURVE",
"538 0 CURVE SMOOTH",
"570 0 LINE",
"624 0 LINE",
"642 0 LINE",
"642 44 LINE SMOOTH",
"642 53 OFFCURVE",
"636 60 OFFCURVE",
"627 62 CURVE"
);
},
{
closed = 1;
nodes = (
"293 370 LINE",
"201 370 LINE",
"201 640 LINE",
"298 640 LINE SMOOTH",
"354 640 OFFCURVE",
"395 630 OFFCURVE",
"423 608 CURVE SMOOTH",
"451 586 OFFCURVE",
"465 554 OFFCURVE",
"465 512 CURVE SMOOTH",
"465 491 OFFCURVE",
"462 472 OFFCURVE",
"454 454 CURVE SMOOTH",
"446 436 OFFCURVE",
"435 422 OFFCURVE",
"421 410 CURVE SMOOTH",
"407 398 OFFCURVE",
"389 387 OFFCURVE",
"367 380 CURVE SMOOTH",
"345 373 OFFCURVE",
"320 370 OFFCURVE",
"292 370 CURVE"
);
}
);
width = 669;
}
);
note = R;
unicode = 0052;
},
{
glyphname = S;
lastChange = "2017-11-28 23:39:02 +0000";
layers = (
{
anchors = (
{
name = bottom;
position = "{253, 0}";
},
{
name = top;
position = "{253, 716}";
}
);
layerId = "C81CB9C3-2214-4415-8D0B-901773012C9D";
paths = (
{
closed = 1;
nodes = (
"376 379 LINE",
"352 389 OFFCURVE",
"310 404 OFFCURVE",
"250 424 CURVE SMOOTH",
"229 431 OFFCURVE",
"210 439 OFFCURVE",
"194 449 CURVE",
"158 469 OFFCURVE",
"140 497 OFFCURVE",
"140 532 CURVE SMOOTH",
"140 564 OFFCURVE",
"152 592 OFFCURVE",
"174 612 CURVE SMOOTH",
"198 634 OFFCURVE",
"232 644 OFFCURVE",
"274 644 CURVE SMOOTH",
"308 644 OFFCURVE",
"348 637 OFFCURVE",
"392 625 CURVE",
"396 567 OFFCURVE",
"399 538 OFFCURVE",
"399 536 CURVE",
"401 524 OFFCURVE",
"408 519 OFFCURVE",
"420 519 CURVE SMOOTH",
"468 519 LINE",
"468 684 LINE",
"400 712 OFFCURVE",
"333 724 OFFCURVE",
"267 724 CURVE SMOOTH",
"201 724 OFFCURVE",
"148 704 OFFCURVE",
"107 664 CURVE SMOOTH",
"69 626 OFFCURVE",
"50 582 OFFCURVE",
"50 528 CURVE SMOOTH",
"50 471 OFFCURVE",
"67 426 OFFCURVE",
"103 394 CURVE SMOOTH",
"119 380 OFFCURVE",
"138 367 OFFCURVE",
"158 358 CURVE SMOOTH",
"178 349 OFFCURVE",
"220 336 OFFCURVE",
"284 316 CURVE SMOOTH",
"304 310 OFFCURVE",
"322 302 OFFCURVE",
"338 292 CURVE",
"374 272 OFFCURVE",
"392 242 OFFCURVE",
"392 204 CURVE SMOOTH",
"392 164 OFFCURVE",
"380 133 OFFCURVE",
"354 109 CURVE",
"342 97 OFFCURVE",
"326 88 OFFCURVE",
"308 82 CURVE SMOOTH",
"290 76 OFFCURVE",
"266 72 OFFCURVE",
"234 72 CURVE SMOOTH",
"202 72 OFFCURVE",
"162 82 OFFCURVE",
"112 100 CURVE",
"112 100 OFFCURVE",
"111 116 OFFCURVE",
"109 144 CURVE SMOOTH",
"107 172 OFFCURVE",
"105 189 OFFCURVE",
"104 193 CURVE",
"102 205 OFFCURVE",
"96 210 OFFCURVE",
"84 210 CURVE SMOOTH",
"35 210 LINE",
"35 30 LINE",
"64 20 LINE",
"84 14 OFFCURVE",
"110 7 OFFCURVE",
"144 1 CURVE SMOOTH",
"178 -5 OFFCURVE",
"211 -8 OFFCURVE",
"242 -8 CURVE SMOOTH",
"316 -8 OFFCURVE",
"376 13 OFFCURVE",
"420 57 CURVE SMOOTH",
"462 99 OFFCURVE",
"482 152 OFFCURVE",
"482 218 CURVE SMOOTH",
"482 293 OFFCURVE",
"446 347 OFFCURVE",
"374 379 CURVE"
);
}
);
width = 506;
}
);
leftKerningGroup = S;
note = S;
rightKerningGroup = S;
unicode = 0053;
},
{
glyphname = T;
lastChange = "2017-11-28 23:39:02 +0000";
layers = (
{
anchors = (
{
name = bottom;
position = "{315, 0}";
},
{
name = center;
position = "{315, 358}";
},
{
name = top;
position = "{315, 716}";
}
);
layerId = "C81CB9C3-2214-4415-8D0B-901773012C9D";
paths = (
{
closed = 1;
nodes = (
"596 716 LINE",
"562 716 LINE",
"22 716 LINE",
"22 558 LINE",
"70 558 LINE SMOOTH",
"82 558 OFFCURVE",
"88 561 OFFCURVE",
"90 568 CURVE SMOOTH",
"92 575 OFFCURVE",
"95 597 OFFCURVE",
"99 635 CURVE",
"268 635 LINE",
"268 73 LINE",
"242 68 OFFCURVE",
"224 64 OFFCURVE",
"213 62 CURVE SMOOTH",
"202 60 OFFCURVE",
"196 52 OFFCURVE",
"196 42 CURVE SMOOTH",
"196 0 LINE",
"438 0 LINE",
"438 42 LINE SMOOTH",
"438 52 OFFCURVE",
"435 58 OFFCURVE",
"428 60 CURVE SMOOTH",
"421 62 OFFCURVE",
"404 65 OFFCURVE",
"378 70 CURVE",
"370 72 OFFCURVE",
"366 72 OFFCURVE",
"366 72 CURVE",
"366 634 LINE",
"534 634 LINE",
"538 596 OFFCURVE",
"542 575 OFFCURVE",
"544 568 CURVE SMOOTH",
"546 561 OFFCURVE",
"551 558 OFFCURVE",
"563 558 CURVE SMOOTH",
"612 558 LINE",
"612 716 LINE"
);
}
);
width = 629;
}
);
leftKerningGroup = T;
note = T;
rightKerningGroup = T;
unicode = 0054;
},
{
glyphname = U;
lastChange = "2017-11-28 23:39:02 +0000";
layers = (
{
anchors = (
{
name = bottom;
position = "{375, 0}";
},
{
name = ogonek;
position = "{674, 10}";
},
{
name = top;
position = "{375, 716}";
},
{
name = topright;
position = "{729, 716}";
}
);
layerId = "C81CB9C3-2214-4415-8D0B-901773012C9D";
paths = (
{
closed = 1;
nodes = (
"660 716 LINE",
"564 716 LINE",
"482 716 LINE",
"482 674 LINE SMOOTH",
"482 664 OFFCURVE",
"488 657 OFFCURVE",
"498 655 CURVE SMOOTH",
"503 654 OFFCURVE",
"525 650 OFFCURVE",
"564 644 CURVE",
"564 281 LINE SMOOTH",
"564 220 OFFCURVE",
"547 171 OFFCURVE",
"514 134 CURVE SMOOTH",
"480 96 OFFCURVE",
"433 77 OFFCURVE",
"375 77 CURVE SMOOTH",
"317 77 OFFCURVE",
"270 96 OFFCURVE",
"236 134 CURVE SMOOTH",
"202 171 OFFCURVE",
"186 221 OFFCURVE",
"186 282 CURVE SMOOTH",
"186 644 LINE",
"226 650 OFFCURVE",
"247 654 OFFCURVE",
"252 655 CURVE SMOOTH",
"262 657 OFFCURVE",
"268 664 OFFCURVE",
"268 674 CURVE SMOOTH",
"268 716 LINE",
"17 716 LINE",
"17 674 LINE SMOOTH",
"17 664 OFFCURVE",
"22 657 OFFCURVE",
"32 655 CURVE",
"38 653 OFFCURVE",
"57 649 OFFCURVE",
"89 643 CURVE",
"89 280 LINE SMOOTH",
"89 196 OFFCURVE",
"115 128 OFFCURVE",
"166 74 CURVE SMOOTH",
"218 19 OFFCURVE",
"288 -9 OFFCURVE",
"374 -9 CURVE SMOOTH",
"461 -9 OFFCURVE",
"531 19 OFFCURVE",
"583 74 CURVE SMOOTH",
"633 128 OFFCURVE",
"659 196 OFFCURVE",
"659 280 CURVE SMOOTH",
"659 643 LINE",
"716 654 LINE SMOOTH",
"726 656 OFFCURVE",
"732 663 OFFCURVE",
"732 673 CURVE SMOOTH",
"732 716 LINE"
);
}
);
width = 749;
}
);
leftKerningGroup = U;
note = U;
rightKerningGroup = J;
unicode = 0055;
},
{
glyphname = V;
lastChange = "2017-11-28 23:39:02 +0000";
layers = (
{
anchors = (
{
name = bottom;
position = "{390, 0}";
},
{
name = top;
position = "{390, 716}";
}
);
layerId = "C81CB9C3-2214-4415-8D0B-901773012C9D";
paths = (
{
closed = 1;
nodes = (
"523 716 LINE",
"523 674 LINE SMOOTH",
"523 664 OFFCURVE",
"528 657 OFFCURVE",
"538 655 CURVE",
"544 653 OFFCURVE",
"563 649 OFFCURVE",
"595 643 CURVE",
"414 188 LINE",
"406 170 OFFCURVE",
"399 143 OFFCURVE",
"391 109 CURVE",
"382 145 OFFCURVE",
"374 171 OFFCURVE",
"367 187 CURVE SMOOTH",
"184 642 LINE",
"206 646 OFFCURVE",
"223 651 OFFCURVE",
"236 653 CURVE SMOOTH",
"249 655 OFFCURVE",
"256 662 OFFCURVE",
"256 672 CURVE SMOOTH",
"256 716 LINE",
"18 716 LINE",
"18 672 LINE SMOOTH",
"18 662 OFFCURVE",
"23 656 OFFCURVE",
"33 654 CURVE",
"39 652 OFFCURVE",
"56 648 OFFCURVE",
"84 642 CURVE",
"346 -2 LINE",
"433 -2 LINE",
"696 642 LINE",
"746 654 LINE",
"756 656 OFFCURVE",
"760 662 OFFCURVE",
"760 672 CURVE SMOOTH",
"760 715 LINE"
);
}
);
width = 779;
}
);
leftKerningGroup = V;
note = V;
rightKerningGroup = V;
unicode = 0056;
},
{
glyphname = W;
lastChange = "2017-11-28 23:39:02 +0000";
layers = (
{
anchors = (
{
name = bottom;
position = "{563, 0}";
},
{
name = top;
position = "{563, 716}";
}
);
layerId = "C81CB9C3-2214-4415-8D0B-901773012C9D";
paths = (
{
closed = 1;
nodes = (
"1066 716 LINE",
"870 716 LINE",
"870 674 LINE SMOOTH",
"870 664 OFFCURVE",
"876 657 OFFCURVE",
"886 655 CURVE SMOOTH",
"920 648 OFFCURVE",
"938 644 OFFCURVE",
"942 644 CURVE",
"809 196 LINE",
"807 188 OFFCURVE",
"805 178 OFFCURVE",
"803 168 CURVE SMOOTH",
"801 158 OFFCURVE",
"800 146 OFFCURVE",
"798 136 CURVE",
"794 158 OFFCURVE",
"788 178 OFFCURVE",
"782 196 CURVE SMOOTH",
"614 694 LINE SMOOTH",
"608 710 OFFCURVE",
"597 718 OFFCURVE",
"581 718 CURVE SMOOTH",
"553 718 LINE SMOOTH",
"545 718 OFFCURVE",
"538 715 OFFCURVE",
"532 710 CURVE SMOOTH",
"526 705 OFFCURVE",
"522 700 OFFCURVE",
"520 694 CURVE SMOOTH",
"351 196 LINE SMOOTH",
"347 184 OFFCURVE",
"342 164 OFFCURVE",
"336 134 CURVE",
"332 160 OFFCURVE",
"326 181 OFFCURVE",
"322 196 CURVE SMOOTH",
"190 644 LINE",
"194 644 OFFCURVE",
"212 649 OFFCURVE",
"246 656 CURVE SMOOTH",
"256 658 OFFCURVE",
"262 664 OFFCURVE",
"262 674 CURVE SMOOTH",
"262 717 LINE",
"18 717 LINE",
"18 674 LINE SMOOTH",
"18 664 OFFCURVE",
"24 658 OFFCURVE",
"34 656 CURVE",
"40 654 OFFCURVE",
"56 650 OFFCURVE",
"84 644 CURVE",
"284 0 LINE",
"372 0 LINE",
"554 546 LINE",
"556 551 OFFCURVE",
"556 558 OFFCURVE",
"558 564 CURVE SMOOTH",
"560 570 OFFCURVE",
"561 576 OFFCURVE",
"563 582 CURVE",
"566 568 OFFCURVE",
"569 556 OFFCURVE",
"573 546 CURVE",
"754 0 LINE",
"842 0 LINE",
"1042 643 LINE",
"1092 654 LINE SMOOTH",
"1102 656 OFFCURVE",
"1108 663 OFFCURVE",
"1108 673 CURVE SMOOTH",
"1108 716 LINE"
);
}
);
width = 1125;
}
);
leftKerningGroup = V;
note = W;
rightKerningGroup = V;
unicode = 0057;
},
{
glyphname = X;
lastChange = "2017-11-28 23:39:02 +0000";
layers = (
{
anchors = (
{
name = bottom;
position = "{377, 0}";
},
{
name = top;
position = "{377, 716}";
}
);
layerId = "C81CB9C3-2214-4415-8D0B-901773012C9D";
paths = (
{
closed = 1;
nodes = (
"710 62 LINE",
"704 64 OFFCURVE",
"682 68 OFFCURVE",
"644 74 CURVE",
"447 373 LINE",
"634 644 LINE",
"672 650 OFFCURVE",
"695 654 OFFCURVE",
"703 656 CURVE SMOOTH",
"711 658 OFFCURVE",
"716 664 OFFCURVE",
"716 674 CURVE SMOOTH",
"716 717 LINE",
"458 717 LINE",
"458 674 LINE SMOOTH",
"458 664 OFFCURVE",
"464 658 OFFCURVE",
"474 656 CURVE SMOOTH",
"500 651 OFFCURVE",
"518 646 OFFCURVE",
"530 644 CURVE",
"393 440 LINE SMOOTH",
"388 432 OFFCURVE",
"384 423 OFFCURVE",
"382 416 CURVE",
"233 646 LINE",
"255 650 OFFCURVE",
"271 653 OFFCURVE",
"281 655 CURVE SMOOTH",
"291 657 OFFCURVE",
"297 664 OFFCURVE",
"297 674 CURVE SMOOTH",
"297 716 LINE",
"42 716 LINE",
"42 674 LINE SMOOTH",
"42 664 OFFCURVE",
"47 657 OFFCURVE",
"57 655 CURVE",
"63 653 OFFCURVE",
"85 649 OFFCURVE",
"123 643 CURVE",
"310 368 LINE",
"112 72 LINE",
"70 65 OFFCURVE",
"48 61 OFFCURVE",
"46 61 CURVE",
"36 59 OFFCURVE",
"30 52 OFFCURVE",
"30 42 CURVE SMOOTH",
"30 0 LINE",
"288 0 LINE",
"288 42 LINE SMOOTH",
"288 52 OFFCURVE",
"283 59 OFFCURVE",
"273 61 CURVE SMOOTH",
"237 68 OFFCURVE",
"218 72 OFFCURVE",
"216 72 CURVE",
"367 298 LINE SMOOTH",
"371 304 OFFCURVE",
"374 311 OFFCURVE",
"376 318 CURVE",
"533 72 LINE",
"533 72 OFFCURVE",
"524 71 OFFCURVE",
"507 67 CURVE SMOOTH",
"490 63 OFFCURVE",
"480 61 OFFCURVE",
"476 61 CURVE",
"466 59 OFFCURVE",
"461 52 OFFCURVE",
"461 42 CURVE SMOOTH",
"461 0 LINE",
"724 0 LINE",
"724 42 LINE SMOOTH",
"724 52 OFFCURVE",
"720 59 OFFCURVE",
"710 61 CURVE"
);
}
);
width = 754;
}
);
leftKerningGroup = X;
note = X;
rightKerningGroup = K;
unicode = 0058;
},
{
glyphname = Y;
lastChange = "2017-11-28 23:39:02 +0000";
layers = (
{
anchors = (
{
name = bottom;
position = "{351, 0}";
},
{
name = top;
position = "{351, 716}";
},
{
name = topleft;
position = "{20, 716}";
}
);
layerId = "C81CB9C3-2214-4415-8D0B-901773012C9D";
paths = (
{
closed = 1;
nodes = (
"442 716 LINE",
"442 674 LINE SMOOTH",
"442 664 OFFCURVE",
"446 657 OFFCURVE",
"456 655 CURVE SMOOTH",
"490 648 OFFCURVE",
"510 644 OFFCURVE",
"514 644 CURVE",
"380 416 LINE SMOOTH",
"370 399 OFFCURVE",
"360 378 OFFCURVE",
"351 352 CURVE",
"343 376 OFFCURVE",
"332 397 OFFCURVE",
"322 415 CURVE SMOOTH",
"188 643 LINE",
"192 643 OFFCURVE",
"211 647 OFFCURVE",
"245 654 CURVE SMOOTH",
"255 656 OFFCURVE",
"260 663 OFFCURVE",
"260 673 CURVE SMOOTH",
"260 716 LINE",
"20 716 LINE",
"20 673 LINE SMOOTH",
"20 663 OFFCURVE",
"24 656 OFFCURVE",
"34 654 CURVE SMOOTH",
"44 652 OFFCURVE",
"60 648 OFFCURVE",
"84 642 CURVE",
"302 284 LINE",
"302 72 LINE",
"246 60 LINE SMOOTH",
"236 58 OFFCURVE",
"230 52 OFFCURVE",
"230 42 CURVE SMOOTH",
"230 -1 LINE",
"302 -1 LINE",
"399 -1 LINE",
"471 -1 LINE",
"471 42 LINE SMOOTH",
"471 52 OFFCURVE",
"466 58 OFFCURVE",
"456 60 CURVE SMOOTH",
"422 66 OFFCURVE",
"403 71 OFFCURVE",
"399 72 CURVE",
"399 284 LINE",
"618 642 LINE",
"644 648 OFFCURVE",
"662 652 OFFCURVE",
"670 654 CURVE SMOOTH",
"678 656 OFFCURVE",
"682 662 OFFCURVE",
"682 672 CURVE SMOOTH",
"682 716 LINE"
);
}
);
width = 701;
}
);
leftKerningGroup = Y;
note = Y;
rightKerningGroup = Y;
unicode = 0059;
},
{
glyphname = Z;
lastChange = "2017-11-28 23:39:02 +0000";
layers = (
{
anchors = (
{
name = bottom;
position = "{304, 0}";
},
{
name = top;
position = "{304, 716}";
}
);
layerId = "C81CB9C3-2214-4415-8D0B-901773012C9D";
paths = (
{
closed = 1;
nodes = (
"564 648 LINE SMOOTH",
"571 658 OFFCURVE",
"574 668 OFFCURVE",
"574 680 CURVE SMOOTH",
"574 716 LINE",
"50 716 LINE",
"50 638 LINE",
"50 542 LINE",
"98 542 LINE SMOOTH",
"110 542 OFFCURVE",
"118 547 OFFCURVE",
"120 559 CURVE",
"121 563 OFFCURVE",
"122 590 OFFCURVE",
"126 638 CURVE",
"447 638 LINE",
"41 66 LINE SMOOTH",
"35 57 OFFCURVE",
"32 48 OFFCURVE",
"32 38 CURVE SMOOTH",
"32 0 LINE",
"568 0 LINE",
"568 79 LINE",
"568 174 LINE",
"519 174 LINE SMOOTH",
"507 174 OFFCURVE",
"500 170 OFFCURVE",
"498 158 CURVE",
"497 154 OFFCURVE",
"495 127 OFFCURVE",
"491 79 CURVE",
"158 79 LINE"
);
}
);
width = 607;
}
);
leftKerningGroup = Z;
note = Z;
rightKerningGroup = uni01F1;
unicode = 005A;
},
{
glyphname = bracketleft;
lastChange = "2017-11-28 23:39:02 +0000";
layers = (
{
layerId = "C81CB9C3-2214-4415-8D0B-901773012C9D";
paths = (
{
closed = 1;
nodes = (
"56 -144 LINE",
"240 -144 LINE",
"240 -110 LINE SMOOTH",
"240 -102 OFFCURVE",
"236 -96 OFFCURVE",
"232 -92 CURVE SMOOTH",
"228 -88 OFFCURVE",
"222 -86 OFFCURVE",
"214 -86 CURVE SMOOTH",
"130 -86 LINE",
"130 708 LINE",
"214 708 LINE SMOOTH",
"222 708 OFFCURVE",
"228 710 OFFCURVE",
"232 714 CURVE SMOOTH",
"236 718 OFFCURVE",
"239 722 OFFCURVE",
"239 730 CURVE SMOOTH",
"239 766 LINE",
"55 766 LINE"
);
}
);
width = 260;
}
);
note = bracketleft;
unicode = 005B;
},
{
glyphname = backslash;
lastChange = "2017-11-28 23:39:02 +0000";
layers = (
{
layerId = "C81CB9C3-2214-4415-8D0B-901773012C9D";
paths = (
{
closed = 1;
nodes = (
"21 736 LINE",
"320 -10 LINE",
"324 -22 OFFCURVE",
"331 -30 OFFCURVE",
"341 -36 CURVE SMOOTH",
"351 -42 OFFCURVE",
"360 -44 OFFCURVE",
"370 -44 CURVE SMOOTH",
"407 -44 LINE",
"106 704 LINE SMOOTH",
"102 714 OFFCURVE",
"96 722 OFFCURVE",
"88 728 CURVE SMOOTH",
"80 734 OFFCURVE",
"71 736 OFFCURVE",
"60 736 CURVE SMOOTH"
);
}
);
width = 422;
}
);
note = backslash;
unicode = 005C;
},
{
glyphname = bracketright;
lastChange = "2017-11-28 23:39:02 +0000";
layers = (
{
layerId = "C81CB9C3-2214-4415-8D0B-901773012C9D";
paths = (
{
closed = 1;
nodes = (
"21 -110 LINE",
"21 -144 LINE",
"205 -144 LINE",
"205 766 LINE",
"21 766 LINE",
"21 732 LINE SMOOTH",
"21 726 OFFCURVE",
"24 719 OFFCURVE",
"28 715 CURVE SMOOTH",
"32 711 OFFCURVE",
"38 708 OFFCURVE",
"46 708 CURVE SMOOTH",
"130 708 LINE",
"130 -86 LINE",
"46 -86 LINE SMOOTH",
"38 -86 OFFCURVE",
"32 -88 OFFCURVE",
"28 -92 CURVE SMOOTH",
"24 -96 OFFCURVE",
"20 -103 OFFCURVE",
"20 -109 CURVE"
);
}
);
width = 259;
}
);
note = bracketright;
unicode = 005D;
},
{
glyphname = asciicircum;
lastChange = "2017-11-28 23:39:02 +0000";
layers = (
{
layerId = "C81CB9C3-2214-4415-8D0B-901773012C9D";
paths = (
{
closed = 1;
nodes = (
"207 716 LINE",
"28 394 LINE",
"96 394 LINE SMOOTH",
"102 394 OFFCURVE",
"108 394 OFFCURVE",
"112 398 CURVE SMOOTH",
"116 402 OFFCURVE",
"119 406 OFFCURVE",
"121 410 CURVE",
"218 586 LINE SMOOTH",
"226 600 OFFCURVE",
"232 616 OFFCURVE",
"236 630 CURVE",
"238 623 OFFCURVE",
"241 616 OFFCURVE",
"244 609 CURVE SMOOTH",
"247 602 OFFCURVE",
"251 595 OFFCURVE",
"255 587 CURVE",
"353 411 LINE",
"355 407 OFFCURVE",
"359 403 OFFCURVE",
"363 399 CURVE SMOOTH",
"367 395 OFFCURVE",
"372 394 OFFCURVE",
"378 394 CURVE SMOOTH",
"442 394 LINE",
"263 717 LINE"
);
}
);
width = 471;
}
);
note = asciicircum;
unicode = 005E;
},
{
glyphname = underscore;
lastChange = "2017-11-28 23:39:02 +0000";
layers = (
{
layerId = "C81CB9C3-2214-4415-8D0B-901773012C9D";
paths = (
{
closed = 1;
nodes = (
"453 -82 LINE",
"59 -82 LINE",
"59 -142 LINE",
"453 -142 LINE"
);
}
);
width = 513;
}
);
note = underscore;
unicode = 005F;
},
{
glyphname = grave;
lastChange = "2017-11-28 23:39:02 +0000";
layers = (
{
layerId = "C81CB9C3-2214-4415-8D0B-901773012C9D";
paths = (
{
closed = 1;
nodes = (
"36 724 LINE",
"154 596 LINE",
"158 591 OFFCURVE",
"163 587 OFFCURVE",
"167 585 CURVE SMOOTH",
"171 583 OFFCURVE",
"177 582 OFFCURVE",
"184 582 CURVE SMOOTH",
"235 582 LINE",
"160 703 LINE",
"156 711 OFFCURVE",
"152 716 OFFCURVE",
"146 720 CURVE SMOOTH",
"140 724 OFFCURVE",
"132 724 OFFCURVE",
"121 724 CURVE SMOOTH"
);
}
);
width = 271;
}
);
note = grave;
unicode = 0060;
},
{
glyphname = a;
lastChange = "2017-11-28 23:39:02 +0000";
layers = (
{
anchors = (
{
name = bottom;
position = "{257, 0}";
},
{
name = ogonek;
position = "{462, 10}";
},
{
name = top;
position = "{257, 506}";
}
);
layerId = "C81CB9C3-2214-4415-8D0B-901773012C9D";
paths = (
{
closed = 1;
nodes = (
"472 62 LINE",
"466 64 OFFCURVE",
"436 70 OFFCURVE",
"422 73 CURVE",
"422 326 LINE SMOOTH",
"422 354 OFFCURVE",
"419 380 OFFCURVE",
"411 404 CURVE SMOOTH",
"403 428 OFFCURVE",
"392 448 OFFCURVE",
"377 464 CURVE SMOOTH",
"362 480 OFFCURVE",
"344 492 OFFCURVE",
"322 502 CURVE SMOOTH",
"300 512 OFFCURVE",
"274 516 OFFCURVE",
"246 516 CURVE SMOOTH",
"206 516 OFFCURVE",
"170 510 OFFCURVE",
"138 496 CURVE SMOOTH",
"106 482 OFFCURVE",
"76 463 OFFCURVE",
"48 436 CURVE",
"64 408 LINE",
"66 404 OFFCURVE",
"70 399 OFFCURVE",
"74 396 CURVE SMOOTH",
"78 393 OFFCURVE",
"84 392 OFFCURVE",
"90 392 CURVE SMOOTH",
"98 392 OFFCURVE",
"105 394 OFFCURVE",
"113 400 CURVE SMOOTH",
"121 406 OFFCURVE",
"131 411 OFFCURVE",
"142 418 CURVE SMOOTH",
"153 425 OFFCURVE",
"165 430 OFFCURVE",
"180 436 CURVE SMOOTH",
"195 442 OFFCURVE",
"213 445 OFFCURVE",
"235 445 CURVE SMOOTH",
"268 445 OFFCURVE",
"293 434 OFFCURVE",
"310 414 CURVE SMOOTH",
"327 394 OFFCURVE",
"336 364 OFFCURVE",
"336 324 CURVE SMOOTH",
"336 285 LINE",
"278 285 OFFCURVE",
"230 281 OFFCURVE",
"190 272 CURVE SMOOTH",
"150 263 OFFCURVE",
"118 250 OFFCURVE",
"94 236 CURVE SMOOTH",
"70 222 OFFCURVE",
"51 204 OFFCURVE",
"40 186 CURVE SMOOTH",
"29 168 OFFCURVE",
"24 148 OFFCURVE",
"24 128 CURVE SMOOTH",
"24 105 OFFCURVE",
"27 85 OFFCURVE",
"35 68 CURVE SMOOTH",
"43 51 OFFCURVE",
"53 37 OFFCURVE",
"65 26 CURVE SMOOTH",
"77 15 OFFCURVE",
"93 8 OFFCURVE",
"110 2 CURVE SMOOTH",
"127 -4 OFFCURVE",
"144 -7 OFFCURVE",
"164 -7 CURVE SMOOTH",
"184 -7 OFFCURVE",
"202 -6 OFFCURVE",
"218 -2 CURVE SMOOTH",
"234 2 OFFCURVE",
"248 7 OFFCURVE",
"262 13 CURVE SMOOTH",
"276 19 OFFCURVE",
"290 27 OFFCURVE",
"302 37 CURVE SMOOTH",
"314 47 OFFCURVE",
"328 58 OFFCURVE",
"342 70 CURVE",
"352 22 LINE",
"354 14 OFFCURVE",
"356 8 OFFCURVE",
"362 6 CURVE SMOOTH",
"368 4 OFFCURVE",
"375 2 OFFCURVE",
"383 2 CURVE SMOOTH",
"415 2 LINE",
"422 2 LINE",
"487 2 LINE",
"487 45 LINE SMOOTH",
"487 54 OFFCURVE",
"481 62 OFFCURVE",
"472 64 CURVE"
);
},
{
closed = 1;
nodes = (
"334 124 LINE",
"324 114 OFFCURVE",
"314 104 OFFCURVE",
"304 96 CURVE SMOOTH",
"294 88 OFFCURVE",
"283 80 OFFCURVE",
"271 74 CURVE SMOOTH",
"259 68 OFFCURVE",
"247 64 OFFCURVE",
"234 61 CURVE SMOOTH",
"221 58 OFFCURVE",
"208 56 OFFCURVE",
"192 56 CURVE SMOOTH",
"180 56 OFFCURVE",
"169 58 OFFCURVE",
"159 61 CURVE SMOOTH",
"149 64 OFFCURVE",
"141 68 OFFCURVE",
"133 74 CURVE SMOOTH",
"125 80 OFFCURVE",
"119 88 OFFCURVE",
"115 98 CURVE SMOOTH",
"111 108 OFFCURVE",
"108 118 OFFCURVE",
"108 132 CURVE SMOOTH",
"108 146 OFFCURVE",
"112 158 OFFCURVE",
"120 170 CURVE SMOOTH",
"128 182 OFFCURVE",
"142 192 OFFCURVE",
"160 200 CURVE SMOOTH",
"178 208 OFFCURVE",
"202 216 OFFCURVE",
"230 221 CURVE SMOOTH",
"258 226 OFFCURVE",
"293 228 OFFCURVE",
"334 228 CURVE"
);
}
);
width = 513;
}
);
leftKerningGroup = a;
note = a;
unicode = 0061;
},
{
glyphname = b;
lastChange = "2017-11-28 23:39:02 +0000";
layers = (
{
anchors = (
{
name = bottom;
position = "{283, 0}";
},
{
name = top;
position = "{283, 506}";
}
);
layerId = "C81CB9C3-2214-4415-8D0B-901773012C9D";
paths = (
{
closed = 1;
nodes = (
"542 256 LINE",
"542 298 OFFCURVE",
"537 336 OFFCURVE",
"528 368 CURVE SMOOTH",
"519 400 OFFCURVE",
"506 426 OFFCURVE",
"490 448 CURVE SMOOTH",
"474 470 OFFCURVE",
"454 487 OFFCURVE",
"430 498 CURVE SMOOTH",
"406 509 OFFCURVE",
"380 514 OFFCURVE",
"350 514 CURVE SMOOTH",
"315 514 OFFCURVE",
"285 507 OFFCURVE",
"258 492 CURVE SMOOTH",
"231 477 OFFCURVE",
"207 457 OFFCURVE",
"186 433 CURVE",
"186 736 LINE",
"99 736 LINE",
"96 736 LINE",
"17 736 LINE",
"17 693 LINE SMOOTH",
"17 684 OFFCURVE",
"23 676 OFFCURVE",
"32 674 CURVE SMOOTH",
"40 672 OFFCURVE",
"84 666 OFFCURVE",
"96 664 CURVE",
"96 101 LINE",
"96 28 LINE",
"96 20 LINE",
"96 20 OFFCURVE",
"230 -8 OFFCURVE",
"320 -8 CURVE SMOOTH",
"352 -8 OFFCURVE",
"381 -2 OFFCURVE",
"408 10 CURVE SMOOTH",
"435 22 OFFCURVE",
"458 38 OFFCURVE",
"478 60 CURVE SMOOTH",
"498 82 OFFCURVE",
"514 110 OFFCURVE",
"526 142 CURVE SMOOTH",
"538 174 OFFCURVE",
"544 211 OFFCURVE",
"544 253 CURVE SMOOTH",
"544 254 LINE",
"544 256 LINE"
);
},
{
closed = 1;
nodes = (
"412 112 LINE",
"400 96 OFFCURVE",
"384 82 OFFCURVE",
"366 74 CURVE",
"350 66 OFFCURVE",
"332 63 OFFCURVE",
"312 62 CURVE",
"305 62 LINE",
"286 62 LINE",
"242 64 OFFCURVE",
"199 74 OFFCURVE",
"186 78 CURVE",
"186 122 LINE",
"186 248 LINE",
"186 367 LINE",
"204 391 OFFCURVE",
"224 410 OFFCURVE",
"246 424 CURVE SMOOTH",
"268 438 OFFCURVE",
"294 444 OFFCURVE",
"323 444 CURVE SMOOTH",
"343 444 OFFCURVE",
"362 441 OFFCURVE",
"378 434 CURVE SMOOTH",
"394 427 OFFCURVE",
"407 415 OFFCURVE",
"418 400 CURVE SMOOTH",
"429 385 OFFCURVE",
"438 366 OFFCURVE",
"444 342 CURVE SMOOTH",
"450 318 OFFCURVE",
"452 291 OFFCURVE",
"452 258 CURVE SMOOTH",
"452 250 LINE SMOOTH",
"452 222 OFFCURVE",
"448 196 OFFCURVE",
"442 174 CURVE SMOOTH",
"435 150 OFFCURVE",
"425 130 OFFCURVE",
"413 114 CURVE"
);
}
);
width = 565;
}
);
note = b;
rightKerningGroup = b;
unicode = 0062;
},
{
glyphname = c;
lastChange = "2017-11-28 23:39:02 +0000";
layers = (
{
anchors = (
{
name = bottom;
position = "{227, 0}";
},
{
name = top;
position = "{227, 506}";
}
);
layerId = "C81CB9C3-2214-4415-8D0B-901773012C9D";
paths = (
{
closed = 1;
nodes = (
"408 104 LINE",
"404 110 OFFCURVE",
"399 112 OFFCURVE",
"392 112 CURVE SMOOTH",
"385 112 OFFCURVE",
"378 110 OFFCURVE",
"372 104 CURVE",
"340 76 OFFCURVE",
"303 62 OFFCURVE",
"261 62 CURVE SMOOTH",
"215 62 OFFCURVE",
"180 79 OFFCURVE",
"154 112 CURVE SMOOTH",
"128 146 OFFCURVE",
"114 194 OFFCURVE",
"114 254 CURVE SMOOTH",
"114 314 OFFCURVE",
"126 360 OFFCURVE",
"152 394 CURVE SMOOTH",
"165 410 OFFCURVE",
"181 423 OFFCURVE",
"199 431 CURVE SMOOTH",
"217 439 OFFCURVE",
"236 444 OFFCURVE",
"254 444 CURVE SMOOTH",
"272 444 OFFCURVE",
"290 443 OFFCURVE",
"310 440 CURVE",
"318 438 OFFCURVE",
"330 436 OFFCURVE",
"346 431 CURVE",
"346 430 OFFCURVE",
"347 420 OFFCURVE",
"349 398 CURVE SMOOTH",
"351 376 OFFCURVE",
"352 364 OFFCURVE",
"353 360 CURVE",
"355 350 OFFCURVE",
"360 346 OFFCURVE",
"370 346 CURVE SMOOTH",
"410 346 LINE",
"410 478 LINE",
"348 502 OFFCURVE",
"298 514 OFFCURVE",
"260 514 CURVE SMOOTH",
"185 514 OFFCURVE",
"125 490 OFFCURVE",
"82 441 CURVE SMOOTH",
"41 393 OFFCURVE",
"21 332 OFFCURVE",
"21 254 CURVE SMOOTH",
"21 174 OFFCURVE",
"43 110 OFFCURVE",
"86 62 CURVE SMOOTH",
"127 16 OFFCURVE",
"179 -7 OFFCURVE",
"244 -7 CURVE SMOOTH",
"326 -7 OFFCURVE",
"390 19 OFFCURVE",
"432 71 CURVE"
);
}
);
width = 453;
}
);
leftKerningGroup = c;
note = c;
rightKerningGroup = c;
unicode = 0063;
},
{
glyphname = d;
lastChange = "2017-11-28 23:39:02 +0000";
layers = (
{
anchors = (
{
name = bottom;
position = "{282, 0}";
},
{
name = center;
position = "{282, 253}";
},
{
name = top;
position = "{282, 506}";
},
{
name = topright;
position = "{544, 506}";
}
);
layerId = "C81CB9C3-2214-4415-8D0B-901773012C9D";
paths = (
{
closed = 1;
nodes = (
"242 516 LINE",
"175 516 OFFCURVE",
"121 490 OFFCURVE",
"81 440 CURVE SMOOTH",
"42 392 OFFCURVE",
"22 328 OFFCURVE",
"22 252 CURVE SMOOTH",
"22 168 OFFCURVE",
"40 105 OFFCURVE",
"74 60 CURVE SMOOTH",
"108 16 OFFCURVE",
"154 -6 OFFCURVE",
"214 -6 CURVE SMOOTH",
"280 -6 OFFCURVE",
"336 22 OFFCURVE",
"384 80 CURVE",
"392 19 LINE",
"396 7 OFFCURVE",
"404 0 OFFCURVE",
"416 0 CURVE SMOOTH",
"540 0 LINE",
"540 44 LINE SMOOTH",
"540 54 OFFCURVE",
"536 60 OFFCURVE",
"526 62 CURVE",
"520 64 OFFCURVE",
"500 68 OFFCURVE",
"468 74 CURVE",
"468 738 LINE",
"298 738 LINE",
"298 694 LINE SMOOTH",
"298 684 OFFCURVE",
"303 678 OFFCURVE",
"313 676 CURVE SMOOTH",
"323 674 OFFCURVE",
"346 670 OFFCURVE",
"380 664 CURVE",
"380 456 LINE",
"344 496 OFFCURVE",
"297 516 OFFCURVE",
"241 516 CURVE"
);
},
{
closed = 1;
nodes = (
"243 66 LINE",
"223 66 OFFCURVE",
"204 69 OFFCURVE",
"188 76 CURVE SMOOTH",
"138 98 OFFCURVE",
"114 156 OFFCURVE",
"114 252 CURVE SMOOTH",
"114 314 OFFCURVE",
"126 362 OFFCURVE",
"152 396 CURVE SMOOTH",
"178 430 OFFCURVE",
"215 446 OFFCURVE",
"263 446 CURVE SMOOTH",
"311 446 OFFCURVE",
"350 426 OFFCURVE",
"380 386 CURVE",
"380 142 LINE",
"342 91 OFFCURVE",
"296 65 OFFCURVE",
"244 65 CURVE"
);
}
);
width = 564;
}
);
leftKerningGroup = c;
note = d;
unicode = 0064;
},
{
glyphname = e;
lastChange = "2017-11-28 23:39:02 +0000";
layers = (
{
anchors = (
{
name = bottom;
position = "{246, 0}";
},
{
name = ogonek;
position = "{443, 10}";
},
{
name = top;
position = "{246, 506}";
}
);
layerId = "C81CB9C3-2214-4415-8D0B-901773012C9D";
paths = (
{
closed = 1;
nodes = (
"258 514 LINE",
"222 514 OFFCURVE",
"189 508 OFFCURVE",
"159 495 CURVE SMOOTH",
"129 482 OFFCURVE",
"104 464 OFFCURVE",
"84 442 CURVE SMOOTH",
"64 420 OFFCURVE",
"48 392 OFFCURVE",
"37 362 CURVE SMOOTH",
"26 332 OFFCURVE",
"20 300 OFFCURVE",
"20 264 CURVE SMOOTH",
"20 220 OFFCURVE",
"26 182 OFFCURVE",
"38 148 CURVE SMOOTH",
"50 114 OFFCURVE",
"66 86 OFFCURVE",
"88 63 CURVE SMOOTH",
"110 40 OFFCURVE",
"135 22 OFFCURVE",
"165 10 CURVE SMOOTH",
"195 -2 OFFCURVE",
"227 -8 OFFCURVE",
"262 -8 CURVE SMOOTH",
"280 -8 OFFCURVE",
"299 -6 OFFCURVE",
"317 -3 CURVE SMOOTH",
"335 0 OFFCURVE",
"353 5 OFFCURVE",
"371 11 CURVE SMOOTH",
"389 17 OFFCURVE",
"404 26 OFFCURVE",
"420 36 CURVE SMOOTH",
"436 46 OFFCURVE",
"449 56 OFFCURVE",
"460 70 CURVE",
"435 103 LINE",
"431 109 OFFCURVE",
"426 112 OFFCURVE",
"418 112 CURVE SMOOTH",
"412 112 OFFCURVE",
"406 109 OFFCURVE",
"398 104 CURVE SMOOTH",
"390 99 OFFCURVE",
"380 94 OFFCURVE",
"368 88 CURVE SMOOTH",
"356 82 OFFCURVE",
"342 76 OFFCURVE",
"326 71 CURVE SMOOTH",
"310 66 OFFCURVE",
"290 64 OFFCURVE",
"268 64 CURVE SMOOTH",
"244 64 OFFCURVE",
"224 68 OFFCURVE",
"204 76 CURVE SMOOTH",
"184 84 OFFCURVE",
"168 96 OFFCURVE",
"154 112 CURVE SMOOTH",
"140 128 OFFCURVE",
"128 146 OFFCURVE",
"120 170 CURVE SMOOTH",
"112 194 OFFCURVE",
"108 222 OFFCURVE",
"108 254 CURVE",
"444 254 LINE SMOOTH",
"452 254 OFFCURVE",
"459 257 OFFCURVE",
"462 261 CURVE SMOOTH",
"465 265 OFFCURVE",
"466 275 OFFCURVE",
"466 289 CURVE SMOOTH",
"466 325 OFFCURVE",
"460 357 OFFCURVE",
"450 385 CURVE SMOOTH",
"440 413 OFFCURVE",
"424 437 OFFCURVE",
"406 456 CURVE SMOOTH",
"388 475 OFFCURVE",
"366 489 OFFCURVE",
"340 499 CURVE SMOOTH",
"314 509 OFFCURVE",
"286 514 OFFCURVE",
"256 514 CURVE"
);
},
{
closed = 1;
nodes = (
"258 448 LINE",
"278 448 OFFCURVE",
"297 445 OFFCURVE",
"313 438 CURVE SMOOTH",
"329 431 OFFCURVE",
"343 421 OFFCURVE",
"354 409 CURVE SMOOTH",
"365 397 OFFCURVE",
"372 381 OFFCURVE",
"378 364 CURVE SMOOTH",
"384 347 OFFCURVE",
"387 328 OFFCURVE",
"387 308 CURVE",
"112 308 LINE",
"118 352 OFFCURVE",
"134 387 OFFCURVE",
"158 412 CURVE SMOOTH",
"182 437 OFFCURVE",
"216 449 OFFCURVE",
"259 449 CURVE"
);
}
);
width = 492;
}
);
leftKerningGroup = c;
note = e;
rightKerningGroup = e;
unicode = 0065;
},
{
glyphname = f;
lastChange = "2017-11-28 23:39:02 +0000";
layers = (
{
anchors = (
{
name = bottom;
position = "{186, 0}";
},
{
name = top;
position = "{186, 506}";
}
);
layerId = "C81CB9C3-2214-4415-8D0B-901773012C9D";
paths = (
{
closed = 1;
nodes = (
"297 658 LINE",
"312 658 LINE SMOOTH",
"322 658 OFFCURVE",
"329 658 OFFCURVE",
"335 660 CURVE SMOOTH",
"341 662 OFFCURVE",
"344 666 OFFCURVE",
"344 672 CURVE",
"346 717 LINE",
"326 723 OFFCURVE",
"305 727 OFFCURVE",
"283 727 CURVE SMOOTH",
"229 727 OFFCURVE",
"187 712 OFFCURVE",
"156 680 CURVE SMOOTH",
"124 648 OFFCURVE",
"109 603 OFFCURVE",
"109 545 CURVE SMOOTH",
"109 496 LINE",
"29 496 LINE",
"29 460 LINE SMOOTH",
"29 448 OFFCURVE",
"37 441 OFFCURVE",
"53 437 CURVE",
"109 430 LINE",
"109 73 LINE",
"47 62 LINE SMOOTH",
"37 60 OFFCURVE",
"32 53 OFFCURVE",
"32 43 CURVE SMOOTH",
"32 0 LINE",
"280 0 LINE",
"280 43 LINE SMOOTH",
"280 53 OFFCURVE",
"275 60 OFFCURVE",
"265 62 CURVE SMOOTH",
"260 63 OFFCURVE",
"238 67 OFFCURVE",
"198 73 CURVE",
"198 432 LINE",
"342 432 LINE",
"342 496 LINE",
"196 496 LINE",
"196 543 LINE SMOOTH",
"196 620 OFFCURVE",
"230 658 OFFCURVE",
"298 658 CURVE"
);
}
);
width = 372;
}
);
note = f;
unicode = 0066;
},
{
glyphname = g;
lastChange = "2017-11-28 23:39:02 +0000";
layers = (
{
anchors = (
{
name = bottom;
position = "{254, 0}";
},
{
name = top;
position = "{254, 506}";
}
);
layerId = "C81CB9C3-2214-4415-8D0B-901773012C9D";
paths = (
{
closed = 1;
nodes = (
"231 515 LINE",
"203 515 OFFCURVE",
"178 512 OFFCURVE",
"154 504 CURVE SMOOTH",
"130 496 OFFCURVE",
"109 485 OFFCURVE",
"92 471 CURVE SMOOTH",
"75 457 OFFCURVE",
"62 440 OFFCURVE",
"52 420 CURVE SMOOTH",
"42 400 OFFCURVE",
"38 377 OFFCURVE",
"38 353 CURVE SMOOTH",
"38 322 OFFCURVE",
"45 295 OFFCURVE",
"59 272 CURVE SMOOTH",
"73 249 OFFCURVE",
"93 230 OFFCURVE",
"118 216 CURVE",
"108 210 OFFCURVE",
"98 205 OFFCURVE",
"90 198 CURVE SMOOTH",
"82 191 OFFCURVE",
"75 184 OFFCURVE",
"69 176 CURVE SMOOTH",
"63 168 OFFCURVE",
"59 160 OFFCURVE",
"57 152 CURVE SMOOTH",
"55 144 OFFCURVE",
"53 138 OFFCURVE",
"53 130 CURVE SMOOTH",
"53 112 OFFCURVE",
"58 96 OFFCURVE",
"66 85 CURVE SMOOTH",
"74 74 OFFCURVE",
"86 64 OFFCURVE",
"100 58 CURVE",
"72 48 OFFCURVE",
"50 34 OFFCURVE",
"34 16 CURVE SMOOTH",
"18 -2 OFFCURVE",
"10 -23 OFFCURVE",
"10 -48 CURVE SMOOTH",
"10 -66 OFFCURVE",
"15 -82 OFFCURVE",
"24 -98 CURVE SMOOTH",
"33 -114 OFFCURVE",
"47 -129 OFFCURVE",
"65 -141 CURVE SMOOTH",
"83 -153 OFFCURVE",
"106 -163 OFFCURVE",
"134 -171 CURVE SMOOTH",
"162 -179 OFFCURVE",
"195 -182 OFFCURVE",
"232 -182 CURVE SMOOTH",
"269 -182 OFFCURVE",
"302 -178 OFFCURVE",
"332 -168 CURVE SMOOTH",
"362 -158 OFFCURVE",
"386 -146 OFFCURVE",
"406 -130 CURVE SMOOTH",
"426 -114 OFFCURVE",
"443 -96 OFFCURVE",
"454 -76 CURVE SMOOTH",
"465 -56 OFFCURVE",
"470 -34 OFFCURVE",
"470 -12 CURVE SMOOTH",
"470 12 OFFCURVE",
"466 30 OFFCURVE",
"456 44 CURVE SMOOTH",
"446 58 OFFCURVE",
"433 71 OFFCURVE",
"417 79 CURVE SMOOTH",
"401 87 OFFCURVE",
"382 93 OFFCURVE",
"362 97 CURVE SMOOTH",
"342 101 OFFCURVE",
"321 102 OFFCURVE",
"300 104 CURVE SMOOTH",
"279 106 OFFCURVE",
"258 108 OFFCURVE",
"238 108 CURVE SMOOTH",
"218 108 OFFCURVE",
"199 110 OFFCURVE",
"183 112 CURVE SMOOTH",
"167 114 OFFCURVE",
"154 119 OFFCURVE",
"144 125 CURVE SMOOTH",
"134 131 OFFCURVE",
"130 140 OFFCURVE",
"130 152 CURVE SMOOTH",
"130 160 OFFCURVE",
"132 166 OFFCURVE",
"138 174 CURVE SMOOTH",
"144 182 OFFCURVE",
"152 190 OFFCURVE",
"162 196 CURVE",
"183 190 OFFCURVE",
"205 187 OFFCURVE",
"229 187 CURVE SMOOTH",
"257 187 OFFCURVE",
"282 190 OFFCURVE",
"305 198 CURVE SMOOTH",
"328 206 OFFCURVE",
"348 218 OFFCURVE",
"365 232 CURVE SMOOTH",
"382 246 OFFCURVE",
"394 263 OFFCURVE",
"404 283 CURVE SMOOTH",
"414 303 OFFCURVE",
"418 326 OFFCURVE",
"418 350 CURVE SMOOTH",
"418 376 OFFCURVE",
"414 400 OFFCURVE",
"402 422 CURVE",
"459 430 LINE",
"473 433 OFFCURVE",
"480 440 OFFCURVE",
"480 451 CURVE SMOOTH",
"480 484 LINE",
"342 484 LINE",
"326 494 OFFCURVE",
"309 501 OFFCURVE",
"290 506 CURVE SMOOTH",
"271 511 OFFCURVE",
"251 513 OFFCURVE",
"229 513 CURVE"
);
},
{
closed = 1;
nodes = (
"387 -30 LINE",
"387 -44 OFFCURVE",
"383 -55 OFFCURVE",
"376 -66 CURVE SMOOTH",
"369 -77 OFFCURVE",
"359 -86 OFFCURVE",
"346 -94 CURVE SMOOTH",
"333 -102 OFFCURVE",
"317 -109 OFFCURVE",
"298 -113 CURVE SMOOTH",
"279 -117 OFFCURVE",
"258 -120 OFFCURVE",
"234 -120 CURVE SMOOTH",
"210 -120 OFFCURVE",
"188 -118 OFFCURVE",
"170 -114 CURVE SMOOTH",
"152 -110 OFFCURVE",
"137 -104 OFFCURVE",
"125 -97 CURVE SMOOTH",
"113 -90 OFFCURVE",
"104 -82 OFFCURVE",
"98 -72 CURVE SMOOTH",
"92 -62 OFFCURVE",
"89 -52 OFFCURVE",
"89 -40 CURVE SMOOTH",
"89 -22 OFFCURVE",
"95 -6 OFFCURVE",
"107 7 CURVE SMOOTH",
"119 20 OFFCURVE",
"135 31 OFFCURVE",
"154 40 CURVE",
"170 38 OFFCURVE",
"187 35 OFFCURVE",
"205 34 CURVE SMOOTH",
"223 33 OFFCURVE",
"240 33 OFFCURVE",
"258 32 CURVE SMOOTH",
"276 31 OFFCURVE",
"292 29 OFFCURVE",
"308 27 CURVE SMOOTH",
"324 25 OFFCURVE",
"337 22 OFFCURVE",
"349 18 CURVE SMOOTH",
"361 14 OFFCURVE",
"371 8 OFFCURVE",
"378 0 CURVE SMOOTH",
"385 -8 OFFCURVE",
"388 -18 OFFCURVE",
"388 -30 CURVE"
);
},
{
closed = 1;
nodes = (
"230 246 LINE",
"212 246 OFFCURVE",
"198 248 OFFCURVE",
"184 253 CURVE SMOOTH",
"170 258 OFFCURVE",
"159 265 OFFCURVE",
"149 274 CURVE SMOOTH",
"139 283 OFFCURVE",
"133 294 OFFCURVE",
"128 306 CURVE SMOOTH",
"123 318 OFFCURVE",
"120 332 OFFCURVE",
"120 347 CURVE SMOOTH",
"120 378 OFFCURVE",
"129 403 OFFCURVE",
"148 421 CURVE SMOOTH",
"167 439 OFFCURVE",
"194 448 OFFCURVE",
"230 448 CURVE SMOOTH",
"266 448 OFFCURVE",
"293 439 OFFCURVE",
"312 421 CURVE SMOOTH",
"331 403 OFFCURVE",
"341 378 OFFCURVE",
"341 347 CURVE SMOOTH",
"341 332 OFFCURVE",
"338 318 OFFCURVE",
"334 306 CURVE SMOOTH",
"330 294 OFFCURVE",
"323 282 OFFCURVE",
"313 273 CURVE SMOOTH",
"303 264 OFFCURVE",
"292 257 OFFCURVE",
"278 252 CURVE SMOOTH",
"264 247 OFFCURVE",
"248 244 OFFCURVE",
"230 244 CURVE"
);
}
);
width = 507;
}
);
leftKerningGroup = c;
note = g;
rightKerningGroup = g;
unicode = 0067;
},
{
glyphname = h;
lastChange = "2017-11-28 23:39:02 +0000";
layers = (
{
anchors = (
{
name = bottom;
position = "{313, 0}";
},
{
name = center;
position = "{313, 253}";
},
{
name = top;
position = "{313, 506}";
}
);
layerId = "C81CB9C3-2214-4415-8D0B-901773012C9D";
paths = (
{
closed = 1;
nodes = (
"196 736 LINE",
"24 736 LINE",
"24 694 LINE SMOOTH",
"24 684 OFFCURVE",
"30 677 OFFCURVE",
"40 675 CURVE",
"46 673 OFFCURVE",
"68 669 OFFCURVE",
"106 663 CURVE",
"106 72 LINE",
"50 61 LINE SMOOTH",
"40 59 OFFCURVE",
"34 52 OFFCURVE",
"34 42 CURVE SMOOTH",
"34 0 LINE",
"268 0 LINE",
"268 42 LINE SMOOTH",
"268 52 OFFCURVE",
"262 59 OFFCURVE",
"252 61 CURVE",
"248 62 OFFCURVE",
"234 65 OFFCURVE",
"208 70 CURVE SMOOTH",
"196 72 LINE",
"196 372 LINE",
"238 419 OFFCURVE",
"282 443 OFFCURVE",
"332 443 CURVE SMOOTH",
"403 443 OFFCURVE",
"439 402 OFFCURVE",
"439 322 CURVE SMOOTH",
"439 0 LINE",
"600 0 LINE",
"600 42 LINE SMOOTH",
"600 52 OFFCURVE",
"595 59 OFFCURVE",
"585 61 CURVE",
"579 63 OFFCURVE",
"560 67 OFFCURVE",
"528 73 CURVE",
"528 322 LINE SMOOTH",
"528 380 OFFCURVE",
"513 428 OFFCURVE",
"484 462 CURVE SMOOTH",
"454 497 OFFCURVE",
"412 514 OFFCURVE",
"358 514 CURVE SMOOTH",
"297 514 OFFCURVE",
"244 488 OFFCURVE",
"196 438 CURVE"
);
}
);
width = 625;
}
);
note = h;
unicode = 0068;
},
{
glyphname = i;
lastChange = "2017-11-28 23:39:02 +0000";
layers = (
{
anchors = (
{
name = bottom;
position = "{145, 0}";
}
);
layerId = "C81CB9C3-2214-4415-8D0B-901773012C9D";
paths = (
{
closed = 1;
nodes = (
"110 615 OFFCURVE",
"116 611 OFFCURVE",
"124 607 CURVE SMOOTH",
"132 603 OFFCURVE",
"140 602 OFFCURVE",
"148 602 CURVE SMOOTH",
"156 602 OFFCURVE",
"164 603 OFFCURVE",
"172 607 CURVE SMOOTH",
"180 611 OFFCURVE",
"186 615 OFFCURVE",
"192 621 CURVE SMOOTH",
"198 627 OFFCURVE",
"202 633 OFFCURVE",
"206 641 CURVE SMOOTH",
"210 649 OFFCURVE",
"212 657 OFFCURVE",
"212 665 CURVE SMOOTH",
"212 673 OFFCURVE",
"210 682 OFFCURVE",
"206 690 CURVE SMOOTH",
"202 698 OFFCURVE",
"198 705 OFFCURVE",
"192 711 CURVE SMOOTH",
"186 717 OFFCURVE",
"180 721 OFFCURVE",
"172 725 CURVE SMOOTH",
"164 729 OFFCURVE",
"156 730 OFFCURVE",
"148 730 CURVE SMOOTH",
"140 730 OFFCURVE",
"132 729 OFFCURVE",
"124 725 CURVE SMOOTH",
"116 721 OFFCURVE",
"110 717 OFFCURVE",
"104 711 CURVE SMOOTH",
"98 705 OFFCURVE",
"94 698 OFFCURVE",
"90 690 CURVE SMOOTH",
"86 682 OFFCURVE",
"85 673 OFFCURVE",
"85 665 CURVE SMOOTH",
"85 657 OFFCURVE",
"86 649 OFFCURVE",
"90 641 CURVE SMOOTH",
"94 633 OFFCURVE",
"98 627 OFFCURVE",
"104 621 CURVE SMOOTH"
);
},
{
closed = 1;
nodes = (
"240 64 OFFCURVE",
"192 73 OFFCURVE",
"192 73 CURVE",
"192 506 LINE",
"31 506 LINE",
"31 464 LINE SMOOTH",
"31 455 OFFCURVE",
"37 447 OFFCURVE",
"46 445 CURVE SMOOTH",
"55 443 OFFCURVE",
"104 434 OFFCURVE",
"104 434 CURVE",
"104 73 LINE",
"104 73 OFFCURVE",
"55 64 OFFCURVE",
"46 62 CURVE SMOOTH",
"37 60 OFFCURVE",
"31 52 OFFCURVE",
"31 43 CURVE SMOOTH",
"31 0 LINE",
"264 0 LINE",
"264 43 LINE SMOOTH",
"264 52 OFFCURVE",
"258 60 OFFCURVE",
"249 62 CURVE SMOOTH"
);
}
);
width = 289;
}
);
note = i;
unicode = 0069;
},
{
glyphname = j;
lastChange = "2017-11-28 23:39:02 +0000";
layers = (
{
layerId = "C81CB9C3-2214-4415-8D0B-901773012C9D";
paths = (
{
closed = 1;
nodes = (
"216 698 OFFCURVE",
"212 705 OFFCURVE",
"206 711 CURVE SMOOTH",
"200 717 OFFCURVE",
"194 721 OFFCURVE",
"186 725 CURVE SMOOTH",
"178 729 OFFCURVE",
"170 730 OFFCURVE",
"162 730 CURVE SMOOTH",
"154 730 OFFCURVE",
"146 729 OFFCURVE",
"138 725 CURVE SMOOTH",
"130 721 OFFCURVE",
"124 717 OFFCURVE",
"118 711 CURVE SMOOTH",
"112 705 OFFCURVE",
"108 698 OFFCURVE",
"104 690 CURVE SMOOTH",
"100 682 OFFCURVE",
"99 673 OFFCURVE",
"99 665 CURVE SMOOTH",
"99 657 OFFCURVE",
"100 649 OFFCURVE",
"104 641 CURVE SMOOTH",
"108 633 OFFCURVE",
"112 627 OFFCURVE",
"118 621 CURVE SMOOTH",
"124 615 OFFCURVE",
"130 611 OFFCURVE",
"138 607 CURVE SMOOTH",
"146 603 OFFCURVE",
"154 602 OFFCURVE",
"162 602 CURVE SMOOTH",
"170 602 OFFCURVE",
"178 603 OFFCURVE",
"186 607 CURVE SMOOTH",
"194 611 OFFCURVE",
"200 615 OFFCURVE",
"206 621 CURVE SMOOTH",
"212 627 OFFCURVE",
"216 633 OFFCURVE",
"220 641 CURVE SMOOTH",
"224 649 OFFCURVE",
"225 657 OFFCURVE",
"225 665 CURVE SMOOTH",
"225 673 OFFCURVE",
"224 682 OFFCURVE",
"220 690 CURVE SMOOTH"
);
},
{
closed = 1;
nodes = (
"127 -172 LINE",
"179 -150 OFFCURVE",
"204 -106 OFFCURVE",
"204 -38 CURVE SMOOTH",
"204 506 LINE",
"116 506 LINE",
"44 506 LINE",
"44 463 LINE SMOOTH",
"44 453 OFFCURVE",
"48 446 OFFCURVE",
"58 444 CURVE SMOOTH",
"86 438 OFFCURVE",
"106 435 OFFCURVE",
"116 433 CURVE",
"116 -38 LINE SMOOTH",
"116 -65 OFFCURVE",
"110 -84 OFFCURVE",
"99 -96 CURVE SMOOTH",
"88 -108 OFFCURVE",
"70 -114 OFFCURVE",
"44 -114 CURVE SMOOTH",
"24 -114 LINE SMOOTH",
"14 -114 OFFCURVE",
"9 -118 OFFCURVE",
"8 -124 CURVE",
"4 -172 LINE",
"22 -178 OFFCURVE",
"44 -182 OFFCURVE",
"66 -182 CURVE SMOOTH",
"88 -182 OFFCURVE",
"109 -179 OFFCURVE",
"127 -171 CURVE"
);
}
);
width = 258;
}
);
leftKerningGroup = j;
note = j;
unicode = 006A;
},
{
glyphname = k;
lastChange = "2017-11-28 23:39:02 +0000";
layers = (
{
anchors = (
{
name = bottom;
position = "{289, 0}";
},
{
name = top;
position = "{289, 506}";
}
);
layerId = "C81CB9C3-2214-4415-8D0B-901773012C9D";
paths = (
{
closed = 1;
nodes = (
"536 62 LINE",
"532 62 OFFCURVE",
"521 64 OFFCURVE",
"504 68 CURVE",
"478 72 LINE",
"338 250 LINE",
"330 264 OFFCURVE",
"320 273 OFFCURVE",
"308 281 CURVE",
"318 287 OFFCURVE",
"327 296 OFFCURVE",
"337 308 CURVE",
"455 434 LINE",
"488 440 OFFCURVE",
"509 444 OFFCURVE",
"517 446 CURVE SMOOTH",
"525 448 OFFCURVE",
"530 454 OFFCURVE",
"530 464 CURVE SMOOTH",
"530 506 LINE",
"524 506 LINE",
"442 506 LINE",
"318 506 LINE",
"318 464 LINE SMOOTH",
"318 454 OFFCURVE",
"324 447 OFFCURVE",
"334 445 CURVE",
"338 444 OFFCURVE",
"342 444 OFFCURVE",
"350 442 CURVE",
"354 442 OFFCURVE",
"358 440 OFFCURVE",
"362 440 CURVE",
"248 318 LINE",
"240 308 OFFCURVE",
"228 304 OFFCURVE",
"216 304 CURVE SMOOTH",
"194 304 LINE",
"194 737 LINE",
"104 737 LINE",
"32 737 LINE",
"32 694 LINE SMOOTH",
"32 684 OFFCURVE",
"37 678 OFFCURVE",
"47 676 CURVE",
"53 674 OFFCURVE",
"72 670 OFFCURVE",
"104 664 CURVE",
"104 73 LINE",
"47 62 LINE SMOOTH",
"37 60 OFFCURVE",
"32 53 OFFCURVE",
"32 43 CURVE SMOOTH",
"32 0 LINE",
"266 0 LINE",
"266 43 LINE SMOOTH",
"266 53 OFFCURVE",
"260 60 OFFCURVE",
"250 62 CURVE SMOOTH",
"216 69 OFFCURVE",
"198 73 OFFCURVE",
"194 73 CURVE",
"194 242 LINE",
"218 242 LINE SMOOTH",
"228 242 OFFCURVE",
"236 241 OFFCURVE",
"241 239 CURVE SMOOTH",
"246 237 OFFCURVE",
"251 233 OFFCURVE",
"256 226 CURVE",
"422 18 LINE SMOOTH",
"432 6 OFFCURVE",
"443 0 OFFCURVE",
"456 0 CURVE SMOOTH",
"550 0 LINE",
"550 44 LINE SMOOTH",
"550 54 OFFCURVE",
"545 60 OFFCURVE",
"535 62 CURVE"
);
}
);
width = 578;
}
);
leftKerningGroup = k;
note = k;
rightKerningGroup = k;
unicode = 006B;
},
{
glyphname = l;
lastChange = "2017-11-28 23:39:02 +0000";
layers = (
{
anchors = (
{
name = bottom;
position = "{145, 0}";
},
{
name = center;
position = "{145, 253}";
},
{
name = top;
position = "{145, 506}";
},
{
name = topright;
position = "{270, 506}";
}
);
layerId = "C81CB9C3-2214-4415-8D0B-901773012C9D";
paths = (
{
closed = 1;
nodes = (
"244 64 OFFCURVE",
"226 68 OFFCURVE",
"194 74 CURVE",
"194 737 LINE",
"32 737 LINE",
"32 694 LINE SMOOTH",
"32 684 OFFCURVE",
"38 678 OFFCURVE",
"48 676 CURVE",
"54 674 OFFCURVE",
"72 670 OFFCURVE",
"104 664 CURVE",
"104 73 LINE",
"48 62 LINE SMOOTH",
"38 60 OFFCURVE",
"32 53 OFFCURVE",
"32 43 CURVE SMOOTH",
"32 0 LINE",
"266 0 LINE",
"266 43 LINE SMOOTH",
"266 53 OFFCURVE",
"260 60 OFFCURVE",
"250 62 CURVE"
);
}
);
width = 290;
}
);
note = l;
unicode = 006C;
},
{
glyphname = m;
lastChange = "2017-11-28 23:39:02 +0000";
layers = (
{
anchors = (
{
name = bottom;
position = "{445, 0}";
},
{
name = top;
position = "{445, 506}";
}
);
layerId = "C81CB9C3-2214-4415-8D0B-901773012C9D";
paths = (
{
closed = 1;
nodes = (
"189 436 LINE",
"182 488 LINE",
"178 500 OFFCURVE",
"170 506 OFFCURVE",
"158 506 CURVE SMOOTH",
"106 506 LINE",
"34 506 LINE",
"34 464 LINE SMOOTH",
"34 454 OFFCURVE",
"38 447 OFFCURVE",
"48 445 CURVE",
"54 443 OFFCURVE",
"74 439 OFFCURVE",
"106 433 CURVE",
"106 72 LINE",
"48 61 LINE SMOOTH",
"38 59 OFFCURVE",
"34 52 OFFCURVE",
"34 42 CURVE SMOOTH",
"34 0 LINE",
"267 0 LINE",
"267 42 LINE SMOOTH",
"267 52 OFFCURVE",
"262 59 OFFCURVE",
"252 61 CURVE",
"250 61 OFFCURVE",
"240 63 OFFCURVE",
"222 67 CURVE",
"195 72 LINE",
"195 376 LINE",
"229 420 OFFCURVE",
"266 442 OFFCURVE",
"308 442 CURVE SMOOTH",
"372 442 OFFCURVE",
"404 402 OFFCURVE",
"404 322 CURVE SMOOTH",
"404 -1 LINE",
"565 -1 LINE",
"565 42 LINE SMOOTH",
"565 52 OFFCURVE",
"560 58 OFFCURVE",
"550 60 CURVE SMOOTH",
"518 66 OFFCURVE",
"499 71 OFFCURVE",
"493 72 CURVE",
"493 322 LINE SMOOTH",
"493 360 OFFCURVE",
"504 390 OFFCURVE",
"526 412 CURVE SMOOTH",
"546 432 OFFCURVE",
"572 442 OFFCURVE",
"602 442 CURVE SMOOTH",
"635 442 OFFCURVE",
"660 431 OFFCURVE",
"678 411 CURVE SMOOTH",
"696 391 OFFCURVE",
"704 361 OFFCURVE",
"704 321 CURVE SMOOTH",
"704 -2 LINE",
"865 -2 LINE",
"865 42 LINE SMOOTH",
"865 52 OFFCURVE",
"860 58 OFFCURVE",
"850 60 CURVE",
"844 62 OFFCURVE",
"824 66 OFFCURVE",
"792 72 CURVE",
"792 322 LINE SMOOTH",
"792 383 OFFCURVE",
"778 430 OFFCURVE",
"748 464 CURVE SMOOTH",
"734 480 OFFCURVE",
"715 493 OFFCURVE",
"694 501 CURVE SMOOTH",
"673 509 OFFCURVE",
"647 514 OFFCURVE",
"616 514 CURVE SMOOTH",
"585 514 OFFCURVE",
"556 504 OFFCURVE",
"528 488 CURVE SMOOTH",
"497 470 OFFCURVE",
"476 443 OFFCURVE",
"462 408 CURVE",
"452 440 OFFCURVE",
"437 466 OFFCURVE",
"416 485 CURVE SMOOTH",
"395 504 OFFCURVE",
"366 514 OFFCURVE",
"332 514 CURVE SMOOTH",
"279 514 OFFCURVE",
"231 487 OFFCURVE",
"189 435 CURVE"
);
}
);
width = 890;
}
);
leftKerningGroup = k;
note = m;
unicode = 006D;
},
{
glyphname = n;
lastChange = "2017-11-28 23:39:02 +0000";
layers = (
{
anchors = (
{
name = bottom;
position = "{313, 0}";
},
{
name = top;
position = "{313, 506}";
}
);
layerId = "C81CB9C3-2214-4415-8D0B-901773012C9D";
paths = (
{
closed = 1;
nodes = (
"190 433 LINE",
"182 488 LINE",
"178 500 OFFCURVE",
"170 506 OFFCURVE",
"158 506 CURVE SMOOTH",
"106 506 LINE",
"34 506 LINE",
"34 464 LINE SMOOTH",
"34 454 OFFCURVE",
"38 447 OFFCURVE",
"48 445 CURVE",
"54 443 OFFCURVE",
"74 439 OFFCURVE",
"106 433 CURVE",
"106 72 LINE",
"48 61 LINE SMOOTH",
"38 59 OFFCURVE",
"34 52 OFFCURVE",
"34 42 CURVE SMOOTH",
"34 0 LINE",
"267 0 LINE",
"267 42 LINE SMOOTH",
"267 52 OFFCURVE",
"262 59 OFFCURVE",
"252 61 CURVE SMOOTH",
"216 69 OFFCURVE",
"196 73 OFFCURVE",
"194 73 CURVE",
"194 373 LINE",
"236 420 OFFCURVE",
"282 444 OFFCURVE",
"332 444 CURVE SMOOTH",
"403 444 OFFCURVE",
"438 402 OFFCURVE",
"438 322 CURVE SMOOTH",
"438 0 LINE",
"600 0 LINE",
"600 43 LINE SMOOTH",
"600 53 OFFCURVE",
"594 60 OFFCURVE",
"584 62 CURVE",
"578 64 OFFCURVE",
"559 68 OFFCURVE",
"527 74 CURVE",
"527 323 LINE SMOOTH",
"527 381 OFFCURVE",
"512 428 OFFCURVE",
"484 462 CURVE SMOOTH",
"454 498 OFFCURVE",
"412 515 OFFCURVE",
"358 515 CURVE SMOOTH",
"296 515 OFFCURVE",
"240 488 OFFCURVE",
"190 434 CURVE"
);
}
);
width = 625;
}
);
leftKerningGroup = k;
note = n;
unicode = 006E;
},
{
glyphname = o;
lastChange = "2017-11-28 23:39:02 +0000";
layers = (
{
anchors = (
{
name = bottom;
position = "{264, 0}";
},
{
name = center;
position = "{264, 253}";
},
{
name = ogonek;
position = "{475, 10}";
},
{
name = top;
position = "{264, 506}";
},
{
name = topright;
position = "{508, 506}";
}
);
layerId = "C81CB9C3-2214-4415-8D0B-901773012C9D";
paths = (
{
closed = 1;
nodes = (
"227 514 OFFCURVE",
"194 508 OFFCURVE",
"164 496 CURVE SMOOTH",
"134 484 OFFCURVE",
"108 466 OFFCURVE",
"87 444 CURVE SMOOTH",
"66 422 OFFCURVE",
"50 394 OFFCURVE",
"38 362 CURVE SMOOTH",
"26 330 OFFCURVE",
"22 294 OFFCURVE",
"22 254 CURVE SMOOTH",
"22 214 OFFCURVE",
"26 178 OFFCURVE",
"38 146 CURVE SMOOTH",
"50 114 OFFCURVE",
"66 86 OFFCURVE",
"87 64 CURVE SMOOTH",
"108 42 OFFCURVE",
"134 24 OFFCURVE",
"164 12 CURVE SMOOTH",
"194 0 OFFCURVE",
"227 -6 OFFCURVE",
"264 -6 CURVE SMOOTH",
"301 -6 OFFCURVE",
"334 0 OFFCURVE",
"364 12 CURVE SMOOTH",
"394 24 OFFCURVE",
"420 42 OFFCURVE",
"441 64 CURVE SMOOTH",
"462 86 OFFCURVE",
"478 114 OFFCURVE",
"489 146 CURVE SMOOTH",
"500 178 OFFCURVE",
"506 214 OFFCURVE",
"506 254 CURVE SMOOTH",
"506 294 OFFCURVE",
"500 330 OFFCURVE",
"489 362 CURVE SMOOTH",
"478 394 OFFCURVE",
"462 422 OFFCURVE",
"441 444 CURVE SMOOTH",
"420 466 OFFCURVE",
"394 484 OFFCURVE",
"364 496 CURVE SMOOTH",
"334 508 OFFCURVE",
"301 514 OFFCURVE",
"264 514 CURVE SMOOTH"
);
},
{
closed = 1;
nodes = (
"238 62 OFFCURVE",
"216 68 OFFCURVE",
"198 76 CURVE SMOOTH",
"180 84 OFFCURVE",
"164 96 OFFCURVE",
"152 112 CURVE SMOOTH",
"140 128 OFFCURVE",
"130 148 OFFCURVE",
"124 172 CURVE SMOOTH",
"118 196 OFFCURVE",
"114 222 OFFCURVE",
"114 252 CURVE SMOOTH",
"114 282 OFFCURVE",
"118 310 OFFCURVE",
"124 334 CURVE SMOOTH",
"130 358 OFFCURVE",
"140 378 OFFCURVE",
"152 394 CURVE SMOOTH",
"164 410 OFFCURVE",
"180 424 OFFCURVE",
"198 432 CURVE SMOOTH",
"216 440 OFFCURVE",
"238 444 OFFCURVE",
"264 444 CURVE SMOOTH",
"314 444 OFFCURVE",
"352 428 OFFCURVE",
"376 394 CURVE SMOOTH",
"400 360 OFFCURVE",
"413 313 OFFCURVE",
"413 253 CURVE SMOOTH",
"413 193 OFFCURVE",
"400 146 OFFCURVE",
"376 112 CURVE SMOOTH",
"352 78 OFFCURVE",
"314 62 OFFCURVE",
"264 62 CURVE SMOOTH"
);
}
);
width = 528;
}
);
leftKerningGroup = c;
note = o;
rightKerningGroup = b;
unicode = 006F;
},
{
glyphname = p;
lastChange = "2017-11-28 23:39:02 +0000";
layers = (
{
anchors = (
{
name = bottom;
position = "{278, 0}";
},
{
name = top;
position = "{278, 506}";
}
);
layerId = "C81CB9C3-2214-4415-8D0B-901773012C9D";
paths = (
{
closed = 1;
nodes = (
"171 428 LINE",
"164 488 LINE",
"160 500 OFFCURVE",
"152 506 OFFCURVE",
"140 506 CURVE SMOOTH",
"86 506 LINE",
"14 506 LINE",
"14 464 LINE SMOOTH",
"14 454 OFFCURVE",
"20 447 OFFCURVE",
"30 445 CURVE",
"36 443 OFFCURVE",
"54 439 OFFCURVE",
"86 433 CURVE",
"86 -99 LINE",
"30 -110 LINE SMOOTH",
"20 -112 OFFCURVE",
"14 -119 OFFCURVE",
"14 -129 CURVE SMOOTH",
"14 -172 LINE",
"248 -172 LINE",
"248 -129 LINE SMOOTH",
"248 -119 OFFCURVE",
"242 -112 OFFCURVE",
"232 -110 CURVE",
"230 -110 OFFCURVE",
"220 -108 OFFCURVE",
"203 -104 CURVE SMOOTH",
"186 -100 OFFCURVE",
"177 -98 OFFCURVE",
"176 -98 CURVE",
"176 52 LINE",
"212 12 OFFCURVE",
"260 -7 OFFCURVE",
"322 -7 CURVE SMOOTH",
"384 -7 OFFCURVE",
"436 19 OFFCURVE",
"476 69 CURVE SMOOTH",
"514 117 OFFCURVE",
"534 180 OFFCURVE",
"534 256 CURVE SMOOTH",
"534 339 OFFCURVE",
"516 404 OFFCURVE",
"482 450 CURVE SMOOTH",
"448 494 OFFCURVE",
"402 516 OFFCURVE",
"342 516 CURVE SMOOTH",
"276 516 OFFCURVE",
"220 486 OFFCURVE",
"172 428 CURVE"
);
},
{
closed = 1;
nodes = (
"176 367 LINE",
"214 418 OFFCURVE",
"260 444 OFFCURVE",
"312 444 CURVE SMOOTH",
"398 444 OFFCURVE",
"442 380 OFFCURVE",
"442 256 CURVE SMOOTH",
"442 194 OFFCURVE",
"430 146 OFFCURVE",
"404 112 CURVE SMOOTH",
"378 78 OFFCURVE",
"340 62 OFFCURVE",
"292 62 CURVE SMOOTH",
"244 62 OFFCURVE",
"206 82 OFFCURVE",
"176 122 CURVE"
);
}
);
width = 556;
}
);
note = p;
rightKerningGroup = b;
unicode = 0070;
},
{
glyphname = q;
lastChange = "2017-11-28 23:39:02 +0000";
layers = (
{
anchors = (
{
name = bottom;
position = "{278, 0}";
},
{
name = top;
position = "{278, 506}";
}
);
layerId = "C81CB9C3-2214-4415-8D0B-901773012C9D";
paths = (
{
closed = 1;
nodes = (
"381 75 LINE",
"381 -98 LINE",
"343 -104 OFFCURVE",
"320 -108 OFFCURVE",
"312 -110 CURVE SMOOTH",
"304 -112 OFFCURVE",
"299 -118 OFFCURVE",
"299 -128 CURVE SMOOTH",
"299 -171 LINE",
"550 -171 LINE",
"550 -128 LINE SMOOTH",
"550 -118 OFFCURVE",
"544 -112 OFFCURVE",
"534 -110 CURVE",
"528 -108 OFFCURVE",
"508 -104 OFFCURVE",
"470 -98 CURVE",
"470 487 LINE",
"434 494 LINE SMOOTH",
"362 508 OFFCURVE",
"300 515 OFFCURVE",
"246 515 CURVE SMOOTH",
"181 515 OFFCURVE",
"129 493 OFFCURVE",
"88 447 CURVE SMOOTH",
"45 399 OFFCURVE",
"23 336 OFFCURVE",
"23 254 CURVE SMOOTH",
"23 252 LINE SMOOTH",
"23 170 OFFCURVE",
"41 106 OFFCURVE",
"75 60 CURVE SMOOTH",
"109 16 OFFCURVE",
"155 -6 OFFCURVE",
"215 -6 CURVE SMOOTH",
"279 -6 OFFCURVE",
"334 21 OFFCURVE",
"380 75 CURVE"
);
},
{
closed = 1;
nodes = (
"158 65 OFFCURVE",
"114 128 OFFCURVE",
"114 252 CURVE SMOOTH",
"114 278 LINE SMOOTH",
"114 294 OFFCURVE",
"118 315 OFFCURVE",
"124 337 CURVE SMOOTH",
"144 407 OFFCURVE",
"189 444 OFFCURVE",
"255 446 CURVE SMOOTH",
"261 446 LINE SMOOTH",
"297 446 OFFCURVE",
"336 441 OFFCURVE",
"380 430 CURVE",
"380 142 LINE",
"342 91 OFFCURVE",
"296 65 OFFCURVE",
"244 65 CURVE SMOOTH"
);
}
);
width = 555;
}
);
leftKerningGroup = c;
note = q;
rightKerningGroup = q;
unicode = 0071;
},
{
glyphname = r;
lastChange = "2017-11-28 23:39:02 +0000";
layers = (
{
anchors = (
{
name = bottom;
position = "{216, 0}";
},
{
name = top;
position = "{216, 506}";
}
);
layerId = "C81CB9C3-2214-4415-8D0B-901773012C9D";
paths = (
{
closed = 1;
nodes = (
"190 403 LINE",
"184 482 LINE",
"182 491 OFFCURVE",
"180 497 OFFCURVE",
"176 501 CURVE SMOOTH",
"172 505 OFFCURVE",
"167 506 OFFCURVE",
"157 506 CURVE SMOOTH",
"106 506 LINE",
"34 506 LINE",
"34 464 LINE SMOOTH",
"34 454 OFFCURVE",
"39 447 OFFCURVE",
"49 445 CURVE",
"55 443 OFFCURVE",
"74 439 OFFCURVE",
"106 433 CURVE",
"106 72 LINE",
"49 61 LINE SMOOTH",
"39 59 OFFCURVE",
"34 52 OFFCURVE",
"34 42 CURVE SMOOTH",
"34 0 LINE",
"267 0 LINE",
"267 42 LINE SMOOTH",
"267 52 OFFCURVE",
"262 59 OFFCURVE",
"252 61 CURVE SMOOTH",
"222 67 OFFCURVE",
"203 70 OFFCURVE",
"195 72 CURVE",
"195 322 LINE",
"223 392 OFFCURVE",
"267 428 OFFCURVE",
"325 428 CURVE SMOOTH",
"343 428 OFFCURVE",
"356 426 OFFCURVE",
"366 423 CURVE SMOOTH",
"376 420 OFFCURVE",
"384 418 OFFCURVE",
"390 418 CURVE SMOOTH",
"396 418 OFFCURVE",
"401 423 OFFCURVE",
"403 431 CURVE",
"414 498 LINE",
"394 510 OFFCURVE",
"371 516 OFFCURVE",
"345 516 CURVE SMOOTH",
"279 516 OFFCURVE",
"228 478 OFFCURVE",
"191 403 CURVE"
);
}
);
width = 432;
}
);
leftKerningGroup = k;
note = r;
rightKerningGroup = r;
unicode = 0072;
},
{
glyphname = s;
lastChange = "2017-11-28 23:39:02 +0000";
layers = (
{
anchors = (
{
name = bottom;
position = "{205, 0}";
},
{
name = top;
position = "{205, 506}";
}
);
layerId = "C81CB9C3-2214-4415-8D0B-901773012C9D";
paths = (
{
closed = 1;
nodes = (
"232 514 LINE",
"170 514 OFFCURVE",
"124 500 OFFCURVE",
"90 470 CURVE SMOOTH",
"58 442 OFFCURVE",
"42 409 OFFCURVE",
"42 368 CURVE SMOOTH",
"42 328 OFFCURVE",
"56 297 OFFCURVE",
"84 274 CURVE SMOOTH",
"96 264 OFFCURVE",
"111 254 OFFCURVE",
"129 246 CURVE SMOOTH",
"147 238 OFFCURVE",
"178 228 OFFCURVE",
"222 214 CURVE",
"238 210 OFFCURVE",
"252 204 OFFCURVE",
"264 198 CURVE SMOOTH",
"276 192 OFFCURVE",
"286 183 OFFCURVE",
"294 174 CURVE SMOOTH",
"302 165 OFFCURVE",
"306 151 OFFCURVE",
"306 132 CURVE SMOOTH",
"306 113 OFFCURVE",
"297 96 OFFCURVE",
"280 81 CURVE SMOOTH",
"261 65 OFFCURVE",
"235 56 OFFCURVE",
"202 56 CURVE SMOOTH",
"162 56 OFFCURVE",
"127 62 OFFCURVE",
"99 76 CURVE",
"95 116 OFFCURVE",
"93 137 OFFCURVE",
"93 140 CURVE",
"91 148 OFFCURVE",
"86 152 OFFCURVE",
"78 152 CURVE SMOOTH",
"42 152 LINE",
"42 20 LINE",
"96 2 OFFCURVE",
"152 -7 OFFCURVE",
"206 -7 CURVE SMOOTH",
"260 -7 OFFCURVE",
"306 10 OFFCURVE",
"340 40 CURVE SMOOTH",
"373 69 OFFCURVE",
"389 108 OFFCURVE",
"389 156 CURVE SMOOTH",
"389 193 OFFCURVE",
"376 222 OFFCURVE",
"348 244 CURVE SMOOTH",
"336 254 OFFCURVE",
"322 264 OFFCURVE",
"306 270 CURVE SMOOTH",
"258 288 LINE SMOOTH",
"242 294 OFFCURVE",
"221 299 OFFCURVE",
"196 307 CURVE SMOOTH",
"171 315 OFFCURVE",
"152 326 OFFCURVE",
"138 342 CURVE",
"130 350 OFFCURVE",
"126 363 OFFCURVE",
"126 380 CURVE SMOOTH",
"126 397 OFFCURVE",
"135 412 OFFCURVE",
"153 426 CURVE SMOOTH",
"171 440 OFFCURVE",
"194 448 OFFCURVE",
"222 448 CURVE SMOOTH",
"223 448 LINE SMOOTH",
"245 448 OFFCURVE",
"271 444 OFFCURVE",
"301 437 CURVE",
"305 395 OFFCURVE",
"307 373 OFFCURVE",
"307 371 CURVE",
"309 361 OFFCURVE",
"314 357 OFFCURVE",
"324 357 CURVE SMOOTH",
"363 357 LINE",
"363 452 LINE",
"363 487 LINE",
"310 505 OFFCURVE",
"266 514 OFFCURVE",
"231 514 CURVE"
);
}
);
width = 410;
}
);
leftKerningGroup = s;
note = s;
rightKerningGroup = s;
unicode = 0073;
},
{
glyphname = t;
lastChange = "2017-11-28 23:39:02 +0000";
layers = (
{
anchors = (
{
name = bottom;
position = "{182, 0}";
},
{
name = center;
position = "{182, 253}";
},
{
name = top;
position = "{182, 506}";
},
{
name = topright;
position = "{343, 506}";
}
);
layerId = "C81CB9C3-2214-4415-8D0B-901773012C9D";
paths = (
{
closed = 1;
nodes = (
"240 -8 OFFCURVE",
"262 -4 OFFCURVE",
"284 4 CURVE SMOOTH",
"306 12 OFFCURVE",
"324 24 OFFCURVE",
"340 38 CURVE",
"314 80 LINE SMOOTH",
"310 86 OFFCURVE",
"306 88 OFFCURVE",
"302 88 CURVE SMOOTH",
"300 88 OFFCURVE",
"296 86 OFFCURVE",
"292 84 CURVE SMOOTH",
"288 82 OFFCURVE",
"285 79 OFFCURVE",
"280 76 CURVE SMOOTH",
"275 73 OFFCURVE",
"269 70 OFFCURVE",
"262 68 CURVE SMOOTH",
"255 66 OFFCURVE",
"247 64 OFFCURVE",
"237 64 CURVE SMOOTH",
"221 64 OFFCURVE",
"206 69 OFFCURVE",
"196 79 CURVE SMOOTH",
"186 89 OFFCURVE",
"181 105 OFFCURVE",
"181 127 CURVE SMOOTH",
"181 431 LINE",
"326 431 LINE",
"326 496 LINE",
"181 496 LINE",
"181 670 LINE",
"136 670 LINE SMOOTH",
"130 670 OFFCURVE",
"126 669 OFFCURVE",
"122 666 CURVE SMOOTH",
"118 663 OFFCURVE",
"116 659 OFFCURVE",
"116 654 CURVE",
"96 497 LINE",
"13 486 LINE",
"13 451 LINE SMOOTH",
"13 445 OFFCURVE",
"14 439 OFFCURVE",
"18 436 CURVE SMOOTH",
"22 433 OFFCURVE",
"26 432 OFFCURVE",
"32 432 CURVE SMOOTH",
"93 432 LINE",
"93 122 LINE SMOOTH",
"93 80 OFFCURVE",
"103 48 OFFCURVE",
"125 26 CURVE SMOOTH",
"147 4 OFFCURVE",
"177 -8 OFFCURVE",
"217 -8 CURVE SMOOTH"
);
}
);
width = 363;
}
);
note = t;
unicode = 0074;
},
{
glyphname = u;
lastChange = "2017-11-28 23:39:02 +0000";
layers = (
{
anchors = (
{
name = bottom;
position = "{303, 0}";
},
{
name = ogonek;
position = "{545, 10}";
},
{
name = top;
position = "{303, 506}";
},
{
name = topright;
position = "{586, 506}";
}
);
layerId = "C81CB9C3-2214-4415-8D0B-901773012C9D";
paths = (
{
closed = 1;
nodes = (
"282 63 LINE",
"246 63 OFFCURVE",
"220 73 OFFCURVE",
"202 94 CURVE SMOOTH",
"184 115 OFFCURVE",
"176 146 OFFCURVE",
"176 184 CURVE SMOOTH",
"176 506 LINE",
"14 506 LINE",
"14 464 LINE SMOOTH",
"14 454 OFFCURVE",
"20 447 OFFCURVE",
"30 445 CURVE",
"36 443 OFFCURVE",
"54 439 OFFCURVE",
"86 433 CURVE",
"86 183 LINE SMOOTH",
"86 123 OFFCURVE",
"102 78 OFFCURVE",
"130 44 CURVE SMOOTH",
"160 9 OFFCURVE",
"202 -9 OFFCURVE",
"256 -9 CURVE SMOOTH",
"320 -9 OFFCURVE",
"376 18 OFFCURVE",
"424 72 CURVE",
"431 18 LINE",
"435 6 OFFCURVE",
"443 -1 OFFCURVE",
"455 -1 CURVE SMOOTH",
"580 -1 LINE",
"580 42 LINE SMOOTH",
"580 52 OFFCURVE",
"575 58 OFFCURVE",
"565 60 CURVE",
"559 62 OFFCURVE",
"540 66 OFFCURVE",
"508 72 CURVE",
"508 506 LINE",
"419 506 LINE",
"347 506 LINE",
"347 463 LINE SMOOTH",
"347 453 OFFCURVE",
"352 446 OFFCURVE",
"362 444 CURVE SMOOTH",
"394 438 OFFCURVE",
"413 434 OFFCURVE",
"419 432 CURVE",
"419 132 LINE",
"378 86 OFFCURVE",
"332 62 OFFCURVE",
"282 62 CURVE"
);
}
);
width = 606;
}
);
leftKerningGroup = k;
note = u;
unicode = 0075;
},
{
glyphname = v;
lastChange = "2017-11-28 23:39:02 +0000";
layers = (
{
anchors = (
{
name = bottom;
position = "{298, 0}";
},
{
name = top;
position = "{298, 506}";
}
);
layerId = "C81CB9C3-2214-4415-8D0B-901773012C9D";
paths = (
{
closed = 1;
nodes = (
"543 506 LINE",
"353 506 LINE",
"353 464 LINE SMOOTH",
"353 454 OFFCURVE",
"358 447 OFFCURVE",
"368 445 CURVE SMOOTH",
"398 439 OFFCURVE",
"417 436 OFFCURVE",
"425 434 CURVE",
"317 162 LINE SMOOTH",
"311 146 OFFCURVE",
"305 122 OFFCURVE",
"297 90 CURVE",
"291 122 OFFCURVE",
"285 147 OFFCURVE",
"279 162 CURVE SMOOTH",
"172 434 LINE",
"203 440 OFFCURVE",
"221 442 OFFCURVE",
"227 444 CURVE",
"237 446 OFFCURVE",
"242 453 OFFCURVE",
"242 463 CURVE SMOOTH",
"242 506 LINE",
"15 506 LINE",
"15 463 LINE SMOOTH",
"15 453 OFFCURVE",
"20 446 OFFCURVE",
"30 444 CURVE",
"32 444 OFFCURVE",
"39 442 OFFCURVE",
"52 440 CURVE SMOOTH",
"65 438 OFFCURVE",
"73 436 OFFCURVE",
"79 434 CURVE",
"256 -1 LINE",
"337 -1 LINE",
"514 434 LINE",
"543 440 OFFCURVE",
"559 444 OFFCURVE",
"563 444 CURVE",
"573 446 OFFCURVE",
"578 452 OFFCURVE",
"578 462 CURVE SMOOTH",
"578 506 LINE"
);
}
);
width = 596;
}
);
leftKerningGroup = v;
note = v;
rightKerningGroup = v;
unicode = 0076;
},
{
glyphname = w;
lastChange = "2017-11-28 23:39:02 +0000";
layers = (
{
anchors = (
{
name = bottom;
position = "{435, 0}";
},
{
name = top;
position = "{435, 506}";
}
);
layerId = "C81CB9C3-2214-4415-8D0B-901773012C9D";
paths = (
{
closed = 1;
nodes = (
"624 506 LINE",
"624 464 LINE SMOOTH",
"624 454 OFFCURVE",
"630 447 OFFCURVE",
"640 445 CURVE SMOOTH",
"674 438 OFFCURVE",
"694 434 OFFCURVE",
"698 434 CURVE",
"616 162 LINE SMOOTH",
"610 140 OFFCURVE",
"605 117 OFFCURVE",
"601 94 CURVE",
"593 125 OFFCURVE",
"587 148 OFFCURVE",
"583 162 CURVE SMOOTH",
"478 490 LINE SMOOTH",
"474 502 OFFCURVE",
"466 508 OFFCURVE",
"453 508 CURVE SMOOTH",
"414 508 LINE SMOOTH",
"402 508 OFFCURVE",
"394 502 OFFCURVE",
"390 490 CURVE SMOOTH",
"284 162 LINE SMOOTH",
"274 130 OFFCURVE",
"267 107 OFFCURVE",
"264 93 CURVE",
"262 109 OFFCURVE",
"256 132 OFFCURVE",
"250 162 CURVE",
"170 434 LINE",
"200 440 OFFCURVE",
"219 443 OFFCURVE",
"225 445 CURVE",
"235 447 OFFCURVE",
"240 454 OFFCURVE",
"240 464 CURVE SMOOTH",
"240 506 LINE",
"14 506 LINE",
"14 464 LINE SMOOTH",
"14 454 OFFCURVE",
"20 447 OFFCURVE",
"30 445 CURVE",
"33 445 OFFCURVE",
"43 442 OFFCURVE",
"63 438 CURVE",
"71 436 OFFCURVE",
"78 435 OFFCURVE",
"80 435 CURVE",
"220 0 LINE",
"288 0 LINE SMOOTH",
"298 0 OFFCURVE",
"304 5 OFFCURVE",
"308 17 CURVE SMOOTH",
"422 360 LINE",
"424 368 OFFCURVE",
"426 374 OFFCURVE",
"428 382 CURVE SMOOTH",
"430 390 OFFCURVE",
"430 398 OFFCURVE",
"432 406 CURVE",
"434 400 OFFCURVE",
"435 392 OFFCURVE",
"437 384 CURVE SMOOTH",
"439 376 OFFCURVE",
"441 368 OFFCURVE",
"444 360 CURVE",
"556 16 LINE",
"559 4 OFFCURVE",
"565 0 OFFCURVE",
"574 0 CURVE SMOOTH",
"644 0 LINE",
"785 434 LINE",
"788 434 OFFCURVE",
"796 437 OFFCURVE",
"810 439 CURVE SMOOTH",
"824 441 OFFCURVE",
"831 444 OFFCURVE",
"835 444 CURVE",
"845 446 OFFCURVE",
"850 452 OFFCURVE",
"850 462 CURVE SMOOTH",
"850 505 LINE"
);
}
);
width = 869;
}
);
leftKerningGroup = v;
note = w;
rightKerningGroup = v;
unicode = 0077;
},
{
glyphname = x;
lastChange = "2017-11-28 23:39:02 +0000";
layers = (
{
anchors = (
{
name = bottom;
position = "{286, 0}";
},
{
name = top;
position = "{286, 506}";
}
);
layerId = "C81CB9C3-2214-4415-8D0B-901773012C9D";
paths = (
{
closed = 1;
nodes = (
"474 71 LINE",
"344 264 LINE",
"464 434 LINE",
"488 438 OFFCURVE",
"507 442 OFFCURVE",
"517 444 CURVE SMOOTH",
"527 446 OFFCURVE",
"532 453 OFFCURVE",
"532 463 CURVE SMOOTH",
"532 506 LINE",
"334 506 LINE",
"334 463 LINE SMOOTH",
"334 453 OFFCURVE",
"339 446 OFFCURVE",
"349 444 CURVE",
"349 444 OFFCURVE",
"354 443 OFFCURVE",
"360 442 CURVE SMOOTH",
"366 441 OFFCURVE",
"372 440 OFFCURVE",
"376 439 CURVE",
"302 330 LINE",
"296 320 OFFCURVE",
"292 312 OFFCURVE",
"289 302 CURVE",
"200 440 LINE",
"213 442 OFFCURVE",
"219 444 OFFCURVE",
"220 444 CURVE",
"230 446 OFFCURVE",
"236 452 OFFCURVE",
"236 462 CURVE SMOOTH",
"236 506 LINE",
"38 506 LINE",
"38 462 LINE SMOOTH",
"38 452 OFFCURVE",
"42 446 OFFCURVE",
"52 444 CURVE",
"58 442 OFFCURVE",
"77 440 OFFCURVE",
"105 434 CURVE",
"226 258 LINE",
"97 70 LINE",
"93 70 OFFCURVE",
"85 68 OFFCURVE",
"73 66 CURVE SMOOTH",
"61 64 OFFCURVE",
"53 61 OFFCURVE",
"49 60 CURVE",
"39 58 OFFCURVE",
"34 52 OFFCURVE",
"34 42 CURVE SMOOTH",
"34 -1 LINE",
"233 -1 LINE",
"233 42 LINE SMOOTH",
"233 52 OFFCURVE",
"228 58 OFFCURVE",
"218 60 CURVE",
"216 60 OFFCURVE",
"210 62 OFFCURVE",
"200 64 CURVE",
"196 65 OFFCURVE",
"192 66 OFFCURVE",
"188 66 CURVE",
"272 190 LINE",
"276 198 OFFCURVE",
"280 206 OFFCURVE",
"282 216 CURVE",
"380 65 LINE",
"366 63 OFFCURVE",
"356 60 OFFCURVE",
"354 60 CURVE",
"344 58 OFFCURVE",
"339 52 OFFCURVE",
"339 42 CURVE SMOOTH",
"339 -1 LINE",
"538 -1 LINE",
"538 42 LINE SMOOTH",
"538 52 OFFCURVE",
"532 60 OFFCURVE",
"520 62 CURVE SMOOTH",
"508 64 OFFCURVE",
"494 66 OFFCURVE",
"476 70 CURVE"
);
}
);
width = 571;
}
);
leftKerningGroup = x;
note = x;
rightKerningGroup = k;
unicode = 0078;
},
{
glyphname = y;
lastChange = "2017-11-28 23:39:02 +0000";
layers = (
{
anchors = (
{
name = bottom;
position = "{298, 0}";
},
{
name = top;
position = "{298, 506}";
}
);
layerId = "C81CB9C3-2214-4415-8D0B-901773012C9D";
paths = (
{
closed = 1;
nodes = (
"540 506 LINE",
"352 506 LINE",
"352 464 LINE SMOOTH",
"352 454 OFFCURVE",
"356 447 OFFCURVE",
"366 445 CURVE SMOOTH",
"376 443 OFFCURVE",
"394 440 OFFCURVE",
"421 434 CURVE",
"312 170 LINE SMOOTH",
"308 160 OFFCURVE",
"302 144 OFFCURVE",
"296 124 CURVE",
"292 140 OFFCURVE",
"289 156 OFFCURVE",
"283 170 CURVE SMOOTH",
"170 434 LINE",
"202 440 OFFCURVE",
"220 444 OFFCURVE",
"226 446 CURVE",
"236 448 OFFCURVE",
"241 454 OFFCURVE",
"241 464 CURVE SMOOTH",
"241 507 LINE",
"14 507 LINE",
"14 464 LINE SMOOTH",
"14 454 OFFCURVE",
"19 448 OFFCURVE",
"29 446 CURVE",
"35 444 OFFCURVE",
"50 440 OFFCURVE",
"74 436 CURVE",
"252 30 LINE",
"160 -171 LINE",
"226 -171 LINE SMOOTH",
"240 -171 OFFCURVE",
"252 -163 OFFCURVE",
"258 -149 CURVE SMOOTH",
"509 435 LINE",
"511 435 OFFCURVE",
"520 437 OFFCURVE",
"534 440 CURVE SMOOTH",
"548 443 OFFCURVE",
"558 446 OFFCURVE",
"561 446 CURVE",
"571 448 OFFCURVE",
"576 454 OFFCURVE",
"576 464 CURVE SMOOTH",
"576 507 LINE"
);
}
);
width = 596;
}
);
leftKerningGroup = v;
note = y;
rightKerningGroup = v;
unicode = 0079;
},
{
glyphname = z;
lastChange = "2017-11-28 23:39:02 +0000";
layers = (
{
anchors = (
{
name = bottom;
position = "{231, 0}";
},
{
name = top;
position = "{231, 506}";
}
);
layerId = "C81CB9C3-2214-4415-8D0B-901773012C9D";
paths = (
{
closed = 1;
nodes = (
"100 506 LINE",
"49 506 LINE",
"49 363 LINE",
"84 363 LINE SMOOTH",
"92 363 OFFCURVE",
"98 368 OFFCURVE",
"100 376 CURVE",
"100 380 OFFCURVE",
"102 399 OFFCURVE",
"105 436 CURVE",
"322 436 LINE",
"46 69 LINE SMOOTH",
"38 58 OFFCURVE",
"34 47 OFFCURVE",
"34 37 CURVE SMOOTH",
"34 0 LINE",
"420 0 LINE",
"420 148 LINE",
"385 148 LINE SMOOTH",
"377 148 OFFCURVE",
"372 144 OFFCURVE",
"370 136 CURVE",
"370 132 OFFCURVE",
"367 110 OFFCURVE",
"364 70 CURVE",
"139 70 LINE",
"413 435 LINE SMOOTH",
"421 445 OFFCURVE",
"426 457 OFFCURVE",
"426 469 CURVE SMOOTH",
"426 507 LINE"
);
}
);
width = 461;
}
);
leftKerningGroup = z;
note = z;
rightKerningGroup = uni01F2;
unicode = 007A;
},
{
glyphname = braceleft;
lastChange = "2017-11-28 23:39:02 +0000";
layers = (
{
layerId = "C81CB9C3-2214-4415-8D0B-901773012C9D";
paths = (
{
closed = 1;
nodes = (
"91 212 LINE",
"91 196 OFFCURVE",
"89 179 OFFCURVE",
"87 163 CURVE SMOOTH",
"85 147 OFFCURVE",
"81 130 OFFCURVE",
"78 114 CURVE SMOOTH",
"75 98 OFFCURVE",
"72 80 OFFCURVE",
"70 64 CURVE SMOOTH",
"68 48 OFFCURVE",
"66 31 OFFCURVE",
"66 13 CURVE SMOOTH",
"66 -10 OFFCURVE",
"69 -30 OFFCURVE",
"76 -50 CURVE SMOOTH",
"83 -70 OFFCURVE",
"94 -86 OFFCURVE",
"108 -100 CURVE SMOOTH",
"122 -114 OFFCURVE",
"140 -126 OFFCURVE",
"160 -134 CURVE SMOOTH",
"180 -142 OFFCURVE",
"204 -146 OFFCURVE",
"232 -146 CURVE SMOOTH",
"258 -146 LINE",
"258 -106 LINE SMOOTH",
"258 -100 OFFCURVE",
"255 -94 OFFCURVE",
"251 -91 CURVE SMOOTH",
"247 -88 OFFCURVE",
"242 -86 OFFCURVE",
"238 -86 CURVE SMOOTH",
"228 -86 LINE SMOOTH",
"202 -86 OFFCURVE",
"182 -78 OFFCURVE",
"167 -62 CURVE SMOOTH",
"152 -46 OFFCURVE",
"144 -22 OFFCURVE",
"144 7 CURVE SMOOTH",
"144 25 OFFCURVE",
"146 43 OFFCURVE",
"148 61 CURVE SMOOTH",
"150 79 OFFCURVE",
"153 96 OFFCURVE",
"156 112 CURVE SMOOTH",
"159 128 OFFCURVE",
"162 146 OFFCURVE",
"164 162 CURVE SMOOTH",
"166 178 OFFCURVE",
"168 195 OFFCURVE",
"168 211 CURVE SMOOTH",
"168 223 OFFCURVE",
"166 236 OFFCURVE",
"162 246 CURVE SMOOTH",
"158 256 OFFCURVE",
"153 266 OFFCURVE",
"146 274 CURVE SMOOTH",
"139 282 OFFCURVE",
"131 290 OFFCURVE",
"122 296 CURVE SMOOTH",
"113 302 OFFCURVE",
"103 307 OFFCURVE",
"92 310 CURVE",
"103 313 OFFCURVE",
"113 317 OFFCURVE",
"122 323 CURVE SMOOTH",
"131 329 OFFCURVE",
"139 337 OFFCURVE",
"146 345 CURVE SMOOTH",
"153 353 OFFCURVE",
"158 363 OFFCURVE",
"162 374 CURVE SMOOTH",
"166 385 OFFCURVE",
"167 397 OFFCURVE",
"167 409 CURVE SMOOTH",
"167 425 OFFCURVE",
"166 442 OFFCURVE",
"164 458 CURVE SMOOTH",
"162 474 OFFCURVE",
"159 492 OFFCURVE",
"156 508 CURVE SMOOTH",
"153 524 OFFCURVE",
"150 541 OFFCURVE",
"148 559 CURVE SMOOTH",
"146 577 OFFCURVE",
"144 595 OFFCURVE",
"144 613 CURVE SMOOTH",
"144 641 OFFCURVE",
"151 664 OFFCURVE",
"166 681 CURVE SMOOTH",
"181 698 OFFCURVE",
"201 706 OFFCURVE",
"227 706 CURVE SMOOTH",
"237 706 LINE SMOOTH",
"241 706 OFFCURVE",
"246 708 OFFCURVE",
"250 711 CURVE SMOOTH",
"254 714 OFFCURVE",
"257 720 OFFCURVE",
"257 726 CURVE SMOOTH",
"257 765 LINE",
"230 765 LINE SMOOTH",
"202 765 OFFCURVE",
"178 762 OFFCURVE",
"158 754 CURVE SMOOTH",
"138 746 OFFCURVE",
"121 735 OFFCURVE",
"107 721 CURVE SMOOTH",
"93 707 OFFCURVE",
"83 691 OFFCURVE",
"76 671 CURVE SMOOTH",
"69 651 OFFCURVE",
"65 631 OFFCURVE",
"65 608 CURVE SMOOTH",
"65 590 OFFCURVE",
"67 572 OFFCURVE",
"69 556 CURVE SMOOTH",
"71 540 OFFCURVE",
"75 523 OFFCURVE",
"78 507 CURVE SMOOTH",
"81 491 OFFCURVE",
"84 474 OFFCURVE",
"86 458 CURVE SMOOTH",
"88 442 OFFCURVE",
"90 424 OFFCURVE",
"90 408 CURVE SMOOTH",
"90 386 OFFCURVE",
"84 370 OFFCURVE",
"72 356 CURVE SMOOTH",
"60 342 OFFCURVE",
"44 336 OFFCURVE",
"22 336 CURVE",
"22 282 LINE",
"44 282 OFFCURVE",
"60 276 OFFCURVE",
"72 262 CURVE SMOOTH",
"84 248 OFFCURVE",
"90 231 OFFCURVE",
"90 210 CURVE"
);
}
);
width = 277;
}
);
note = braceleft;
unicode = 007B;
},
{
glyphname = bar;
lastChange = "2017-11-28 23:39:02 +0000";
layers = (
{
layerId = "C81CB9C3-2214-4415-8D0B-901773012C9D";
paths = (
{
closed = 1;
nodes = (
"56 766 LINE",
"56 -172 LINE",
"124 -172 LINE",
"124 766 LINE"
);
}
);
width = 179;
}
);
note = bar;
unicode = 007C;
},
{
glyphname = braceright;
lastChange = "2017-11-28 23:39:02 +0000";
layers = (
{
layerId = "C81CB9C3-2214-4415-8D0B-901773012C9D";
paths = (
{
closed = 1;
nodes = (
"187 212 LINE",
"187 233 OFFCURVE",
"192 250 OFFCURVE",
"204 264 CURVE SMOOTH",
"216 278 OFFCURVE",
"234 284 OFFCURVE",
"256 284 CURVE",
"256 338 LINE",
"234 338 OFFCURVE",
"216 344 OFFCURVE",
"204 358 CURVE SMOOTH",
"192 372 OFFCURVE",
"187 388 OFFCURVE",
"187 410 CURVE SMOOTH",
"187 426 OFFCURVE",
"189 444 OFFCURVE",
"191 460 CURVE SMOOTH",
"193 476 OFFCURVE",
"197 493 OFFCURVE",
"200 509 CURVE SMOOTH",
"203 525 OFFCURVE",
"206 542 OFFCURVE",
"208 558 CURVE SMOOTH",
"210 574 OFFCURVE",
"212 592 OFFCURVE",
"212 610 CURVE SMOOTH",
"212 633 OFFCURVE",
"209 653 OFFCURVE",
"202 673 CURVE SMOOTH",
"195 693 OFFCURVE",
"184 709 OFFCURVE",
"170 723 CURVE SMOOTH",
"156 737 OFFCURVE",
"140 748 OFFCURVE",
"120 756 CURVE SMOOTH",
"100 764 OFFCURVE",
"76 767 OFFCURVE",
"48 767 CURVE SMOOTH",
"21 767 LINE",
"21 728 LINE SMOOTH",
"21 722 OFFCURVE",
"24 716 OFFCURVE",
"28 713 CURVE SMOOTH",
"32 710 OFFCURVE",
"37 708 OFFCURVE",
"41 708 CURVE SMOOTH",
"51 708 LINE SMOOTH",
"77 708 OFFCURVE",
"97 700 OFFCURVE",
"112 683 CURVE SMOOTH",
"127 666 OFFCURVE",
"134 642 OFFCURVE",
"134 614 CURVE SMOOTH",
"134 596 OFFCURVE",
"132 578 OFFCURVE",
"130 560 CURVE SMOOTH",
"128 542 OFFCURVE",
"125 526 OFFCURVE",
"122 510 CURVE SMOOTH",
"119 494 OFFCURVE",
"116 476 OFFCURVE",
"114 460 CURVE SMOOTH",
"112 444 OFFCURVE",
"111 426 OFFCURVE",
"111 410 CURVE SMOOTH",
"111 398 OFFCURVE",
"112 386 OFFCURVE",
"116 375 CURVE SMOOTH",
"120 364 OFFCURVE",
"125 354 OFFCURVE",
"132 346 CURVE SMOOTH",
"139 338 OFFCURVE",
"147 330 OFFCURVE",
"156 324 CURVE SMOOTH",
"165 318 OFFCURVE",
"175 313 OFFCURVE",
"186 310 CURVE",
"175 307 OFFCURVE",
"165 303 OFFCURVE",
"156 297 CURVE SMOOTH",
"147 291 OFFCURVE",
"139 283 OFFCURVE",
"132 275 CURVE SMOOTH",
"125 267 OFFCURVE",
"120 256 OFFCURVE",
"116 246 CURVE SMOOTH",
"112 236 OFFCURVE",
"110 224 OFFCURVE",
"110 212 CURVE SMOOTH",
"110 196 OFFCURVE",
"112 178 OFFCURVE",
"114 162 CURVE SMOOTH",
"116 146 OFFCURVE",
"119 129 OFFCURVE",
"122 113 CURVE SMOOTH",
"125 97 OFFCURVE",
"128 80 OFFCURVE",
"130 62 CURVE SMOOTH",
"132 44 OFFCURVE",
"134 26 OFFCURVE",
"134 8 CURVE SMOOTH",
"134 -21 OFFCURVE",
"126 -44 OFFCURVE",
"111 -60 CURVE SMOOTH",
"96 -76 OFFCURVE",
"76 -86 OFFCURVE",
"50 -86 CURVE SMOOTH",
"40 -86 LINE SMOOTH",
"36 -86 OFFCURVE",
"31 -87 OFFCURVE",
"27 -90 CURVE SMOOTH",
"23 -93 OFFCURVE",
"20 -98 OFFCURVE",
"20 -104 CURVE SMOOTH",
"20 -144 LINE",
"46 -144 LINE SMOOTH",
"74 -144 OFFCURVE",
"98 -140 OFFCURVE",
"118 -132 CURVE SMOOTH",
"138 -124 OFFCURVE",
"156 -114 OFFCURVE",
"170 -100 CURVE SMOOTH",
"184 -86 OFFCURVE",
"193 -70 OFFCURVE",
"200 -50 CURVE SMOOTH",
"207 -30 OFFCURVE",
"211 -9 OFFCURVE",
"211 14 CURVE SMOOTH",
"211 32 OFFCURVE",
"209 49 OFFCURVE",
"207 65 CURVE SMOOTH",
"205 81 OFFCURVE",
"201 98 OFFCURVE",
"198 114 CURVE SMOOTH",
"195 130 OFFCURVE",
"192 148 OFFCURVE",
"190 164 CURVE SMOOTH",
"188 180 OFFCURVE",
"186 198 OFFCURVE",
"186 214 CURVE"
);
}
);
width = 277;
}
);
note = braceright;
unicode = 007D;
},
{
glyphname = asciitilde;
lastChange = "2017-11-28 23:39:02 +0000";
layers = (
{
layerId = "C81CB9C3-2214-4415-8D0B-901773012C9D";
paths = (
{
closed = 1;
nodes = (
"352 306 OFFCURVE",
"339 308 OFFCURVE",
"325 314 CURVE SMOOTH",
"311 320 OFFCURVE",
"296 326 OFFCURVE",
"280 332 CURVE SMOOTH",
"264 338 OFFCURVE",
"247 344 OFFCURVE",
"230 350 CURVE SMOOTH",
"213 356 OFFCURVE",
"196 358 OFFCURVE",
"178 358 CURVE SMOOTH",
"156 358 OFFCURVE",
"137 355 OFFCURVE",
"120 347 CURVE SMOOTH",
"103 339 OFFCURVE",
"90 330 OFFCURVE",
"78 316 CURVE SMOOTH",
"66 302 OFFCURVE",
"58 286 OFFCURVE",
"52 268 CURVE SMOOTH",
"46 250 OFFCURVE",
"42 228 OFFCURVE",
"42 206 CURVE",
"114 206 LINE",
"114 230 OFFCURVE",
"121 248 OFFCURVE",
"133 262 CURVE SMOOTH",
"145 276 OFFCURVE",
"162 284 OFFCURVE",
"184 284 CURVE SMOOTH",
"196 284 OFFCURVE",
"209 281 OFFCURVE",
"223 275 CURVE SMOOTH",
"237 269 OFFCURVE",
"252 263 OFFCURVE",
"268 257 CURVE SMOOTH",
"284 251 OFFCURVE",
"301 245 OFFCURVE",
"318 239 CURVE SMOOTH",
"335 233 OFFCURVE",
"352 231 OFFCURVE",
"370 231 CURVE SMOOTH",
"392 231 OFFCURVE",
"410 234 OFFCURVE",
"427 242 CURVE SMOOTH",
"444 250 OFFCURVE",
"458 260 OFFCURVE",
"470 274 CURVE SMOOTH",
"482 288 OFFCURVE",
"490 304 OFFCURVE",
"496 322 CURVE SMOOTH",
"502 340 OFFCURVE",
"505 361 OFFCURVE",
"505 383 CURVE",
"433 383 LINE",
"433 359 OFFCURVE",
"426 340 OFFCURVE",
"414 326 CURVE SMOOTH",
"402 312 OFFCURVE",
"386 306 OFFCURVE",
"364 306 CURVE SMOOTH"
);
}
);
width = 549;
}
);
leftKerningGroup = emdash;
note = asciitilde;
rightKerningGroup = emdash;
unicode = 007E;
},
{
glyphname = exclamdown;
lastChange = "2017-11-28 23:39:02 +0000";
layers = (
{
layerId = "C81CB9C3-2214-4415-8D0B-901773012C9D";
paths = (
{
closed = 1;
nodes = (
"60 -172 LINE",
"144 -172 LINE",
"144 99 LINE SMOOTH",
"144 114 OFFCURVE",
"143 128 OFFCURVE",
"143 142 CURVE SMOOTH",
"143 156 OFFCURVE",
"141 172 OFFCURVE",
"140 186 CURVE SMOOTH",
"139 200 OFFCURVE",
"138 214 OFFCURVE",
"136 230 CURVE SMOOTH",
"134 246 OFFCURVE",
"133 262 OFFCURVE",
"131 280 CURVE",
"70 280 LINE",
"68 262 OFFCURVE",
"67 246 OFFCURVE",
"65 230 CURVE SMOOTH",
"63 214 OFFCURVE",
"62 200 OFFCURVE",
"61 186 CURVE SMOOTH",
"60 172 OFFCURVE",
"58 156 OFFCURVE",
"58 142 CURVE SMOOTH",
"58 99 LINE"
);
},
{
closed = 1;
nodes = (
"36 452 LINE",
"36 444 OFFCURVE",
"37 436 OFFCURVE",
"40 428 CURVE SMOOTH",
"43 420 OFFCURVE",
"47 414 OFFCURVE",
"53 408 CURVE SMOOTH",
"59 402 OFFCURVE",
"64 399 OFFCURVE",
"72 395 CURVE SMOOTH",
"80 391 OFFCURVE",
"88 390 OFFCURVE",
"97 390 CURVE SMOOTH",
"105 390 OFFCURVE",
"113 391 OFFCURVE",
"121 395 CURVE SMOOTH",
"129 399 OFFCURVE",
"134 402 OFFCURVE",
"140 408 CURVE SMOOTH",
"146 414 OFFCURVE",
"150 420 OFFCURVE",
"154 428 CURVE SMOOTH",
"158 436 OFFCURVE",
"159 444 OFFCURVE",
"159 452 CURVE SMOOTH",
"159 461 OFFCURVE",
"158 468 OFFCURVE",
"154 476 CURVE SMOOTH",
"150 484 OFFCURVE",
"146 490 OFFCURVE",
"140 496 CURVE SMOOTH",
"134 502 OFFCURVE",
"129 506 OFFCURVE",
"121 509 CURVE SMOOTH",
"113 512 OFFCURVE",
"105 514 OFFCURVE",
"97 514 CURVE SMOOTH",
"88 514 OFFCURVE",
"80 512 OFFCURVE",
"72 509 CURVE SMOOTH",
"64 506 OFFCURVE",
"58 502 OFFCURVE",
"52 496 CURVE SMOOTH",
"46 490 OFFCURVE",
"43 484 OFFCURVE",
"40 476 CURVE SMOOTH",
"37 468 OFFCURVE",
"35 461 OFFCURVE",
"35 452 CURVE"
);
}
);
width = 200;
}
);
note = exclamdown;
unicode = 00A1;
},
{
glyphname = cent;
lastChange = "2017-11-28 23:39:02 +0000";
layers = (
{
layerId = "C81CB9C3-2214-4415-8D0B-901773012C9D";
paths = (
{
closed = 1;
nodes = (
"414 103 LINE",
"410 109 OFFCURVE",
"405 112 OFFCURVE",
"398 112 CURVE SMOOTH",
"391 112 OFFCURVE",
"385 109 OFFCURVE",
"379 104 CURVE SMOOTH",
"373 99 OFFCURVE",
"366 92 OFFCURVE",
"356 86 CURVE SMOOTH",
"346 80 OFFCURVE",
"335 74 OFFCURVE",
"321 69 CURVE SMOOTH",
"307 64 OFFCURVE",
"295 62 OFFCURVE",
"284 62 CURVE SMOOTH",
"262 62 LINE",
"262 63 LINE",
"288 443 LINE",
"288 444 LINE",
"294 444 OFFCURVE",
"305 442 OFFCURVE",
"317 440 CURVE",
"326 438 OFFCURVE",
"338 434 OFFCURVE",
"354 430 CURVE",
"358 386 OFFCURVE",
"359 364 OFFCURVE",
"360 360 CURVE",
"362 350 OFFCURVE",
"366 346 OFFCURVE",
"376 346 CURVE SMOOTH",
"416 346 LINE",
"416 477 LINE",
"370 496 OFFCURVE",
"329 508 OFFCURVE",
"293 512 CURVE",
"301 628 LINE",
"268 628 LINE SMOOTH",
"261 628 OFFCURVE",
"254 625 OFFCURVE",
"250 620 CURVE SMOOTH",
"246 615 OFFCURVE",
"243 609 OFFCURVE",
"243 602 CURVE",
"237 513 LINE",
"175 507 OFFCURVE",
"126 483 OFFCURVE",
"90 441 CURVE SMOOTH",
"48 394 OFFCURVE",
"28 332 OFFCURVE",
"28 254 CURVE SMOOTH",
"28 174 OFFCURVE",
"49 110 OFFCURVE",
"92 62 CURVE SMOOTH",
"122 30 OFFCURVE",
"158 9 OFFCURVE",
"201 -1 CURVE",
"194 -116 LINE",
"226 -116 LINE SMOOTH",
"233 -116 OFFCURVE",
"240 -113 OFFCURVE",
"244 -108 CURVE SMOOTH",
"248 -103 OFFCURVE",
"251 -98 OFFCURVE",
"251 -92 CURVE",
"256 -6 LINE",
"336 -4 OFFCURVE",
"397 22 OFFCURVE",
"438 72 CURVE"
);
},
{
closed = 1;
nodes = (
"119 254 LINE",
"119 284 OFFCURVE",
"122 310 OFFCURVE",
"128 334 CURVE SMOOTH",
"144 394 OFFCURVE",
"180 430 OFFCURVE",
"232 442 CURVE",
"216 206 OFFCURVE",
"207 84 OFFCURVE",
"205 76 CURVE",
"187 84 OFFCURVE",
"171 97 OFFCURVE",
"159 113 CURVE SMOOTH",
"133 147 OFFCURVE",
"119 196 OFFCURVE",
"119 256 CURVE"
);
}
);
width = 460;
}
);
leftKerningGroup = c;
note = cent;
unicode = 00A2;
},
{
glyphname = sterling;
lastChange = "2017-11-28 23:39:02 +0000";
layers = (
{
layerId = "C81CB9C3-2214-4415-8D0B-901773012C9D";
paths = (
{
closed = 1;
nodes = (
"26 336 LINE",
"26 307 LINE",
"124 307 LINE",
"124 162 LINE SMOOTH",
"124 146 OFFCURVE",
"121 134 OFFCURVE",
"116 122 CURVE SMOOTH",
"111 110 OFFCURVE",
"105 100 OFFCURVE",
"97 92 CURVE SMOOTH",
"89 84 OFFCURVE",
"80 77 OFFCURVE",
"70 71 CURVE SMOOTH",
"60 65 OFFCURVE",
"48 62 OFFCURVE",
"36 58 CURVE",
"36 0 LINE",
"518 0 LINE SMOOTH",
"524 0 OFFCURVE",
"530 2 OFFCURVE",
"534 4 CURVE SMOOTH",
"538 6 OFFCURVE",
"542 9 OFFCURVE",
"546 13 CURVE SMOOTH",
"550 17 OFFCURVE",
"552 22 OFFCURVE",
"554 26 CURVE SMOOTH",
"556 30 OFFCURVE",
"558 35 OFFCURVE",
"558 39 CURVE SMOOTH",
"558 77 LINE",
"220 77 LINE SMOOTH",
"210 77 OFFCURVE",
"200 77 OFFCURVE",
"190 76 CURVE SMOOTH",
"180 75 OFFCURVE",
"172 74 OFFCURVE",
"162 72 CURVE",
"178 87 OFFCURVE",
"190 103 OFFCURVE",
"200 121 CURVE SMOOTH",
"210 139 OFFCURVE",
"214 161 OFFCURVE",
"214 186 CURVE SMOOTH",
"214 307 LINE",
"409 307 LINE SMOOTH",
"417 307 OFFCURVE",
"423 309 OFFCURVE",
"428 314 CURVE SMOOTH",
"433 319 OFFCURVE",
"435 325 OFFCURVE",
"435 331 CURVE SMOOTH",
"435 367 LINE",
"214 367 LINE",
"214 498 LINE SMOOTH",
"214 520 OFFCURVE",
"216 542 OFFCURVE",
"222 560 CURVE SMOOTH",
"228 578 OFFCURVE",
"236 594 OFFCURVE",
"246 607 CURVE SMOOTH",
"256 620 OFFCURVE",
"270 630 OFFCURVE",
"286 637 CURVE SMOOTH",
"302 644 OFFCURVE",
"321 648 OFFCURVE",
"342 648 CURVE SMOOTH",
"357 648 OFFCURVE",
"370 646 OFFCURVE",
"381 642 CURVE SMOOTH",
"392 638 OFFCURVE",
"402 634 OFFCURVE",
"410 628 CURVE SMOOTH",
"418 622 OFFCURVE",
"426 615 OFFCURVE",
"433 607 CURVE SMOOTH",
"440 599 OFFCURVE",
"447 590 OFFCURVE",
"453 582 CURVE",
"457 578 OFFCURVE",
"460 574 OFFCURVE",
"464 572 CURVE SMOOTH",
"468 570 OFFCURVE",
"474 570 OFFCURVE",
"478 570 CURVE SMOOTH",
"482 570 OFFCURVE",
"484 570 OFFCURVE",
"488 571 CURVE SMOOTH",
"492 572 OFFCURVE",
"494 574 OFFCURVE",
"498 576 CURVE",
"534 598 LINE",
"526 616 OFFCURVE",
"517 632 OFFCURVE",
"505 647 CURVE SMOOTH",
"493 662 OFFCURVE",
"480 674 OFFCURVE",
"464 686 CURVE SMOOTH",
"448 698 OFFCURVE",
"431 708 OFFCURVE",
"411 714 CURVE SMOOTH",
"391 720 OFFCURVE",
"368 723 OFFCURVE",
"342 723 CURVE SMOOTH",
"306 723 OFFCURVE",
"274 717 OFFCURVE",
"246 705 CURVE SMOOTH",
"218 693 OFFCURVE",
"195 676 OFFCURVE",
"177 656 CURVE SMOOTH",
"159 636 OFFCURVE",
"145 612 OFFCURVE",
"136 584 CURVE SMOOTH",
"127 556 OFFCURVE",
"122 528 OFFCURVE",
"122 496 CURVE SMOOTH",
"122 366 LINE",
"56 366 LINE SMOOTH",
"46 366 OFFCURVE",
"39 362 OFFCURVE",
"33 356 CURVE SMOOTH",
"27 350 OFFCURVE",
"25 342 OFFCURVE",
"25 334 CURVE"
);
}
);
width = 581;
}
);
note = sterling;
unicode = 00A3;
},
{
glyphname = currency;
lastChange = "2017-11-28 23:39:02 +0000";
layers = (
{
layerId = "C81CB9C3-2214-4415-8D0B-901773012C9D";
paths = (
{
closed = 1;
nodes = (
"76 336 LINE",
"76 316 OFFCURVE",
"78 298 OFFCURVE",
"84 281 CURVE SMOOTH",
"90 264 OFFCURVE",
"98 248 OFFCURVE",
"108 234 CURVE",
"32 158 LINE",
"77 112 LINE",
"154 188 LINE",
"168 178 OFFCURVE",
"183 172 OFFCURVE",
"200 166 CURVE SMOOTH",
"217 160 OFFCURVE",
"235 158 OFFCURVE",
"254 158 CURVE SMOOTH",
"273 158 OFFCURVE",
"291 160 OFFCURVE",
"309 166 CURVE SMOOTH",
"327 172 OFFCURVE",
"343 180 OFFCURVE",
"357 190 CURVE",
"433 114 LINE",
"478 160 LINE",
"402 235 LINE",
"412 249 OFFCURVE",
"419 265 OFFCURVE",
"425 282 CURVE SMOOTH",
"431 299 OFFCURVE",
"433 317 OFFCURVE",
"433 336 CURVE SMOOTH",
"433 356 OFFCURVE",
"430 373 OFFCURVE",
"424 390 CURVE SMOOTH",
"418 407 OFFCURVE",
"410 424 OFFCURVE",
"400 438 CURVE",
"476 514 LINE",
"432 560 LINE",
"355 483 LINE",
"341 493 OFFCURVE",
"325 500 OFFCURVE",
"308 506 CURVE SMOOTH",
"291 512 OFFCURVE",
"273 514 OFFCURVE",
"254 514 CURVE SMOOTH",
"234 514 OFFCURVE",
"216 512 OFFCURVE",
"198 506 CURVE SMOOTH",
"180 500 OFFCURVE",
"164 492 OFFCURVE",
"150 482 CURVE",
"75 558 LINE",
"30 512 LINE",
"106 436 LINE",
"96 422 OFFCURVE",
"90 405 OFFCURVE",
"84 388 CURVE SMOOTH",
"78 371 OFFCURVE",
"75 353 OFFCURVE",
"75 334 CURVE"
);
},
{
closed = 1;
nodes = (
"141 334 LINE",
"141 350 OFFCURVE",
"144 364 OFFCURVE",
"150 378 CURVE SMOOTH",
"156 392 OFFCURVE",
"164 404 OFFCURVE",
"174 414 CURVE SMOOTH",
"184 424 OFFCURVE",
"196 432 OFFCURVE",
"210 438 CURVE SMOOTH",
"224 444 OFFCURVE",
"238 448 OFFCURVE",
"254 448 CURVE SMOOTH",
"270 448 OFFCURVE",
"284 444 OFFCURVE",
"298 438 CURVE SMOOTH",
"312 432 OFFCURVE",
"324 424 OFFCURVE",
"334 414 CURVE SMOOTH",
"344 404 OFFCURVE",
"352 392 OFFCURVE",
"358 378 CURVE SMOOTH",
"364 364 OFFCURVE",
"367 350 OFFCURVE",
"367 334 CURVE SMOOTH",
"367 318 OFFCURVE",
"364 305 OFFCURVE",
"358 291 CURVE SMOOTH",
"352 277 OFFCURVE",
"344 266 OFFCURVE",
"334 256 CURVE SMOOTH",
"324 246 OFFCURVE",
"312 238 OFFCURVE",
"298 232 CURVE SMOOTH",
"284 226 OFFCURVE",
"270 222 OFFCURVE",
"254 222 CURVE SMOOTH",
"238 222 OFFCURVE",
"224 226 OFFCURVE",
"210 232 CURVE SMOOTH",
"196 238 OFFCURVE",
"184 246 OFFCURVE",
"174 256 CURVE SMOOTH",
"164 266 OFFCURVE",
"156 277 OFFCURVE",
"150 291 CURVE SMOOTH",
"144 305 OFFCURVE",
"140 318 OFFCURVE",
"140 334 CURVE"
);
}
);
width = 508;
}
);
note = currency;
unicode = 00A4;
},
{
glyphname = yen;
lastChange = "2017-11-28 23:39:02 +0000";
layers = (
{
layerId = "C81CB9C3-2214-4415-8D0B-901773012C9D";
paths = (
{
closed = 1;
nodes = (
"73 312 LINE",
"73 262 LINE",
"243 262 LINE",
"243 209 LINE",
"73 209 LINE",
"73 158 LINE",
"243 158 LINE",
"243 0 LINE",
"332 0 LINE",
"332 158 LINE",
"502 158 LINE",
"502 209 LINE",
"332 209 LINE",
"332 262 LINE",
"502 262 LINE",
"502 312 LINE",
"349 312 LINE",
"554 716 LINE",
"478 716 LINE SMOOTH",
"470 716 OFFCURVE",
"464 714 OFFCURVE",
"458 710 CURVE SMOOTH",
"452 706 OFFCURVE",
"448 700 OFFCURVE",
"446 694 CURVE",
"308 412 LINE",
"304 400 OFFCURVE",
"299 390 OFFCURVE",
"296 380 CURVE SMOOTH",
"293 370 OFFCURVE",
"290 360 OFFCURVE",
"288 350 CURVE",
"286 360 OFFCURVE",
"284 368 OFFCURVE",
"280 378 CURVE SMOOTH",
"276 388 OFFCURVE",
"272 398 OFFCURVE",
"268 410 CURVE",
"130 693 LINE",
"126 699 OFFCURVE",
"121 705 OFFCURVE",
"116 709 CURVE SMOOTH",
"111 713 OFFCURVE",
"104 715 OFFCURVE",
"96 715 CURVE SMOOTH",
"22 715 LINE",
"226 311 LINE"
);
}
);
width = 572;
}
);
note = yen;
unicode = 00A5;
},
{
glyphname = brokenbar;
lastChange = "2017-11-28 23:39:02 +0000";
layers = (
{
layerId = "C81CB9C3-2214-4415-8D0B-901773012C9D";
paths = (
{
closed = 1;
nodes = (
"54 766 LINE",
"54 370 LINE",
"122 370 LINE",
"122 766 LINE"
);
},
{
closed = 1;
nodes = (
"54 226 LINE",
"54 -172 LINE",
"122 -172 LINE",
"122 226 LINE"
);
}
);
width = 175;
}
);
note = brokenbar;
unicode = 00A6;
},
{
glyphname = section;
lastChange = "2017-11-28 23:39:02 +0000";
layers = (
{
layerId = "C81CB9C3-2214-4415-8D0B-901773012C9D";
paths = (
{
closed = 1;
nodes = (
"380 632 LINE",
"400 665 LINE",
"380 683 OFFCURVE",
"357 698 OFFCURVE",
"331 708 CURVE SMOOTH",
"305 718 OFFCURVE",
"275 724 OFFCURVE",
"241 724 CURVE SMOOTH",
"213 724 OFFCURVE",
"186 720 OFFCURVE",
"164 712 CURVE SMOOTH",
"142 704 OFFCURVE",
"124 694 OFFCURVE",
"108 680 CURVE SMOOTH",
"92 666 OFFCURVE",
"80 651 OFFCURVE",
"72 633 CURVE SMOOTH",
"64 615 OFFCURVE",
"60 597 OFFCURVE",
"60 577 CURVE SMOOTH",
"60 552 OFFCURVE",
"66 531 OFFCURVE",
"76 513 CURVE SMOOTH",
"86 495 OFFCURVE",
"100 480 OFFCURVE",
"116 468 CURVE",
"85 456 OFFCURVE",
"62 440 OFFCURVE",
"48 419 CURVE SMOOTH",
"34 398 OFFCURVE",
"27 374 OFFCURVE",
"27 348 CURVE SMOOTH",
"27 326 OFFCURVE",
"32 309 OFFCURVE",
"40 293 CURVE SMOOTH",
"48 277 OFFCURVE",
"58 264 OFFCURVE",
"72 252 CURVE SMOOTH",
"86 240 OFFCURVE",
"101 230 OFFCURVE",
"119 222 CURVE SMOOTH",
"173 198 LINE SMOOTH",
"191 190 OFFCURVE",
"209 184 OFFCURVE",
"227 177 CURVE SMOOTH",
"245 170 OFFCURVE",
"260 162 OFFCURVE",
"274 154 CURVE SMOOTH",
"288 146 OFFCURVE",
"298 135 OFFCURVE",
"306 124 CURVE SMOOTH",
"314 113 OFFCURVE",
"319 100 OFFCURVE",
"319 85 CURVE SMOOTH",
"319 73 OFFCURVE",
"316 60 OFFCURVE",
"312 50 CURVE SMOOTH",
"308 40 OFFCURVE",
"301 32 OFFCURVE",
"292 24 CURVE SMOOTH",
"283 16 OFFCURVE",
"271 10 OFFCURVE",
"258 6 CURVE SMOOTH",
"245 2 OFFCURVE",
"230 0 OFFCURVE",
"214 0 CURVE SMOOTH",
"193 0 OFFCURVE",
"176 3 OFFCURVE",
"162 7 CURVE SMOOTH",
"148 11 OFFCURVE",
"136 16 OFFCURVE",
"126 22 CURVE SMOOTH",
"116 28 OFFCURVE",
"108 34 OFFCURVE",
"102 38 CURVE SMOOTH",
"96 42 OFFCURVE",
"89 45 OFFCURVE",
"83 45 CURVE SMOOTH",
"77 45 OFFCURVE",
"72 44 OFFCURVE",
"68 42 CURVE SMOOTH",
"64 40 OFFCURVE",
"60 35 OFFCURVE",
"58 31 CURVE",
"38 -3 LINE",
"58 -21 OFFCURVE",
"83 -36 OFFCURVE",
"111 -48 CURVE SMOOTH",
"139 -60 OFFCURVE",
"171 -65 OFFCURVE",
"207 -65 CURVE SMOOTH",
"237 -65 OFFCURVE",
"264 -60 OFFCURVE",
"288 -52 CURVE SMOOTH",
"312 -44 OFFCURVE",
"332 -32 OFFCURVE",
"348 -18 CURVE SMOOTH",
"364 -4 OFFCURVE",
"377 14 OFFCURVE",
"385 34 CURVE SMOOTH",
"393 54 OFFCURVE",
"398 74 OFFCURVE",
"398 98 CURVE SMOOTH",
"398 121 OFFCURVE",
"392 142 OFFCURVE",
"382 158 CURVE SMOOTH",
"372 174 OFFCURVE",
"358 189 OFFCURVE",
"342 201 CURVE",
"370 213 OFFCURVE",
"390 231 OFFCURVE",
"403 252 CURVE SMOOTH",
"416 273 OFFCURVE",
"422 297 OFFCURVE",
"422 324 CURVE SMOOTH",
"422 344 OFFCURVE",
"418 362 OFFCURVE",
"410 378 CURVE SMOOTH",
"402 394 OFFCURVE",
"392 406 OFFCURVE",
"379 418 CURVE SMOOTH",
"366 430 OFFCURVE",
"351 441 OFFCURVE",
"334 450 CURVE SMOOTH",
"317 459 OFFCURVE",
"300 467 OFFCURVE",
"282 475 CURVE SMOOTH",
"264 483 OFFCURVE",
"247 490 OFFCURVE",
"230 497 CURVE SMOOTH",
"213 504 OFFCURVE",
"198 512 OFFCURVE",
"185 520 CURVE SMOOTH",
"172 528 OFFCURVE",
"162 536 OFFCURVE",
"154 546 CURVE SMOOTH",
"146 556 OFFCURVE",
"142 566 OFFCURVE",
"142 578 CURVE SMOOTH",
"142 588 OFFCURVE",
"144 598 OFFCURVE",
"148 608 CURVE SMOOTH",
"152 618 OFFCURVE",
"159 626 OFFCURVE",
"168 633 CURVE SMOOTH",
"177 640 OFFCURVE",
"189 646 OFFCURVE",
"202 650 CURVE SMOOTH",
"215 654 OFFCURVE",
"229 656 OFFCURVE",
"245 656 CURVE SMOOTH",
"263 656 OFFCURVE",
"278 654 OFFCURVE",
"290 650 CURVE SMOOTH",
"302 646 OFFCURVE",
"313 641 OFFCURVE",
"322 637 CURVE SMOOTH",
"331 633 OFFCURVE",
"340 629 OFFCURVE",
"346 625 CURVE SMOOTH",
"352 621 OFFCURVE",
"357 620 OFFCURVE",
"362 620 CURVE SMOOTH",
"370 620 OFFCURVE",
"377 622 OFFCURVE",
"381 630 CURVE"
);
},
{
closed = 1;
nodes = (
"108 361 LINE SMOOTH",
"108 377 OFFCURVE",
"113 391 OFFCURVE",
"122 403 CURVE SMOOTH",
"131 415 OFFCURVE",
"146 426 OFFCURVE",
"168 436 CURVE",
"182 430 OFFCURVE",
"196 423 OFFCURVE",
"210 417 CURVE SMOOTH",
"224 411 OFFCURVE",
"237 405 OFFCURVE",
"250 399 CURVE SMOOTH",
"263 393 OFFCURVE",
"275 386 OFFCURVE",
"287 380 CURVE SMOOTH",
"299 374 OFFCURVE",
"309 368 OFFCURVE",
"317 360 CURVE SMOOTH",
"325 352 OFFCURVE",
"333 344 OFFCURVE",
"338 334 CURVE SMOOTH",
"343 324 OFFCURVE",
"345 314 OFFCURVE",
"345 302 CURVE SMOOTH",
"345 286 OFFCURVE",
"341 272 OFFCURVE",
"333 260 CURVE SMOOTH",
"325 248 OFFCURVE",
"312 236 OFFCURVE",
"294 228 CURVE",
"274 238 OFFCURVE",
"252 249 OFFCURVE",
"230 258 CURVE SMOOTH",
"208 267 OFFCURVE",
"188 275 OFFCURVE",
"170 285 CURVE SMOOTH",
"152 295 OFFCURVE",
"138 305 OFFCURVE",
"126 317 CURVE SMOOTH",
"114 329 OFFCURVE",
"108 343 OFFCURVE",
"108 360 CURVE SMOOTH"
);
}
);
width = 451;
}
);
note = section;
unicode = 00A7;
},
{
glyphname = dieresis;
lastChange = "2017-11-28 23:39:02 +0000";
layers = (
{
layerId = "C81CB9C3-2214-4415-8D0B-901773012C9D";
paths = (
{
closed = 1;
nodes = (
"154 652 OFFCURVE",
"153 659 OFFCURVE",
"150 666 CURVE SMOOTH",
"147 673 OFFCURVE",
"144 679 OFFCURVE",
"138 684 CURVE SMOOTH",
"132 689 OFFCURVE",
"126 693 OFFCURVE",
"119 696 CURVE SMOOTH",
"112 699 OFFCURVE",
"105 701 OFFCURVE",
"97 701 CURVE SMOOTH",
"89 701 OFFCURVE",
"82 699 OFFCURVE",
"76 696 CURVE SMOOTH",
"70 693 OFFCURVE",
"63 689 OFFCURVE",
"58 684 CURVE SMOOTH",
"53 679 OFFCURVE",
"49 673 OFFCURVE",
"46 666 CURVE SMOOTH",
"43 659 OFFCURVE",
"42 652 OFFCURVE",
"42 644 CURVE SMOOTH",
"42 636 OFFCURVE",
"43 630 OFFCURVE",
"46 624 CURVE SMOOTH",
"49 618 OFFCURVE",
"53 611 OFFCURVE",
"58 606 CURVE SMOOTH",
"63 601 OFFCURVE",
"70 597 OFFCURVE",
"76 594 CURVE SMOOTH",
"82 591 OFFCURVE",
"89 590 OFFCURVE",
"97 590 CURVE SMOOTH",
"105 590 OFFCURVE",
"111 591 OFFCURVE",
"118 594 CURVE SMOOTH",
"125 597 OFFCURVE",
"131 601 OFFCURVE",
"137 606 CURVE SMOOTH",
"143 611 OFFCURVE",
"147 618 OFFCURVE",
"150 624 CURVE SMOOTH",
"153 630 OFFCURVE",
"154 636 OFFCURVE",
"154 644 CURVE SMOOTH"
);
},
{
closed = 1;
nodes = (
"334 644 LINE",
"334 652 OFFCURVE",
"332 659 OFFCURVE",
"329 666 CURVE SMOOTH",
"326 673 OFFCURVE",
"322 679 OFFCURVE",
"317 684 CURVE SMOOTH",
"312 689 OFFCURVE",
"306 693 OFFCURVE",
"299 696 CURVE SMOOTH",
"292 699 OFFCURVE",
"285 701 OFFCURVE",
"277 701 CURVE SMOOTH",
"269 701 OFFCURVE",
"262 699 OFFCURVE",
"255 696 CURVE SMOOTH",
"248 693 OFFCURVE",
"242 689 OFFCURVE",
"237 684 CURVE SMOOTH",
"232 679 OFFCURVE",
"228 673 OFFCURVE",
"225 666 CURVE SMOOTH",
"222 659 OFFCURVE",
"220 652 OFFCURVE",
"220 644 CURVE SMOOTH",
"220 636 OFFCURVE",
"222 630 OFFCURVE",
"225 624 CURVE SMOOTH",
"228 618 OFFCURVE",
"232 611 OFFCURVE",
"237 606 CURVE SMOOTH",
"242 601 OFFCURVE",
"248 597 OFFCURVE",
"255 594 CURVE SMOOTH",
"262 591 OFFCURVE",
"268 590 OFFCURVE",
"276 590 CURVE SMOOTH",
"284 590 OFFCURVE",
"291 591 OFFCURVE",
"298 594 CURVE SMOOTH",
"305 597 OFFCURVE",
"311 601 OFFCURVE",
"316 606 CURVE SMOOTH",
"321 611 OFFCURVE",
"325 618 OFFCURVE",
"328 624 CURVE SMOOTH",
"331 630 OFFCURVE",
"332 636 OFFCURVE",
"332 644 CURVE"
);
}
);
width = 374;
}
);
note = dieresis;
unicode = 00A8;
},
{
glyphname = copyright;
lastChange = "2017-11-28 23:39:02 +0000";
layers = (
{
layerId = "C81CB9C3-2214-4415-8D0B-901773012C9D";
paths = (
{
closed = 1;
nodes = (
"512 232 LINE",
"494 220 LINE SMOOTH",
"488 216 OFFCURVE",
"480 212 OFFCURVE",
"472 208 CURVE SMOOTH",
"464 204 OFFCURVE",
"455 202 OFFCURVE",
"444 200 CURVE SMOOTH",
"433 198 OFFCURVE",
"420 198 OFFCURVE",
"404 198 CURVE SMOOTH",
"384 198 OFFCURVE",
"364 201 OFFCURVE",
"346 208 CURVE SMOOTH",
"328 215 OFFCURVE",
"314 225 OFFCURVE",
"302 239 CURVE SMOOTH",
"290 253 OFFCURVE",
"279 270 OFFCURVE",
"272 290 CURVE SMOOTH",
"265 310 OFFCURVE",
"262 332 OFFCURVE",
"262 358 CURVE SMOOTH",
"262 383 OFFCURVE",
"265 406 OFFCURVE",
"272 426 CURVE SMOOTH",
"279 446 OFFCURVE",
"289 462 OFFCURVE",
"302 476 CURVE SMOOTH",
"315 490 OFFCURVE",
"331 500 OFFCURVE",
"350 508 CURVE SMOOTH",
"369 516 OFFCURVE",
"390 520 OFFCURVE",
"414 520 CURVE SMOOTH",
"434 520 OFFCURVE",
"450 518 OFFCURVE",
"462 514 CURVE SMOOTH",
"474 510 OFFCURVE",
"485 505 OFFCURVE",
"493 501 CURVE SMOOTH",
"501 497 OFFCURVE",
"508 493 OFFCURVE",
"513 489 CURVE SMOOTH",
"518 485 OFFCURVE",
"524 484 OFFCURVE",
"528 484 CURVE SMOOTH",
"532 484 OFFCURVE",
"536 484 OFFCURVE",
"538 486 CURVE SMOOTH",
"544 492 LINE",
"566 525 LINE",
"547 543 OFFCURVE",
"526 558 OFFCURVE",
"500 570 CURVE SMOOTH",
"474 582 OFFCURVE",
"444 587 OFFCURVE",
"408 587 CURVE SMOOTH",
"376 587 OFFCURVE",
"345 581 OFFCURVE",
"317 570 CURVE SMOOTH",
"289 559 OFFCURVE",
"264 544 OFFCURVE",
"244 524 CURVE SMOOTH",
"224 504 OFFCURVE",
"208 480 OFFCURVE",
"196 452 CURVE SMOOTH",
"184 424 OFFCURVE",
"179 394 OFFCURVE",
"179 360 CURVE SMOOTH",
"179 326 OFFCURVE",
"184 296 OFFCURVE",
"194 268 CURVE SMOOTH",
"204 240 OFFCURVE",
"220 215 OFFCURVE",
"239 195 CURVE SMOOTH",
"258 175 OFFCURVE",
"281 159 OFFCURVE",
"308 147 CURVE SMOOTH",
"335 135 OFFCURVE",
"365 130 OFFCURVE",
"397 130 CURVE SMOOTH",
"435 130 OFFCURVE",
"468 136 OFFCURVE",
"496 148 CURVE SMOOTH",
"524 160 OFFCURVE",
"547 177 OFFCURVE",
"566 199 CURVE",
"536 231 LINE SMOOTH",
"534 233 OFFCURVE",
"532 235 OFFCURVE",
"530 236 CURVE SMOOTH",
"528 237 OFFCURVE",
"527 237 OFFCURVE",
"523 237 CURVE SMOOTH",
"521 237 OFFCURVE",
"519 237 OFFCURVE",
"517 236 CURVE SMOOTH",
"515 235 OFFCURVE",
"512 234 OFFCURVE",
"510 232 CURVE"
);
},
{
closed = 1;
nodes = (
"29 358 LINE",
"29 324 OFFCURVE",
"34 292 OFFCURVE",
"42 261 CURVE SMOOTH",
"50 230 OFFCURVE",
"62 201 OFFCURVE",
"78 174 CURVE SMOOTH",
"94 147 OFFCURVE",
"114 122 OFFCURVE",
"136 100 CURVE SMOOTH",
"158 78 OFFCURVE",
"183 60 OFFCURVE",
"210 44 CURVE SMOOTH",
"237 28 OFFCURVE",
"266 14 OFFCURVE",
"297 6 CURVE SMOOTH",
"328 -2 OFFCURVE",
"360 -6 OFFCURVE",
"394 -6 CURVE SMOOTH",
"428 -6 OFFCURVE",
"460 -2 OFFCURVE",
"491 6 CURVE SMOOTH",
"522 14 OFFCURVE",
"551 28 OFFCURVE",
"578 44 CURVE SMOOTH",
"605 60 OFFCURVE",
"630 78 OFFCURVE",
"652 100 CURVE SMOOTH",
"674 122 OFFCURVE",
"694 147 OFFCURVE",
"710 174 CURVE SMOOTH",
"726 201 OFFCURVE",
"738 230 OFFCURVE",
"746 261 CURVE SMOOTH",
"754 292 OFFCURVE",
"759 324 OFFCURVE",
"759 358 CURVE SMOOTH",
"759 392 OFFCURVE",
"754 423 OFFCURVE",
"746 454 CURVE SMOOTH",
"738 485 OFFCURVE",
"725 515 OFFCURVE",
"709 542 CURVE SMOOTH",
"693 569 OFFCURVE",
"674 593 OFFCURVE",
"652 615 CURVE SMOOTH",
"630 637 OFFCURVE",
"605 656 OFFCURVE",
"578 672 CURVE SMOOTH",
"551 688 OFFCURVE",
"521 701 OFFCURVE",
"490 709 CURVE SMOOTH",
"459 717 OFFCURVE",
"428 722 OFFCURVE",
"394 722 CURVE SMOOTH",
"360 722 OFFCURVE",
"327 717 OFFCURVE",
"296 709 CURVE SMOOTH",
"265 701 OFFCURVE",
"237 688 OFFCURVE",
"210 672 CURVE SMOOTH",
"183 656 OFFCURVE",
"158 637 OFFCURVE",
"136 615 CURVE SMOOTH",
"114 593 OFFCURVE",
"94 569 OFFCURVE",
"78 542 CURVE SMOOTH",
"62 515 OFFCURVE",
"49 485 OFFCURVE",
"41 454 CURVE SMOOTH",
"33 423 OFFCURVE",
"28 392 OFFCURVE",
"28 358 CURVE"
);
},
{
closed = 1;
nodes = (
"78 358 LINE",
"78 402 OFFCURVE",
"86 444 OFFCURVE",
"102 483 CURVE SMOOTH",
"118 522 OFFCURVE",
"142 556 OFFCURVE",
"170 585 CURVE SMOOTH",
"198 614 OFFCURVE",
"232 637 OFFCURVE",
"270 654 CURVE SMOOTH",
"308 671 OFFCURVE",
"350 680 OFFCURVE",
"394 680 CURVE SMOOTH",
"424 680 OFFCURVE",
"451 676 OFFCURVE",
"478 668 CURVE SMOOTH",
"505 660 OFFCURVE",
"530 650 OFFCURVE",
"554 636 CURVE SMOOTH",
"578 622 OFFCURVE",
"599 605 OFFCURVE",
"618 585 CURVE SMOOTH",
"637 565 OFFCURVE",
"652 544 OFFCURVE",
"666 520 CURVE SMOOTH",
"680 496 OFFCURVE",
"690 470 OFFCURVE",
"698 442 CURVE SMOOTH",
"706 414 OFFCURVE",
"709 386 OFFCURVE",
"709 356 CURVE SMOOTH",
"709 312 OFFCURVE",
"700 270 OFFCURVE",
"684 231 CURVE SMOOTH",
"668 192 OFFCURVE",
"644 158 OFFCURVE",
"616 129 CURVE SMOOTH",
"588 100 OFFCURVE",
"554 76 OFFCURVE",
"516 60 CURVE SMOOTH",
"478 44 OFFCURVE",
"436 36 OFFCURVE",
"392 36 CURVE SMOOTH",
"362 36 OFFCURVE",
"335 38 OFFCURVE",
"308 46 CURVE SMOOTH",
"281 54 OFFCURVE",
"256 64 OFFCURVE",
"232 78 CURVE SMOOTH",
"208 92 OFFCURVE",
"187 108 OFFCURVE",
"168 128 CURVE SMOOTH",
"149 148 OFFCURVE",
"134 170 OFFCURVE",
"120 194 CURVE SMOOTH",
"106 218 OFFCURVE",
"96 242 OFFCURVE",
"88 270 CURVE SMOOTH",
"80 298 OFFCURVE",
"77 326 OFFCURVE",
"77 356 CURVE"
);
}
);
width = 793;
}
);
leftKerningGroup = O;
note = copyright;
rightKerningGroup = O;
unicode = 00A9;
},
{
glyphname = ordfeminine;
lastChange = "2017-11-28 23:39:02 +0000";
layers = (
{
layerId = "C81CB9C3-2214-4415-8D0B-901773012C9D";
paths = (
{
closed = 1;
nodes = (
"288 420 LINE",
"288 610 LINE SMOOTH",
"288 627 OFFCURVE",
"285 643 OFFCURVE",
"280 657 CURVE SMOOTH",
"275 671 OFFCURVE",
"268 683 OFFCURVE",
"258 693 CURVE SMOOTH",
"248 703 OFFCURVE",
"237 710 OFFCURVE",
"223 716 CURVE SMOOTH",
"209 722 OFFCURVE",
"193 725 OFFCURVE",
"175 725 CURVE SMOOTH",
"151 725 OFFCURVE",
"128 722 OFFCURVE",
"108 714 CURVE SMOOTH",
"88 706 OFFCURVE",
"70 694 OFFCURVE",
"52 678 CURVE",
"62 656 LINE",
"64 652 OFFCURVE",
"66 650 OFFCURVE",
"70 648 CURVE SMOOTH",
"74 646 OFFCURVE",
"78 644 OFFCURVE",
"82 644 CURVE SMOOTH",
"88 644 OFFCURVE",
"93 645 OFFCURVE",
"98 648 CURVE SMOOTH",
"103 651 OFFCURVE",
"108 654 OFFCURVE",
"114 658 CURVE SMOOTH",
"120 662 OFFCURVE",
"128 664 OFFCURVE",
"136 667 CURVE SMOOTH",
"144 670 OFFCURVE",
"155 672 OFFCURVE",
"167 672 CURVE SMOOTH",
"186 672 OFFCURVE",
"200 666 OFFCURVE",
"210 656 CURVE SMOOTH",
"220 646 OFFCURVE",
"224 631 OFFCURVE",
"224 610 CURVE SMOOTH",
"224 592 LINE",
"188 592 OFFCURVE",
"159 588 OFFCURVE",
"135 582 CURVE SMOOTH",
"111 576 OFFCURVE",
"91 568 OFFCURVE",
"77 559 CURVE SMOOTH",
"63 550 OFFCURVE",
"52 540 OFFCURVE",
"46 529 CURVE SMOOTH",
"40 518 OFFCURVE",
"36 507 OFFCURVE",
"36 495 CURVE SMOOTH",
"36 481 OFFCURVE",
"38 470 OFFCURVE",
"42 460 CURVE SMOOTH",
"46 450 OFFCURVE",
"53 441 OFFCURVE",
"61 434 CURVE SMOOTH",
"69 427 OFFCURVE",
"79 422 OFFCURVE",
"90 418 CURVE SMOOTH",
"101 414 OFFCURVE",
"112 414 OFFCURVE",
"124 414 CURVE SMOOTH",
"136 414 OFFCURVE",
"146 414 OFFCURVE",
"156 416 CURVE SMOOTH",
"166 418 OFFCURVE",
"175 422 OFFCURVE",
"183 426 CURVE SMOOTH",
"191 430 OFFCURVE",
"199 434 OFFCURVE",
"207 440 CURVE SMOOTH",
"215 446 OFFCURVE",
"222 451 OFFCURVE",
"230 458 CURVE",
"236 434 LINE",
"238 428 OFFCURVE",
"242 424 OFFCURVE",
"245 422 CURVE SMOOTH",
"248 420 OFFCURVE",
"252 418 OFFCURVE",
"258 418 CURVE"
);
},
{
closed = 1;
nodes = (
"145 460 LINE",
"131 460 OFFCURVE",
"120 462 OFFCURVE",
"112 468 CURVE SMOOTH",
"104 474 OFFCURVE",
"99 484 OFFCURVE",
"99 498 CURVE SMOOTH",
"99 505 OFFCURVE",
"102 512 OFFCURVE",
"106 518 CURVE SMOOTH",
"110 524 OFFCURVE",
"117 529 OFFCURVE",
"127 533 CURVE SMOOTH",
"137 537 OFFCURVE",
"150 541 OFFCURVE",
"166 544 CURVE SMOOTH",
"182 547 OFFCURVE",
"201 549 OFFCURVE",
"225 549 CURVE",
"225 496 LINE",
"213 484 OFFCURVE",
"200 476 OFFCURVE",
"188 470 CURVE SMOOTH",
"176 464 OFFCURVE",
"161 460 OFFCURVE",
"144 460 CURVE"
);
}
);
width = 333;
}
);
leftKerningGroup = ordfeminine;
note = ordfeminine;
rightKerningGroup = ordfeminine;
unicode = 00AA;
},
{
glyphname = guillemotleft;
lastChange = "2017-11-28 23:39:02 +0000";
layers = (
{
layerId = "C81CB9C3-2214-4415-8D0B-901773012C9D";
paths = (
{
closed = 1;
nodes = (
"32 259 LINE",
"157 64 LINE",
"186 78 LINE",
"196 82 OFFCURVE",
"200 90 OFFCURVE",
"200 100 CURVE SMOOTH",
"200 102 OFFCURVE",
"199 105 OFFCURVE",
"198 108 CURVE SMOOTH",
"197 111 OFFCURVE",
"196 114 OFFCURVE",
"194 116 CURVE",
"115 247 LINE",
"111 255 OFFCURVE",
"106 261 OFFCURVE",
"101 265 CURVE",
"105 269 OFFCURVE",
"110 276 OFFCURVE",
"114 284 CURVE",
"194 414 LINE",
"198 420 OFFCURVE",
"199 424 OFFCURVE",
"199 430 CURVE SMOOTH",
"199 434 OFFCURVE",
"198 438 OFFCURVE",
"196 442 CURVE SMOOTH",
"194 446 OFFCURVE",
"189 450 OFFCURVE",
"185 452 CURVE SMOOTH",
"156 466 LINE",
"32 271 LINE"
);
},
{
closed = 1;
nodes = (
"180 260 LINE",
"304 65 LINE",
"333 79 LINE",
"343 83 OFFCURVE",
"347 90 OFFCURVE",
"347 100 CURVE SMOOTH",
"347 102 OFFCURVE",
"347 105 OFFCURVE",
"346 108 CURVE SMOOTH",
"345 111 OFFCURVE",
"344 115 OFFCURVE",
"342 117 CURVE",
"262 248 LINE",
"258 256 OFFCURVE",
"253 262 OFFCURVE",
"248 266 CURVE",
"252 270 OFFCURVE",
"258 276 OFFCURVE",
"262 284 CURVE",
"341 414 LINE",
"345 420 OFFCURVE",
"346 425 OFFCURVE",
"346 431 CURVE SMOOTH",
"346 435 OFFCURVE",
"344 439 OFFCURVE",
"342 443 CURVE SMOOTH",
"340 447 OFFCURVE",
"336 450 OFFCURVE",
"332 452 CURVE SMOOTH",
"303 466 LINE",
"178 272 LINE"
);
}
);
width = 384;
}
);
note = guillemotleft;
unicode = 00AB;
},
{
glyphname = logicalnot;
lastChange = "2017-11-28 23:39:02 +0000";
layers = (
{
layerId = "C81CB9C3-2214-4415-8D0B-901773012C9D";
paths = (
{
closed = 1;
nodes = (
"44 370 LINE",
"44 302 LINE",
"398 302 LINE",
"398 158 LINE",
"474 158 LINE",
"474 370 LINE"
);
}
);
width = 522;
}
);
leftKerningGroup = emdash;
note = logicalnot;
unicode = 00AC;
},
{
glyphname = uni00AD;
lastChange = "2017-11-28 23:39:02 +0000";
layers = (
{
layerId = "C81CB9C3-2214-4415-8D0B-901773012C9D";
paths = (
{
closed = 1;
nodes = (
"48 338 LINE",
"48 262 LINE",
"294 262 LINE",
"294 338 LINE"
);
}
);
width = 341;
}
);
note = uni00AD;
unicode = 00AD;
},
{
glyphname = registered;
lastChange = "2017-11-28 23:39:02 +0000";
layers = (
{
layerId = "C81CB9C3-2214-4415-8D0B-901773012C9D";
paths = (
{
closed = 1;
nodes = (
"32 358 LINE",
"32 324 OFFCURVE",
"36 292 OFFCURVE",
"44 261 CURVE SMOOTH",
"52 230 OFFCURVE",
"65 201 OFFCURVE",
"81 174 CURVE SMOOTH",
"97 147 OFFCURVE",
"116 122 OFFCURVE",
"138 100 CURVE SMOOTH",
"160 78 OFFCURVE",
"185 60 OFFCURVE",
"212 44 CURVE SMOOTH",
"239 28 OFFCURVE",
"269 14 OFFCURVE",
"300 6 CURVE SMOOTH",
"331 -2 OFFCURVE",
"362 -6 OFFCURVE",
"396 -6 CURVE SMOOTH",
"430 -6 OFFCURVE",
"463 -2 OFFCURVE",
"494 6 CURVE SMOOTH",
"525 14 OFFCURVE",
"553 28 OFFCURVE",
"580 44 CURVE SMOOTH",
"607 60 OFFCURVE",
"632 78 OFFCURVE",
"654 100 CURVE SMOOTH",
"676 122 OFFCURVE",
"696 147 OFFCURVE",
"712 174 CURVE SMOOTH",
"728 201 OFFCURVE",
"740 230 OFFCURVE",
"748 261 CURVE SMOOTH",
"756 292 OFFCURVE",
"762 324 OFFCURVE",
"762 358 CURVE SMOOTH",
"762 392 OFFCURVE",
"756 423 OFFCURVE",
"748 454 CURVE SMOOTH",
"740 485 OFFCURVE",
"728 515 OFFCURVE",
"712 542 CURVE SMOOTH",
"696 569 OFFCURVE",
"676 593 OFFCURVE",
"654 615 CURVE SMOOTH",
"632 637 OFFCURVE",
"607 656 OFFCURVE",
"580 672 CURVE SMOOTH",
"553 688 OFFCURVE",
"524 701 OFFCURVE",
"493 709 CURVE SMOOTH",
"462 717 OFFCURVE",
"430 722 OFFCURVE",
"396 722 CURVE SMOOTH",
"362 722 OFFCURVE",
"330 717 OFFCURVE",
"299 709 CURVE SMOOTH",
"268 701 OFFCURVE",
"239 688 OFFCURVE",
"212 672 CURVE SMOOTH",
"185 656 OFFCURVE",
"160 637 OFFCURVE",
"138 615 CURVE SMOOTH",
"116 593 OFFCURVE",
"96 569 OFFCURVE",
"80 542 CURVE SMOOTH",
"64 515 OFFCURVE",
"52 485 OFFCURVE",
"44 454 CURVE SMOOTH",
"36 423 OFFCURVE",
"30 392 OFFCURVE",
"30 358 CURVE"
);
},
{
closed = 1;
nodes = (
"80 358 LINE SMOOTH",
"80 402 OFFCURVE",
"89 444 OFFCURVE",
"105 483 CURVE SMOOTH",
"121 522 OFFCURVE",
"144 556 OFFCURVE",
"172 585 CURVE SMOOTH",
"200 614 OFFCURVE",
"235 637 OFFCURVE",
"273 654 CURVE SMOOTH",
"311 671 OFFCURVE",
"352 680 OFFCURVE",
"396 680 CURVE SMOOTH",
"426 680 OFFCURVE",
"454 676 OFFCURVE",
"481 668 CURVE SMOOTH",
"508 660 OFFCURVE",
"532 650 OFFCURVE",
"556 636 CURVE SMOOTH",
"580 622 OFFCURVE",
"601 605 OFFCURVE",
"620 585 CURVE SMOOTH",
"639 565 OFFCURVE",
"655 544 OFFCURVE",
"669 520 CURVE SMOOTH",
"683 496 OFFCURVE",
"692 470 OFFCURVE",
"700 442 CURVE SMOOTH",
"708 414 OFFCURVE",
"712 386 OFFCURVE",
"712 356 CURVE SMOOTH",
"712 312 OFFCURVE",
"702 270 OFFCURVE",
"686 231 CURVE SMOOTH",
"670 192 OFFCURVE",
"647 158 OFFCURVE",
"619 129 CURVE SMOOTH",
"591 100 OFFCURVE",
"556 76 OFFCURVE",
"518 60 CURVE SMOOTH",
"480 44 OFFCURVE",
"438 36 OFFCURVE",
"394 36 CURVE SMOOTH",
"364 36 OFFCURVE",
"337 38 OFFCURVE",
"310 46 CURVE SMOOTH",
"283 54 OFFCURVE",
"258 64 OFFCURVE",
"234 78 CURVE SMOOTH",
"210 92 OFFCURVE",
"190 108 OFFCURVE",
"171 128 CURVE SMOOTH",
"152 148 OFFCURVE",
"136 170 OFFCURVE",
"122 194 CURVE SMOOTH",
"108 218 OFFCURVE",
"98 242 OFFCURVE",
"90 270 CURVE SMOOTH",
"82 298 OFFCURVE",
"80 326 OFFCURVE",
"80 356 CURVE SMOOTH"
);
},
{
closed = 1;
nodes = (
"322 311 LINE",
"362 311 LINE SMOOTH",
"370 311 OFFCURVE",
"378 310 OFFCURVE",
"382 308 CURVE SMOOTH",
"386 306 OFFCURVE",
"389 301 OFFCURVE",
"392 297 CURVE",
"492 146 LINE",
"498 138 OFFCURVE",
"506 134 OFFCURVE",
"517 134 CURVE SMOOTH",
"591 134 LINE",
"477 300 LINE SMOOTH",
"473 306 OFFCURVE",
"470 313 OFFCURVE",
"466 318 CURVE SMOOTH",
"462 323 OFFCURVE",
"457 326 OFFCURVE",
"451 330 CURVE",
"487 338 OFFCURVE",
"513 354 OFFCURVE",
"531 376 CURVE SMOOTH",
"549 398 OFFCURVE",
"558 424 OFFCURVE",
"558 456 CURVE SMOOTH",
"558 496 OFFCURVE",
"544 527 OFFCURVE",
"516 548 CURVE SMOOTH",
"488 569 OFFCURVE",
"447 580 OFFCURVE",
"389 580 CURVE SMOOTH",
"245 580 LINE",
"245 134 LINE",
"323 134 LINE"
);
},
{
closed = 1;
nodes = (
"323 368 LINE",
"323 520 LINE",
"389 520 LINE SMOOTH",
"407 520 OFFCURVE",
"420 518 OFFCURVE",
"432 515 CURVE SMOOTH",
"444 512 OFFCURVE",
"453 508 OFFCURVE",
"460 502 CURVE SMOOTH",
"467 496 OFFCURVE",
"473 488 OFFCURVE",
"476 478 CURVE SMOOTH",
"479 468 OFFCURVE",
"480 458 OFFCURVE",
"480 446 CURVE SMOOTH",
"480 434 OFFCURVE",
"478 422 OFFCURVE",
"474 412 CURVE SMOOTH",
"470 402 OFFCURVE",
"466 394 OFFCURVE",
"458 388 CURVE SMOOTH",
"450 382 OFFCURVE",
"439 378 OFFCURVE",
"426 374 CURVE SMOOTH",
"413 370 OFFCURVE",
"397 368 OFFCURVE",
"379 368 CURVE SMOOTH"
);
}
);
width = 793;
}
);
leftKerningGroup = O;
note = registered;
rightKerningGroup = O;
unicode = 00AE;
},
{
glyphname = macron;
lastChange = "2017-11-28 23:39:02 +0000";
layers = (
{
layerId = "C81CB9C3-2214-4415-8D0B-901773012C9D";
paths = (
{
closed = 1;
nodes = (
"46 674 LINE",
"46 616 LINE",
"333 616 LINE",
"333 674 LINE"
);
}
);
width = 377;
}
);
note = macron;
unicode = 00AF;
},
{
glyphname = degree;
lastChange = "2017-11-28 23:39:02 +0000";
layers = (
{
layerId = "C81CB9C3-2214-4415-8D0B-901773012C9D";
paths = (
{
closed = 1;
nodes = (
"34 564 LINE",
"34 542 OFFCURVE",
"38 522 OFFCURVE",
"46 502 CURVE SMOOTH",
"54 482 OFFCURVE",
"67 464 OFFCURVE",
"81 450 CURVE SMOOTH",
"95 436 OFFCURVE",
"112 424 OFFCURVE",
"132 416 CURVE SMOOTH",
"152 408 OFFCURVE",
"174 403 OFFCURVE",
"197 403 CURVE SMOOTH",
"220 403 OFFCURVE",
"242 408 OFFCURVE",
"262 416 CURVE SMOOTH",
"282 424 OFFCURVE",
"299 436 OFFCURVE",
"313 450 CURVE SMOOTH",
"327 464 OFFCURVE",
"340 481 OFFCURVE",
"348 501 CURVE SMOOTH",
"356 521 OFFCURVE",
"360 541 OFFCURVE",
"360 563 CURVE SMOOTH",
"360 585 OFFCURVE",
"356 606 OFFCURVE",
"348 626 CURVE SMOOTH",
"340 646 OFFCURVE",
"327 663 OFFCURVE",
"313 677 CURVE SMOOTH",
"299 691 OFFCURVE",
"281 704 OFFCURVE",
"261 712 CURVE SMOOTH",
"241 720 OFFCURVE",
"219 724 OFFCURVE",
"196 724 CURVE SMOOTH",
"173 724 OFFCURVE",
"152 720 OFFCURVE",
"132 712 CURVE SMOOTH",
"112 704 OFFCURVE",
"94 691 OFFCURVE",
"80 677 CURVE SMOOTH",
"66 663 OFFCURVE",
"54 646 OFFCURVE",
"46 626 CURVE SMOOTH",
"38 606 OFFCURVE",
"33 585 OFFCURVE",
"33 563 CURVE"
);
},
{
closed = 1;
nodes = (
"96 576 OFFCURVE",
"99 590 OFFCURVE",
"104 602 CURVE SMOOTH",
"109 614 OFFCURVE",
"116 625 OFFCURVE",
"125 634 CURVE SMOOTH",
"134 643 OFFCURVE",
"144 650 OFFCURVE",
"156 655 CURVE SMOOTH",
"168 660 OFFCURVE",
"182 662 OFFCURVE",
"196 662 CURVE SMOOTH",
"210 662 OFFCURVE",
"222 660 OFFCURVE",
"234 655 CURVE SMOOTH",
"246 650 OFFCURVE",
"257 643 OFFCURVE",
"266 634 CURVE SMOOTH",
"275 625 OFFCURVE",
"282 614 OFFCURVE",
"287 602 CURVE SMOOTH",
"292 590 OFFCURVE",
"294 576 OFFCURVE",
"294 562 CURVE SMOOTH",
"294 548 OFFCURVE",
"292 535 OFFCURVE",
"287 523 CURVE SMOOTH",
"282 511 OFFCURVE",
"275 501 OFFCURVE",
"266 492 CURVE SMOOTH",
"257 483 OFFCURVE",
"246 475 OFFCURVE",
"234 470 CURVE SMOOTH",
"222 465 OFFCURVE",
"210 463 OFFCURVE",
"196 463 CURVE SMOOTH",
"182 463 OFFCURVE",
"168 465 OFFCURVE",
"156 470 CURVE SMOOTH",
"144 475 OFFCURVE",
"134 483 OFFCURVE",
"125 492 CURVE SMOOTH",
"116 501 OFFCURVE",
"109 511 OFFCURVE",
"104 523 CURVE SMOOTH",
"99 535 OFFCURVE",
"96 548 OFFCURVE",
"96 562 CURVE SMOOTH"
);
}
);
width = 395;
}
);
leftKerningGroup = quotedbl;
note = degree;
rightKerningGroup = quotedbl;
unicode = 00B0;
},
{
glyphname = plusminus;
lastChange = "2017-11-28 23:39:02 +0000";
layers = (
{
layerId = "C81CB9C3-2214-4415-8D0B-901773012C9D";
paths = (
{
closed = 1;
nodes = (
"310 601 LINE",
"237 601 LINE",
"237 413 LINE",
"34 413 LINE",
"34 345 LINE",
"237 345 LINE",
"237 161 LINE",
"310 161 LINE",
"310 345 LINE",
"514 345 LINE",
"514 413 LINE",
"310 413 LINE"
);
},
{
closed = 1;
nodes = (
"34 108 LINE",
"34 40 LINE",
"514 40 LINE",
"514 108 LINE"
);
}
);
width = 545;
}
);
note = plusminus;
unicode = 00B1;
},
{
glyphname = twosuperior;
lastChange = "2017-11-28 23:39:02 +0000";
layers = (
{
layerId = "C81CB9C3-2214-4415-8D0B-901773012C9D";
paths = (
{
closed = 1;
nodes = (
"124 502 LINE",
"206 585 LINE SMOOTH",
"216 595 OFFCURVE",
"225 604 OFFCURVE",
"234 614 CURVE SMOOTH",
"266 648 OFFCURVE",
"281 681 OFFCURVE",
"281 714 CURVE SMOOTH",
"281 746 OFFCURVE",
"271 771 OFFCURVE",
"250 790 CURVE SMOOTH",
"229 809 OFFCURVE",
"200 818 OFFCURVE",
"166 818 CURVE SMOOTH",
"132 818 OFFCURVE",
"103 810 OFFCURVE",
"80 792 CURVE SMOOTH",
"57 774 OFFCURVE",
"43 748 OFFCURVE",
"38 712 CURVE",
"74 706 LINE",
"82 706 LINE SMOOTH",
"91 706 OFFCURVE",
"98 710 OFFCURVE",
"104 720 CURVE",
"114 750 OFFCURVE",
"134 766 OFFCURVE",
"163 766 CURVE SMOOTH",
"178 766 OFFCURVE",
"190 761 OFFCURVE",
"200 752 CURVE SMOOTH",
"210 743 OFFCURVE",
"216 730 OFFCURVE",
"216 713 CURVE SMOOTH",
"216 683 OFFCURVE",
"196 648 OFFCURVE",
"156 608 CURVE SMOOTH",
"45 498 LINE SMOOTH",
"37 490 OFFCURVE",
"34 482 OFFCURVE",
"34 472 CURVE SMOOTH",
"34 450 LINE",
"290 450 LINE",
"290 547 LINE",
"262 547 LINE SMOOTH",
"256 547 OFFCURVE",
"252 543 OFFCURVE",
"250 537 CURVE",
"250 535 OFFCURVE",
"249 526 OFFCURVE",
"247 510 CURVE",
"170 510 LINE SMOOTH",
"158 510 OFFCURVE",
"142 507 OFFCURVE",
"124 503 CURVE"
);
}
);
width = 326;
}
);
note = twosuperior;
unicode = 00B2;
},
